<svg width="157" height="132" viewBox="0 0 157 132" fill="none" xmlns="http://www.w3.org/2000/svg">
<path d="M9 84C-7.76521 90.3605 -26 121.5 -26 121.5V142H161.5L158 3C158 3 152.548 83.6169 128.5 84C115.75 84.2031 100.681 56.3396 88 55C68.8753 52.9798 72.7096 85.552 54 90C37.2441 93.9836 25.103 77.8908 9 84Z" fill="url(#paint0_linear_0_2216)"/>
<path d="M-26 121.5C-26 121.5 -7.76521 90.3605 9 84C25.103 77.8908 37.2441 93.9836 54 90C72.7096 85.552 68.8753 52.4798 88 54.5C100.681 55.8396 115.75 84.2031 128.5 84C152.548 83.6169 158 1 158 1" stroke="#5164BF"/>
<defs>
<linearGradient id="paint0_linear_0_2216" x1="67.75" y1="32" x2="67.75" y2="155.5" gradientUnits="userSpaceOnUse">
<stop stop-color="#5164BF"/>
<stop offset="1" stop-color="#5164BF" stop-opacity="0"/>
</linearGradient>
</defs>
</svg>
