<svg width="24" height="24" viewBox="0 0 24 24" fill="none" xmlns="http://www.w3.org/2000/svg">
<path d="M13 2C10.2386 2 8.00003 4.23858 8.00003 7C8.00003 7.55228 8.44774 8 9.00003 8C9.55231 8 10 7.55228 10 7C10 5.34315 11.3432 4 13 4H17C18.6569 4 20 5.34315 20 7V17C20 18.6569 18.6569 20 17 20H13C11.3432 20 10 18.6569 10 17C10 16.4477 9.55231 16 9.00003 16C8.44774 16 8.00003 16.4477 8.00003 17C8.00003 19.7614 10.2386 22 13 22H17C19.7615 22 22 19.7614 22 17V7C22 4.23858 19.7615 2 17 2H13Z" fill="white"/>
<path d="M14 11C14.5523 11 15 11.4477 15 12C15 12.5523 14.5523 13 14 13V11Z" fill="white"/>
<path d="M5.71795 11C5.80697 10.8902 5.89226 10.7837 5.97295 10.682C6.21843 10.3723 6.42627 10.1004 6.57303 9.90549C6.64648 9.80795 6.7048 9.72946 6.74507 9.67492L6.79164 9.61162L6.80412 9.59454L6.80854 9.58848C6.80858 9.58842 6.80905 9.58778 6.00003 9L6.80854 9.58848C7.13316 9.14167 7.03462 8.51561 6.58781 8.19098C6.14103 7.86637 5.5157 7.9654 5.19106 8.41215L5.18824 8.41602L5.17801 8.43002L5.13624 8.48679C5.0993 8.53682 5.04468 8.61033 4.97528 8.7025C4.83635 8.88702 4.63886 9.14542 4.40579 9.43937C3.93455 10.0337 3.33771 10.7481 2.79292 11.2929L2.08582 12L2.79292 12.7071C3.33771 13.2519 3.93455 13.9663 4.40579 14.5606C4.63886 14.8546 4.83635 15.113 4.97528 15.2975C5.04468 15.3897 5.0993 15.4632 5.13624 15.5132L5.17801 15.57L5.18824 15.584L5.19058 15.5872C5.51521 16.0339 6.14103 16.1336 6.58781 15.809C7.03462 15.4844 7.13367 14.859 6.80905 14.4122L6.00003 15C6.80905 14.4122 6.80909 14.4123 6.80905 14.4122L6.80412 14.4055L6.79164 14.3884L6.74507 14.3251C6.7048 14.2705 6.64648 14.1921 6.57303 14.0945C6.42627 13.8996 6.21843 13.6277 5.97295 13.318C5.89226 13.2163 5.80697 13.1098 5.71795 13H14V11H5.71795Z" fill="white"/>
</svg>
