<svg width="350" height="350" viewBox="0 0 350 350" fill="none" xmlns="http://www.w3.org/2000/svg">
<path d="M90.0691 242.375C112.161 255.213 141.869 257.285 166.593 251.041C179.011 247.898 188.237 241.339 198.94 235.095C213.934 226.338 225.148 227.262 241.941 226.268C290.822 223.384 304.801 176.358 299.544 143.787C293.16 104.181 256.984 72.9539 213.696 69.6429C184.555 67.4169 157.633 71.4839 134.82 83.9369C117.012 93.6599 114.989 108.997 112.084 126.763C109.865 140.322 108.451 155.463 100.107 167.195C92.4701 177.926 81.3751 171.731 71.6591 179.095C46.9001 197.771 71.4631 231.56 90.0691 242.375Z" fill="#8EDFEB"/>
<path opacity="0.9" d="M90.0691 242.375C112.161 255.213 141.869 257.285 166.593 251.041C179.011 247.898 188.237 241.339 198.94 235.095C213.934 226.338 225.148 227.262 241.941 226.268C290.822 223.384 304.801 176.358 299.544 143.787C293.16 104.181 256.984 72.9539 213.696 69.6429C184.555 67.4169 157.633 71.4839 134.82 83.9369C117.012 93.6599 114.989 108.997 112.084 126.763C109.865 140.322 108.451 155.463 100.107 167.195C92.4701 177.926 81.3751 171.731 71.6591 179.095C46.9001 197.771 71.4631 231.56 90.0691 242.375Z" fill="white"/>
<path d="M175 299.292C249.958 299.292 310.723 295.744 310.723 291.368C310.723 286.992 249.958 283.444 175 283.444C100.042 283.444 39.2771 286.992 39.2771 291.368C39.2771 295.744 100.042 299.292 175 299.292Z" fill="#F5F5F5"/>
<path d="M116.571 79.7579L116.13 79.2119C119.205 76.717 122.406 74.3806 125.72 72.2119L126.105 72.7999C122.81 74.9546 119.628 77.277 116.571 79.7579Z" fill="#263238"/>
<path d="M111.405 84.175L110.929 83.657C111.867 82.81 112.833 81.963 113.792 81.144L114.247 81.683C113.288 82.495 112.336 83.335 111.405 84.175Z" fill="#263238"/>
<path d="M188.932 169.604C222.443 140.247 232.842 97.3087 212.159 73.6992C191.476 50.0896 147.543 54.7491 114.032 84.1066C80.5204 113.464 70.1213 156.402 90.8045 180.012C111.488 203.621 155.421 198.962 188.932 169.604Z" fill="#263238"/>
<path d="M183.969 163.939C213.04 138.472 222.061 101.223 204.119 80.7426C186.177 60.262 148.066 64.3046 118.995 89.772C89.9241 115.239 80.9026 152.488 98.8447 172.968C116.787 193.449 154.898 189.406 183.969 163.939Z" fill="white"/>
<path d="M166.005 72.7231C135.702 75.1801 104.636 101.423 96.614 131.285L206.353 122.402C214.375 92.5121 196.308 70.2731 166.005 72.7231Z" fill="#5063BF"/>
<path opacity="0.7" d="M96.6001 131.285L151.473 126.84L122.955 91.7C110.397 102.312 100.625 116.34 96.6001 131.285Z" fill="white"/>
<path opacity="0.4" d="M166.005 72.7229C150.857 73.9549 135.513 81.1229 122.955 91.7139L151.487 126.84L166.005 72.7229Z" fill="white"/>
<path opacity="0.1" d="M166.005 72.723L151.487 126.84L200.55 85.435C193.249 76.447 181.16 71.498 166.005 72.723Z" fill="white"/>
<path d="M164.734 141.983C176.595 131.591 180.278 116.395 172.959 108.04C165.64 99.6858 150.091 101.337 138.23 111.728C126.368 122.119 122.686 137.316 130.005 145.67C137.324 154.025 152.872 152.374 164.734 141.983Z" fill="white"/>
<path d="M159.217 135.685C166.138 129.622 168.285 120.754 164.013 115.877C159.741 111.001 150.667 111.962 143.746 118.026C136.825 124.089 134.678 132.957 138.95 137.834C143.222 142.71 152.296 141.748 159.217 135.685Z" fill="#263238"/>
<path d="M192.556 97.895C179.501 102.825 167.122 109.387 155.715 117.425L160.874 126.665C172.539 118.366 183.175 108.708 192.556 97.895Z" fill="#263238"/>
<path d="M102.9 151.942C102.737 151.95 102.574 151.921 102.425 151.856C102.275 151.791 102.143 151.692 102.038 151.567C101.933 151.443 101.858 151.295 101.819 151.137C101.781 150.978 101.779 150.813 101.815 150.654C101.896 150.26 102.1 149.902 102.396 149.631C102.693 149.359 103.068 149.188 103.467 149.142L163.8 144.361C163.97 144.335 164.145 144.351 164.307 144.408C164.47 144.464 164.617 144.56 164.734 144.686C164.851 144.813 164.936 144.966 164.981 145.132C165.025 145.299 165.028 145.474 164.99 145.642C164.911 146.035 164.709 146.392 164.413 146.663C164.117 146.933 163.743 147.103 163.345 147.147L103.061 151.935L102.9 151.942Z" fill="#8EDFEB"/>
<path d="M155.085 157.682C154.922 157.692 154.758 157.663 154.608 157.599C154.458 157.534 154.325 157.435 154.219 157.31C154.114 157.185 154.039 157.037 154.001 156.878C153.963 156.719 153.963 156.553 154 156.394C154.08 156 154.283 155.642 154.58 155.371C154.877 155.101 155.252 154.932 155.652 154.889L175.252 153.328C175.423 153.301 175.598 153.316 175.762 153.372C175.926 153.428 176.073 153.524 176.191 153.65C176.309 153.777 176.395 153.93 176.44 154.097C176.485 154.265 176.488 154.44 176.449 154.609C176.369 155.003 176.166 155.362 175.869 155.634C175.572 155.905 175.197 156.076 174.797 156.121L155.197 157.675L155.085 157.682Z" fill="#8EDFEB"/>
<path d="M55.405 182.756C55.2422 182.764 55.0796 182.735 54.93 182.67C54.7804 182.605 54.6479 182.506 54.5428 182.381C54.4377 182.257 54.3629 182.109 54.3243 181.951C54.2856 181.792 54.2842 181.627 54.32 181.468C54.4032 181.071 54.611 180.711 54.9132 180.44C55.2154 180.169 55.5962 180.002 56 179.963L75.6001 178.402C75.7707 178.376 75.945 178.393 76.1079 178.449C76.2709 178.506 76.4176 178.602 76.5354 178.728C76.6532 178.854 76.7385 179.007 76.7841 179.173C76.8297 179.339 76.8342 179.514 76.7971 179.683C76.7172 180.076 76.5151 180.434 76.2197 180.706C75.9242 180.977 75.5506 181.148 75.1521 181.195L55.552 182.749L55.405 182.756Z" fill="#8EDFEB"/>
<path d="M72.863 171.297C72.7003 171.306 72.5378 171.276 72.3884 171.211C72.2389 171.146 72.1067 171.047 72.0021 170.922C71.8975 170.797 71.8235 170.65 71.7858 170.491C71.7481 170.333 71.7478 170.168 71.785 170.009C71.8652 169.617 72.0676 169.26 72.3631 168.989C72.6586 168.719 73.032 168.549 73.43 168.504L132.23 163.835C132.401 163.809 132.575 163.826 132.738 163.882C132.901 163.939 133.047 164.035 133.165 164.161C133.283 164.287 133.368 164.44 133.414 164.606C133.46 164.773 133.464 164.948 133.427 165.116C133.346 165.51 133.142 165.868 132.846 166.139C132.549 166.411 132.174 166.582 131.775 166.628L72.975 171.29L72.863 171.297Z" fill="#8EDFEB"/>
<path d="M199.073 234.157L201.565 239.19L213.892 234.759L211.4 229.726L199.073 234.157Z" fill="#FFBE9D"/>
<path d="M139.139 275.548L142.884 279.741L152.404 268.926L147.791 265.72L139.139 275.548Z" fill="#FFBE9D"/>
<path d="M143.738 279.3L141.19 272.937C141.15 272.835 141.075 272.751 140.979 272.699C140.883 272.646 140.772 272.629 140.665 272.65L135.688 273.7C135.565 273.727 135.45 273.781 135.351 273.857C135.251 273.934 135.17 274.031 135.112 274.143C135.055 274.255 135.023 274.378 135.018 274.503C135.014 274.628 135.037 274.753 135.086 274.869C135.94 276.899 136.654 278.369 137.683 280.917C138.32 282.506 140.07 287.357 140.952 289.548C141.834 291.739 144.067 291.067 143.906 290.08C143.157 285.677 143.136 282.114 143.759 280.315C143.879 279.986 143.872 279.624 143.738 279.3Z" fill="#263238"/>
<path d="M202.132 238.868L199.409 233.366C199.359 233.268 199.277 233.189 199.177 233.142C199.077 233.095 198.964 233.083 198.856 233.107L193.886 234.332C193.765 234.36 193.651 234.415 193.555 234.493C193.458 234.571 193.381 234.671 193.329 234.784C193.277 234.897 193.251 235.02 193.254 235.145C193.258 235.269 193.289 235.391 193.347 235.501C194.362 237.468 195.895 240.275 197.134 242.767C198.576 245.686 198.772 245.777 200.466 249.193C201.488 251.258 203.861 250.803 203.623 249.844C202.531 245.476 201.922 244.72 202.342 240.275C202.404 239.796 202.331 239.309 202.132 238.868Z" fill="#263238"/>
<path d="M250.6 143.668C250.341 145.488 250.061 147.448 249.844 149.345C249.627 151.242 249.41 153.174 249.249 155.085C248.878 158.82 248.766 162.576 248.913 166.327C248.913 166.782 248.955 167.237 249.011 167.664L249.137 168.91C249.136 169.279 249.25 169.64 249.465 169.94C249.68 170.24 249.984 170.465 250.334 170.583C250.969 170.874 251.64 171.076 252.329 171.185C254.053 171.441 255.799 171.507 257.537 171.381C258.454 171.318 259.392 171.248 260.337 171.136C261.282 171.024 262.241 170.877 263.137 170.744L264.495 174.741C263.527 175.196 262.537 175.6 261.527 175.952C260.53 176.323 259.513 176.641 258.482 176.904C257.425 177.184 256.352 177.401 255.269 177.555C254.125 177.73 252.968 177.805 251.811 177.779C250.512 177.763 249.221 177.568 247.975 177.198C246.457 176.738 245.076 175.908 243.957 174.783C242.792 173.563 241.988 172.044 241.633 170.394C241.584 170.177 241.563 170.058 241.542 169.918L241.472 169.512L241.325 168.686C241.22 168.14 241.15 167.601 241.087 167.062C240.632 162.878 240.543 158.662 240.821 154.462C240.954 152.404 241.101 150.36 241.353 148.33C241.605 146.3 241.85 144.305 242.242 142.198L250.6 143.668Z" fill="#FFBE9D"/>
<path d="M241.633 138.6C237.951 142.513 239.435 152.39 239.435 152.39L249.781 154C249.781 154 252.182 148.4 251.279 142.625C250.173 135.611 245.658 134.295 241.633 138.6Z" fill="#8EDFEB"/>
<path opacity="0.2" d="M245 142.933C243.292 140.735 241.5 139.951 240.548 140.133C238.259 144.62 239.421 152.362 239.421 152.362L246.75 153.552C247.59 151.277 247.695 146.37 245 142.933Z" fill="black"/>
<path d="M261.758 171.353L267.757 167.419L269.087 173.509C269.087 173.509 265.356 177.289 262.248 174.622L261.758 171.353Z" fill="#FFBE9D"/>
<path d="M271.446 166.103L272.139 171.367L269.087 173.509L267.75 167.419L271.446 166.103Z" fill="#FFBE9D"/>
<path opacity="0.2" d="M213.885 234.766L207.536 237.048L205.044 232.008L211.393 229.726L213.885 234.766Z" fill="black"/>
<path opacity="0.2" d="M147.791 265.72L152.404 268.926L147.938 273.994L143.325 270.781L147.791 265.72Z" fill="black"/>
<path d="M220.318 125.097C216.062 146.874 204.729 166.523 203.147 170.863C207.207 172.564 222.53 178.948 230.881 182.427C246.456 159.25 248.843 142.478 249.2 138.418C249.225 138.128 249.174 137.836 249.051 137.572C248.928 137.308 248.738 137.081 248.5 136.913C247.835 136.43 246.771 135.674 245.476 134.813C244.776 134.365 244.027 133.896 243.222 133.413C242.781 133.154 242.326 132.902 241.864 132.657C238.029 130.799 234.091 129.163 230.069 127.757C229.313 127.484 228.536 127.218 227.773 126.98C227.01 126.742 226.373 126.553 225.708 126.371C222.726 125.573 220.318 125.097 220.318 125.097Z" fill="#8EDFEB"/>
<path d="M236.992 156.149L238.525 156.541C237.514 157.519 236.282 158.239 234.934 158.641C233.394 159.102 231.755 159.127 230.202 158.711C228.827 158.43 227.569 157.742 226.59 156.737C226.178 156.273 225.864 155.729 225.669 155.139C225.474 154.549 225.402 153.926 225.456 153.307C225.558 151.836 225.973 150.404 226.674 149.107C227.488 147.522 228.583 146.099 229.908 144.907C231.101 143.788 232.54 142.964 234.108 142.499C235.519 142.095 237.011 142.071 238.434 142.429C239.518 142.663 240.499 143.237 241.234 144.067C241.913 144.889 242.258 145.936 242.2 147C242.147 148.226 241.814 149.423 241.227 150.5C240.487 151.937 239.414 153.175 238.098 154.112C236.397 155.337 234.808 155.757 233.338 155.386C233.184 155.364 233.035 155.311 232.902 155.231C232.768 155.15 232.652 155.043 232.561 154.917C232.453 154.655 232.453 154.36 232.561 154.098C231.835 154.564 230.958 154.732 230.111 154.567C229.747 154.494 229.412 154.316 229.148 154.055C228.885 153.793 228.703 153.46 228.627 153.097C228.463 152.141 228.654 151.157 229.166 150.332C229.839 149.013 230.795 147.858 231.966 146.951C233.413 145.817 234.736 145.399 235.935 145.698C236.314 145.761 236.656 145.962 236.896 146.261C237.136 146.561 237.258 146.939 237.237 147.322L237.895 146.433L239.792 146.916L235.592 152.691C235.417 152.914 235.256 153.148 235.109 153.391C235.048 153.495 235.019 153.614 235.025 153.734C235.032 153.771 235.05 153.805 235.076 153.833C235.102 153.86 235.135 153.879 235.172 153.888C235.57 153.914 235.967 153.821 236.313 153.622C237.093 153.288 237.805 152.814 238.413 152.222C239.063 151.617 239.607 150.907 240.023 150.122C240.359 149.555 240.578 148.927 240.666 148.274C240.754 147.621 240.709 146.956 240.534 146.321C240.156 145.173 239.204 144.408 237.678 144.025C236.435 143.696 235.123 143.73 233.898 144.123C232.618 144.549 231.456 145.268 230.503 146.223C229.492 147.198 228.646 148.33 227.997 149.576C227.422 150.632 227.112 151.811 227.094 153.013C227.079 153.507 227.164 153.998 227.345 154.458C227.525 154.917 227.797 155.336 228.144 155.687C228.931 156.416 229.897 156.924 230.944 157.157C232.003 157.441 233.108 157.503 234.192 157.339C235.202 157.156 236.159 156.75 236.992 156.149ZM231 150.724C230.687 151.222 230.533 151.803 230.559 152.39C230.577 152.567 230.65 152.734 230.768 152.867C230.886 153.001 231.043 153.093 231.217 153.132C231.511 153.201 231.819 153.187 232.106 153.09C232.394 152.996 232.668 152.862 232.918 152.691C233.457 152.316 233.941 151.866 234.353 151.354C234.828 150.813 235.239 150.218 235.578 149.583C235.865 149.118 235.995 148.573 235.949 148.029C235.927 147.845 235.848 147.673 235.722 147.537C235.596 147.401 235.431 147.309 235.249 147.273C234.753 147.182 234.242 147.28 233.814 147.546C233.192 147.904 232.645 148.38 232.204 148.946C231.742 149.495 231.338 150.091 231 150.724Z" fill="white"/>
<path d="M236.803 115.115C235.97 119.217 233.814 126.483 230.104 127.904C231.308 130.816 233.016 134.309 237.461 136.346C241.906 138.383 242.403 134.946 241.892 132.846C238.084 130.046 239.505 126.98 241.465 124.341L236.803 115.115Z" fill="#FFBE9D"/>
<path opacity="0.2" d="M238.7 118.867L241.458 124.306C240.99 124.916 240.577 125.568 240.226 126.252C238.707 125.342 237.223 122.64 237.755 120.876C237.946 120.155 238.266 119.474 238.7 118.867Z" fill="black"/>
<path d="M247.996 115.269C252.385 115.591 256.27 104.643 249.865 103.369C245.546 102.508 245.588 105.091 245.133 107.919C244.678 110.747 245.217 115.066 247.996 115.269Z" fill="#263238"/>
<path d="M237.3 109.725C236.173 115.185 235.235 118.321 237.195 121.821C240.149 127.078 247.443 126.42 250.187 121.408C252.651 116.893 254.086 108.724 249.41 105.154C248.383 104.363 247.17 103.847 245.887 103.657C244.604 103.466 243.294 103.606 242.081 104.064C240.868 104.522 239.792 105.283 238.955 106.273C238.118 107.264 237.549 108.452 237.3 109.725Z" fill="#FFBE9D"/>
<path d="M236.369 113.631C240.758 113.953 243.698 103.943 237.293 102.662C232.974 101.801 232.61 104.328 232.68 107.03C232.75 109.9 233.583 113.4 236.369 113.631Z" fill="#263238"/>
<path d="M239.911 105.973C242.872 107.408 257.145 110.481 256.326 104.342C255.507 98.203 247.884 95.354 247.884 95.354C247.884 95.354 252.322 100.219 248.661 99.05C245 97.881 243.95 97.027 239.561 96.25C239.561 96.25 243.873 99.827 238.861 98.819C235.954 98.1921 232.917 98.6765 230.349 100.177C231.623 101.033 232.639 102.22 233.29 103.609C233.941 104.999 234.202 106.54 234.045 108.066C233.702 113.463 239.911 105.973 239.911 105.973Z" fill="#263238"/>
<path d="M233.8 113.89C233.993 115.16 234.676 116.304 235.704 117.075C237.048 118.062 238.273 116.928 238.364 115.29C238.441 113.813 237.839 111.517 236.264 111.188C234.689 110.859 233.59 112.308 233.8 113.89Z" fill="#FFBE9D"/>
<path d="M212.744 174.867L206.906 193.669L236.957 212.569C231.77 221.221 205.415 229.831 205.415 229.831L209.615 238.357C209.615 238.357 246.316 235.557 253.757 219.331C260.918 203.749 230.867 182.427 230.867 182.427L212.744 174.867Z" fill="#263238"/>
<path opacity="0.2" d="M216.643 199.794L211.4 196.511L217.854 187.131C217.854 187.131 218.036 194.649 216.643 199.794Z" fill="black"/>
<path opacity="0.2" d="M216.643 199.794L211.4 196.511L217.854 187.131C217.854 187.131 218.036 194.649 216.643 199.794Z" fill="black"/>
<path d="M224.371 179.718C224.371 179.718 200.137 220.024 190.134 233.1C179.179 247.422 150.815 274.4 150.815 274.4L142.366 268.52C142.366 268.52 166.866 241.514 176.099 226.569C186.634 209.545 203.147 170.849 203.147 170.849L224.371 179.718Z" fill="#263238"/>
<path d="M151.697 275.296L141.75 268.38L143.815 265.405L155.071 272.944L151.697 275.296Z" fill="#8EDFEB"/>
<path d="M209.965 239.526L204.932 229.369L208.215 227.745L214.011 239.015L209.965 239.526Z" fill="#8EDFEB"/>
<path d="M245.049 113.442C244.93 113.876 245.049 114.296 245.35 114.373C245.651 114.45 245.966 114.163 246.085 113.722C246.204 113.281 246.085 112.868 245.777 112.791C245.469 112.714 245.168 113.008 245.049 113.442Z" fill="#263238"/>
<path d="M249.991 114.8C249.872 115.241 249.991 115.654 250.292 115.731C250.593 115.808 250.908 115.521 251.027 115.08C251.146 114.639 251.027 114.226 250.726 114.149C250.425 114.072 250.11 114.352 249.991 114.8Z" fill="#263238"/>
<path d="M248.36 114.576C248.518 116.055 248.879 117.506 249.431 118.888C249.073 119.019 248.691 119.071 248.312 119.04C247.932 119.008 247.564 118.894 247.233 118.706L248.36 114.576Z" fill="#FF5652"/>
<path d="M245.077 119.378C244.603 119.189 244.172 118.905 243.811 118.544C243.45 118.183 243.166 117.752 242.977 117.278C242.968 117.244 242.972 117.207 242.989 117.176C243.006 117.145 243.034 117.121 243.068 117.11C243.101 117.101 243.137 117.104 243.168 117.12C243.199 117.135 243.223 117.162 243.236 117.194C243.451 117.712 243.784 118.172 244.21 118.537C244.636 118.902 245.141 119.161 245.686 119.294C245.703 119.297 245.72 119.304 245.735 119.314C245.749 119.324 245.762 119.337 245.771 119.353C245.78 119.368 245.786 119.385 245.789 119.402C245.791 119.42 245.789 119.438 245.784 119.455C245.779 119.472 245.771 119.488 245.76 119.502C245.749 119.516 245.735 119.528 245.719 119.536C245.704 119.545 245.686 119.55 245.669 119.552C245.651 119.553 245.633 119.551 245.616 119.546C245.432 119.503 245.252 119.447 245.077 119.378Z" fill="#263238"/>
<path d="M243.957 111.433C243.916 111.413 243.88 111.384 243.852 111.349C243.83 111.322 243.814 111.29 243.804 111.257C243.795 111.223 243.793 111.188 243.797 111.153C243.802 111.118 243.813 111.085 243.831 111.055C243.849 111.025 243.873 110.999 243.901 110.978C244.229 110.711 244.617 110.527 245.031 110.441C245.445 110.354 245.873 110.368 246.281 110.481C246.347 110.506 246.401 110.556 246.431 110.62C246.461 110.684 246.465 110.757 246.442 110.824C246.418 110.889 246.37 110.943 246.307 110.973C246.244 111.003 246.172 111.007 246.106 110.985C245.782 110.898 245.442 110.891 245.114 110.963C244.787 111.034 244.481 111.184 244.223 111.398C244.185 111.426 244.141 111.443 244.094 111.449C244.048 111.456 244.001 111.45 243.957 111.433Z" fill="#263238"/>
<path d="M252.581 113.666C252.541 113.649 252.506 113.622 252.479 113.588C252.452 113.553 252.434 113.513 252.427 113.47C252.375 113.139 252.246 112.826 252.048 112.555C251.851 112.285 251.592 112.066 251.293 111.916C251.258 111.905 251.226 111.886 251.199 111.862C251.171 111.837 251.149 111.808 251.134 111.774C251.118 111.741 251.11 111.705 251.109 111.668C251.109 111.631 251.116 111.595 251.13 111.561C251.144 111.527 251.165 111.497 251.191 111.471C251.217 111.446 251.249 111.426 251.283 111.413C251.318 111.401 251.354 111.395 251.391 111.397C251.428 111.4 251.463 111.409 251.496 111.426C251.876 111.61 252.206 111.883 252.458 112.222C252.71 112.561 252.877 112.955 252.945 113.372C252.952 113.406 252.952 113.441 252.945 113.475C252.939 113.509 252.925 113.542 252.905 113.57C252.886 113.599 252.861 113.624 252.831 113.643C252.802 113.661 252.769 113.674 252.735 113.68C252.684 113.693 252.629 113.688 252.581 113.666Z" fill="#263238"/>
<path d="M143.535 281.449C143.358 280.982 143.236 280.495 143.171 280C143.167 279.973 143.17 279.945 143.182 279.921C143.193 279.896 143.211 279.875 143.234 279.86C143.254 279.845 143.279 279.837 143.304 279.837C143.329 279.837 143.354 279.845 143.374 279.86C143.57 279.993 145.257 281.218 145.201 281.925C145.193 282.004 145.165 282.079 145.12 282.144C145.075 282.209 145.013 282.262 144.942 282.296C144.827 282.359 144.698 282.392 144.567 282.392C144.436 282.392 144.308 282.359 144.193 282.296C143.884 282.096 143.652 281.797 143.535 281.449ZM143.5 280.28C143.675 281.246 143.983 281.911 144.333 282.093C144.413 282.132 144.501 282.149 144.59 282.143C144.678 282.137 144.763 282.108 144.837 282.058C144.935 282.016 144.949 281.96 144.949 281.918C144.97 281.554 144.144 280.791 143.5 280.28Z" fill="#8EDFEB"/>
<path d="M143.178 280C143.171 279.983 143.168 279.964 143.169 279.945C143.169 279.927 143.174 279.908 143.182 279.891C143.189 279.874 143.201 279.859 143.214 279.846C143.228 279.834 143.244 279.824 143.262 279.818C143.325 279.818 144.851 279.258 145.586 279.643C145.676 279.688 145.755 279.752 145.818 279.831C145.88 279.909 145.926 280 145.95 280.098C145.987 280.193 145.992 280.298 145.963 280.395C145.934 280.493 145.872 280.578 145.789 280.637C145.264 281.001 143.689 280.462 143.213 280.056C143.197 280.04 143.185 280.021 143.178 280ZM145.677 280.119C145.634 280.019 145.557 279.937 145.46 279.888C144.846 279.73 144.197 279.766 143.605 279.993C144.221 280.35 145.334 280.63 145.649 280.413C145.649 280.413 145.74 280.35 145.698 280.182L145.677 280.119Z" fill="#8EDFEB"/>
<path d="M201.684 239.708C201.68 239.684 201.683 239.659 201.693 239.637C201.703 239.614 201.719 239.595 201.74 239.582C201.763 239.567 201.79 239.559 201.817 239.559C201.844 239.559 201.871 239.567 201.894 239.582C202.125 239.757 204.148 241.269 204.113 242.053C204.11 242.125 204.088 242.195 204.05 242.256C204.012 242.318 203.959 242.368 203.896 242.403C203.795 242.474 203.677 242.518 203.554 242.529C203.432 242.54 203.308 242.518 203.196 242.466C202.433 242.158 201.915 240.618 201.677 239.729L201.684 239.708ZM203.847 241.983C203.791 241.542 202.825 240.653 202.048 240.037C202.419 241.241 202.874 242.046 203.301 242.221C203.374 242.252 203.454 242.264 203.534 242.257C203.613 242.25 203.69 242.223 203.756 242.179C203.784 242.168 203.807 242.148 203.823 242.123C203.84 242.098 203.848 242.069 203.847 242.039V241.983Z" fill="#8EDFEB"/>
<path d="M220.535 134.624L218.323 133.147C217.56 132.65 216.783 132.167 216.006 131.684C214.445 130.725 212.863 129.815 211.267 128.94C209.671 128.065 208.054 127.267 206.423 126.553C205.611 126.182 204.792 125.853 203.973 125.538L202.748 125.104L202.44 124.999L202.286 124.943C202.286 124.943 202.237 124.943 202.174 124.894C201.586 124.844 200.995 124.88 200.417 124.999C199.612 125.147 198.817 125.346 198.037 125.594C196.319 126.141 194.629 126.777 192.976 127.498C189.581 128.961 186.123 130.627 182.763 132.328L180.39 128.828C183.427 126.242 186.664 123.902 190.071 121.828C191.835 120.754 193.666 119.793 195.552 118.951C196.575 118.508 197.625 118.129 198.695 117.817C199.983 117.422 201.325 117.235 202.671 117.264C203.113 117.287 203.553 117.341 203.987 117.425L204.316 117.502L204.512 117.551L204.897 117.649L206.437 118.048C207.445 118.349 208.46 118.65 209.426 119.021C211.368 119.714 213.268 120.518 215.117 121.429C216.958 122.311 218.743 123.291 220.486 124.327C221.347 124.859 222.208 125.398 223.055 125.958C223.902 126.518 224.714 127.078 225.624 127.757L220.535 134.624Z" fill="#FFBE9D"/>
<path d="M228.9 128.681C227.661 125.615 215.95 121.422 215.95 121.422L212.163 131.306C212.163 131.306 216.258 134.015 219.653 136.045C226.1 139.93 231.322 134.715 228.9 128.681Z" fill="#8EDFEB"/>
<path d="M183.89 130.851L181.517 135.996L177.898 131.306C177.898 131.306 180.628 126.714 182.574 128.506L183.89 130.851Z" fill="#FFBE9D"/>
<path d="M176.512 137.613L174.678 133.497L177.898 131.306L181.517 135.996L176.512 137.613Z" fill="#FFBE9D"/>
</svg>
