<svg width="334" height="334" viewBox="0 0 334 334" fill="none" xmlns="http://www.w3.org/2000/svg">
<path d="M120.46 122.511C121.636 130.472 120.424 138.602 116.977 145.873C113.53 153.144 108.003 159.229 101.096 163.358C94.1898 167.487 86.2134 169.475 78.1768 169.069C70.1402 168.663 62.4048 165.882 55.9494 161.077C49.494 156.273 44.6089 149.662 41.9124 142.081C39.2159 134.499 38.8291 126.288 40.8011 118.486C42.7731 110.685 47.0152 103.644 52.9904 98.2543C58.9657 92.8647 66.4055 89.3689 74.3683 88.2093C85.0292 86.6461 95.8744 89.3818 104.518 95.8145C113.162 102.247 118.897 111.85 120.46 122.511Z" fill="#F5F5F5"/>
<path d="M110.888 123.907C111.782 129.973 110.857 136.168 108.229 141.708C105.602 147.248 101.39 151.884 96.1261 155.029C90.8626 158.174 84.7843 159.687 78.6606 159.376C72.537 159.066 66.6431 156.945 61.725 153.283C56.8068 149.622 53.0855 144.583 51.032 138.806C48.9785 133.028 48.6851 126.772 50.1889 120.827C51.6927 114.883 54.9262 109.518 59.4801 105.413C64.0339 101.307 69.7035 98.6441 75.7712 97.7616C79.7938 97.1722 83.8931 97.3809 87.835 98.3759C91.7769 99.3709 95.4842 101.133 98.7452 103.561C102.006 105.988 104.757 109.035 106.84 112.526C108.924 116.017 110.299 119.884 110.888 123.907Z" fill="#EBEBEB"/>
<path d="M110.734 122.945C110.554 122.945 110.227 121.649 109.398 119.378C108.231 116.18 106.577 113.181 104.495 110.487C103.058 108.654 101.425 106.983 99.6255 105.504C97.5566 103.825 95.28 102.419 92.852 101.322C91.5442 100.723 90.1932 100.223 88.8106 99.8259C87.3746 99.4005 85.907 99.09 84.4218 98.8974C82.8883 98.6846 81.3404 98.593 79.7926 98.6235C78.1959 98.6621 76.6041 98.8161 75.0297 99.0844C73.4602 99.3755 71.9133 99.7773 70.4005 100.287C68.9326 100.794 67.5056 101.413 66.132 102.137C64.8055 102.836 63.5348 103.635 62.331 104.529C61.1708 105.375 60.0766 106.309 59.0578 107.321C57.1565 109.18 55.5039 111.277 54.1414 113.56C52.9591 115.567 52.0003 117.697 51.2823 119.913C50.2553 123.153 49.7348 126.533 49.7392 129.933C49.7392 132.357 49.8929 133.714 49.7392 133.747C49.5856 133.78 49.138 132.464 48.8508 129.979C48.4767 126.441 48.7666 122.864 49.7058 119.432C50.3506 117.046 51.2767 114.745 52.4647 112.578C53.8411 110.082 55.5488 107.783 57.5415 105.744C58.6139 104.634 59.7732 103.611 61.0084 102.685C62.2865 101.701 63.6425 100.823 65.0632 100.06C66.538 99.2724 68.0724 98.6023 69.6523 98.0557C71.2793 97.4844 72.9475 97.0378 74.6423 96.7197C76.34 96.4292 78.0571 96.2662 79.7792 96.232C81.4508 96.2089 83.1216 96.3183 84.7758 96.5594C86.3736 96.7909 87.9505 97.1483 89.4919 97.6282C90.9703 98.072 92.411 98.6327 93.8005 99.3048C96.3744 100.535 98.7698 102.108 100.921 103.981C102.783 105.607 104.444 107.448 105.871 109.465C107.934 112.366 109.438 115.626 110.307 119.078C110.888 121.536 110.888 122.912 110.734 122.945Z" fill="#E0E0E0"/>
<path d="M86.3389 146.152L87.1939 151.496L82.4378 152.257L81.6028 147.074C76.8466 147.541 72.0905 146.786 69.1446 145.163L70.8079 138.944C73.847 140.41 77.214 141.063 80.5807 140.841L79.3049 132.892C73.8206 132.458 67.6349 131.636 66.5461 124.829C65.7378 119.786 68.7104 114.869 76.0918 112.805L75.2434 107.521L80.0063 106.76L80.8346 111.943C84.2683 111.586 87.738 112.043 90.9615 113.279L89.5186 119.519C87.0748 118.566 84.4652 118.112 81.8433 118.183L83.1392 126.272C88.6168 126.666 94.7089 127.494 95.7844 134.208C96.5994 139.191 93.6669 144.054 86.3389 146.152ZM78.216 125.878L77.1339 119.118C74.7024 120.093 73.9208 121.636 74.1746 123.206C74.4285 124.776 76.0116 125.584 78.216 125.878ZM88.236 136.038C87.9688 134.368 86.4458 133.687 84.2815 133.299L85.3369 139.873C87.6348 138.944 88.4832 137.561 88.236 136.038Z" fill="#E0E0E0"/>
<path d="M268.128 85.9516C271.172 90.9452 272.665 96.7295 272.419 102.572C272.173 108.415 270.2 114.053 266.748 118.774C263.296 123.494 258.522 127.085 253.028 129.09C247.535 131.096 241.57 131.427 235.889 130.041C230.208 128.655 225.065 125.615 221.113 121.305C217.16 116.995 214.575 111.609 213.685 105.829C212.795 100.05 213.639 94.1358 216.112 88.8362C218.584 83.5367 222.573 79.0898 227.574 76.0585C230.886 74.0446 234.563 72.703 238.394 72.1102C242.225 71.5175 246.135 71.6853 249.901 72.604C253.667 73.5227 257.215 75.1743 260.342 77.4645C263.47 79.7547 266.116 82.6386 268.128 85.9516Z" fill="#F5F5F5"/>
<path d="M262.116 89.5921C264.437 93.3979 265.576 97.8067 265.39 102.26C265.204 106.714 263.7 111.012 261.07 114.611C258.44 118.21 254.801 120.947 250.614 122.477C246.427 124.006 241.88 124.259 237.55 123.203C233.219 122.147 229.299 119.83 226.286 116.546C223.273 113.261 221.302 109.156 220.623 104.75C219.944 100.345 220.587 95.8369 222.471 91.7973C224.356 87.7576 227.396 84.3679 231.208 82.0571C236.307 78.9601 242.426 78.0141 248.222 79.427C254.018 80.84 259.015 84.4962 262.116 89.5921Z" fill="#EBEBEB"/>
<path d="M261.749 88.9908C261.635 89.071 261.041 88.2761 259.832 86.9868C258.147 85.1763 256.191 83.6392 254.034 82.4311C252.552 81.6086 250.984 80.9522 249.358 80.4738C247.497 79.9374 245.575 79.641 243.639 79.5921C242.595 79.5651 241.55 79.6143 240.513 79.739C239.432 79.8627 238.362 80.0704 237.314 80.3603C236.225 80.6517 235.162 81.0292 234.134 81.4892C232.012 82.4394 230.051 83.7151 228.322 85.2701C227.485 86.0232 226.708 86.8407 225.998 87.715C224.644 89.3671 223.543 91.2108 222.731 93.1859C221.985 94.9735 221.475 96.8508 221.215 98.7704C220.993 100.447 220.955 102.142 221.101 103.827C221.332 106.289 221.942 108.7 222.911 110.975C223.579 112.598 224.087 113.466 223.974 113.54C223.86 113.613 223.205 112.872 222.31 111.275C221.058 109.013 220.238 106.537 219.892 103.974C219.647 102.203 219.614 100.409 219.792 98.6301C220.125 95.4459 221.117 92.3659 222.704 89.5854C223.295 88.5659 223.965 87.5943 224.708 86.6796C225.464 85.7217 226.297 84.828 227.2 84.0076C229.049 82.3126 231.167 80.9357 233.466 79.9328C234.578 79.4413 235.729 79.0414 236.906 78.737C238.039 78.4361 239.194 78.2261 240.36 78.1091C241.469 77.9899 242.586 77.9587 243.7 78.0156C247.576 78.1652 251.348 79.3159 254.648 81.3556C256.85 82.7101 258.78 84.4636 260.339 86.5259C261.428 88.0156 261.856 88.9374 261.749 88.9908Z" fill="#E0E0E0"/>
<path d="M252.003 111.436L254.08 114.776L251.115 116.633L249.111 113.4C246.058 115.056 242.664 115.905 240.226 115.651L239.592 110.975C242.042 111.097 244.483 110.579 246.672 109.472L243.566 104.515C239.772 105.778 235.403 106.987 232.745 102.738C230.774 99.592 231.368 95.4571 235.724 91.9902L233.66 88.6903L236.632 86.8333L238.636 90.073C240.843 88.8619 243.307 88.1955 245.824 88.1292L246.626 92.7116C244.721 92.7749 242.848 93.2154 241.115 94.0076L244.274 99.0576C248.055 97.7617 252.364 96.5994 254.962 100.781C256.893 103.867 256.312 107.955 252.003 111.436ZM240.814 100.2L238.175 95.9848C236.839 97.3208 236.739 98.5767 237.354 99.5586C237.968 100.541 239.251 100.574 240.814 100.2ZM250.4 104.154C249.732 103.119 248.536 103.092 246.98 103.446L249.545 107.541C250.827 106.259 250.994 105.083 250.4 104.128V104.154Z" fill="#E0E0E0"/>
<path d="M228.336 58.5902C225.793 60.2027 222.828 61.0244 219.818 60.9513C216.808 60.8783 213.887 59.9137 211.425 58.1797C208.963 56.4458 207.071 54.0204 205.988 51.2106C204.905 48.4007 204.68 45.3328 205.342 42.3952C206.004 39.4575 207.522 36.7823 209.705 34.708C211.888 32.6337 214.637 31.2536 217.605 30.7425C220.572 30.2314 223.625 30.6123 226.376 31.8368C229.126 33.0614 231.452 35.0746 233.059 37.6217C234.125 39.3085 234.85 41.189 235.19 43.1558C235.53 45.1226 235.479 47.137 235.04 49.0842C234.602 51.0314 233.784 52.873 232.634 54.5041C231.483 56.1352 230.023 57.5236 228.336 58.5902Z" fill="#F5F5F5"/>
<path d="M226.405 55.5307C224.467 56.7586 222.208 57.384 219.914 57.3276C217.621 57.2713 215.395 56.5359 213.52 55.2143C211.644 53.8928 210.203 52.0445 209.378 49.9035C208.553 47.7625 208.382 45.4249 208.886 43.1865C209.39 40.9482 210.547 38.9097 212.21 37.329C213.873 35.7484 215.968 34.6966 218.229 34.3068C220.49 33.917 222.816 34.2066 224.912 35.1392C227.009 36.0717 228.781 37.6051 230.006 39.5454C230.819 40.8313 231.372 42.2649 231.631 43.7643C231.89 45.2637 231.852 46.7996 231.517 48.284C231.183 49.7685 230.56 51.1726 229.682 52.416C228.805 53.6594 227.692 54.7178 226.405 55.5307Z" fill="#EBEBEB"/>
<path d="M226.706 55.3372C226.672 55.277 227.073 54.9631 227.728 54.3285C228.643 53.4444 229.416 52.4236 230.019 51.3024C230.428 50.5321 230.751 49.7189 230.981 48.8776C231.242 47.9172 231.377 46.9269 231.382 45.9317C231.391 45.3933 231.358 44.8549 231.281 44.3218C231.207 43.7661 231.091 43.2167 230.934 42.6786C230.771 42.1226 230.566 41.5799 230.32 41.0553C230.062 40.5145 229.767 39.9922 229.438 39.4922C229.1 38.9941 228.727 38.5209 228.322 38.076C227.927 37.653 227.5 37.2601 227.046 36.9004C226.606 36.5529 226.139 36.2403 225.65 35.9652C225.185 35.7054 224.7 35.482 224.201 35.2972C223.27 34.9359 222.299 34.6914 221.308 34.569C220.443 34.4722 219.569 34.4722 218.703 34.569C217.436 34.708 216.199 35.0438 215.036 35.5644C214.612 35.8011 214.164 35.9914 213.7 36.1322C214.019 35.7622 214.413 35.4639 214.855 35.2571C216.007 34.5852 217.273 34.1323 218.589 33.9211C219.504 33.7803 220.433 33.749 221.355 33.8276C222.416 33.9095 223.461 34.1342 224.461 34.4956C225.005 34.6945 225.532 34.9357 226.038 35.217C226.567 35.5056 227.071 35.8362 227.547 36.2056C228.044 36.5882 228.511 37.008 228.943 37.4615C229.378 37.9365 229.78 38.4409 230.146 38.9712C230.517 39.5149 230.845 40.0867 231.128 40.6812C231.398 41.2501 231.621 41.8399 231.796 42.4448C231.962 43.0242 232.08 43.6162 232.15 44.215C232.219 44.7889 232.246 45.3672 232.23 45.9451C232.178 47.9443 231.614 49.8967 230.593 51.6164C229.915 52.7612 229.03 53.7693 227.982 54.589C227.615 54.9276 227.18 55.1828 226.706 55.3372Z" fill="#E0E0E0"/>
<path d="M215.096 50.5207L213.399 51.6229L212.424 50.0999L214.067 49.0311C213.235 47.6612 212.807 46.0845 212.831 44.482L215.216 44.1079C215.177 45.3709 215.465 46.6225 216.051 47.7419L218.543 46.0919C217.875 44.148 217.207 41.9102 219.358 40.5008C220.961 39.4587 223.092 39.7259 224.922 41.9369L226.599 40.8481L227.581 42.3578L225.938 43.4199C226.579 44.541 226.947 45.7973 227.013 47.0872L224.662 47.5415C224.604 46.5749 224.359 45.6288 223.94 44.7559L221.368 46.4326C222.07 48.3631 222.704 50.5742 220.58 51.9569C219.004 52.9656 216.899 52.7051 215.096 50.5207ZM220.787 44.6557L222.938 43.2596C222.237 42.5916 221.602 42.5448 221.088 42.8721C220.573 43.1995 220.54 43.8541 220.76 44.6557H220.787ZM218.837 49.6323C219.371 49.2849 219.371 48.6637 219.177 47.8621L217.086 49.1981C217.721 49.8661 218.329 49.9463 218.81 49.6323H218.837Z" fill="#E0E0E0"/>
<path d="M245.263 154.448C245.263 154.448 214.074 132.344 210.126 130.173C206.365 128.102 194.428 126.599 193.359 126.339L171.983 121.663L139.331 122.638L129.979 128.269L106.279 139.211C99.8192 142.187 94.7277 147.5 92.0303 154.081L77.0671 190.627L114.228 201.609L115.384 240.159L106.626 300.894H215.296L209.825 184.495L221.141 186.987L245.263 154.448Z" fill="#8EDFEB"/>
<path d="M114.896 186.085C114.896 186.085 114.502 186.372 113.747 186.813C112.683 187.459 111.503 187.89 110.273 188.082C108.432 188.211 106.584 187.942 104.856 187.294C102.725 186.584 100.66 185.69 98.6837 184.622C96.5661 183.52 94.5822 182.404 92.7251 181.509C91.0873 180.691 89.3848 180.01 87.635 179.472C86.4532 179.116 85.2412 178.87 84.0144 178.737C83.5802 178.69 83.2462 178.67 83.0124 178.663H82.665C83.1109 178.647 83.5574 178.663 84.001 178.71C85.2338 178.811 86.4535 179.034 87.6416 179.378C89.4012 179.899 91.1131 180.57 92.7585 181.382C94.6289 182.277 96.6129 183.386 98.7304 184.495C100.7 185.556 102.756 186.45 104.876 187.167C106.58 187.81 108.402 188.086 110.22 187.975C111.439 187.796 112.612 187.384 113.674 186.76C114.054 186.546 114.342 186.372 114.542 186.252C114.742 186.132 114.896 186.085 114.896 186.085Z" fill="white"/>
<path d="M113.306 168.076H113.059L112.351 168.042C111.736 168.009 110.848 167.942 109.752 167.835C104.046 167.26 98.435 165.968 93.0525 163.987C92.0171 163.607 91.1887 163.279 90.6209 163.039L89.9529 162.758L89.7258 162.651L89.9663 162.732L90.6343 162.985C91.2088 163.212 92.0438 163.526 93.0792 163.894C98.476 165.825 104.081 167.114 109.779 167.735C110.868 167.855 111.783 167.942 112.364 167.989L113.072 168.049L113.306 168.076Z" fill="white"/>
<path d="M136.666 130.173C136.666 130.173 136.385 130.627 135.798 131.389C134.959 132.458 133.997 133.425 132.932 134.268C131.336 135.504 129.598 136.545 127.755 137.367C125.5 138.376 123.176 139.224 120.801 139.906C118.283 140.654 115.878 141.315 113.72 142.023C111.802 142.631 109.931 143.379 108.122 144.261C106.904 144.855 105.737 145.55 104.635 146.339C104.235 146.606 103.967 146.853 103.754 147.007C103.54 147.16 103.44 147.234 103.44 147.234C103.44 147.234 103.834 146.873 104.602 146.292C105.698 145.487 106.86 144.776 108.076 144.168C109.885 143.275 111.759 142.519 113.68 141.903C115.838 141.182 118.249 140.52 120.761 139.772C123.13 139.094 125.449 138.253 127.701 137.254C129.537 136.437 131.272 135.41 132.872 134.194C133.949 133.369 134.929 132.423 135.791 131.375C136.105 131.015 136.299 130.707 136.459 130.5C136.619 130.293 136.666 130.173 136.666 130.173Z" fill="white"/>
<path d="M203.499 135.15C203.499 135.15 203.399 135.103 203.212 134.996C203.025 134.889 202.771 134.729 202.411 134.549C201.416 134.018 200.38 133.571 199.311 133.213C197.722 132.679 196.097 132.262 194.448 131.963C192.591 131.609 190.527 131.335 188.363 131.028L177.287 129.458L173.947 128.964L173.032 128.824L172.718 128.764L173.039 128.797L173.954 128.911L177.294 129.358L188.376 130.888C190.54 131.189 192.604 131.469 194.468 131.83C196.119 132.133 197.745 132.562 199.331 133.112C200.403 133.483 201.441 133.948 202.431 134.502C203.139 134.896 203.499 135.15 203.499 135.15Z" fill="white"/>
<path d="M188.376 142.524C188.376 142.524 188.129 142.645 187.655 142.852C187.18 143.059 186.472 143.359 185.557 143.727C183.72 144.455 181.041 145.464 177.648 146.452C173.677 147.629 169.628 148.522 165.53 149.124C160.901 149.832 155.738 149.832 150.36 149.652C144.983 149.472 139.832 149.244 135.17 149.538C131.039 149.739 126.954 150.484 123.019 151.756C120.368 152.628 117.85 153.862 115.537 155.424C114.742 155.998 114.121 156.452 113.734 156.8C113.346 157.147 113.119 157.301 113.119 157.301C113.119 157.301 113.32 157.114 113.714 156.78C114.108 156.446 114.709 155.965 115.511 155.377C117.815 153.793 120.332 152.543 122.986 151.663C126.927 150.376 131.022 149.619 135.163 149.411C139.839 149.111 144.976 149.338 150.36 149.512C155.744 149.685 160.895 149.699 165.517 148.997C169.61 148.394 173.655 147.501 177.621 146.325C181.008 145.35 183.693 144.355 185.537 143.653C186.459 143.293 187.167 142.985 187.641 142.798L188.376 142.524Z" fill="white"/>
<path d="M198.61 149.058C198.573 149.084 198.533 149.105 198.49 149.118L198.136 149.245C197.828 149.358 197.381 149.505 196.8 149.665C195.336 150.083 193.825 150.308 192.304 150.333C190.78 150.335 189.265 150.11 187.808 149.665C187.247 149.498 186.8 149.345 186.472 149.225L186.125 149.084L186.005 149.024H186.138L186.492 149.138C186.8 149.245 187.247 149.385 187.828 149.538C189.283 149.944 190.787 150.146 192.297 150.14C193.81 150.096 195.313 149.872 196.773 149.472C197.327 149.318 197.781 149.191 198.109 149.091L198.463 148.991L198.61 149.058Z" fill="white"/>
<path d="M177.534 167.962C177.534 167.962 174.328 168.63 169.097 169.418C166.479 169.812 163.353 170.2 159.872 170.547C156.392 170.894 152.524 171.155 148.516 171.309C144.508 171.462 140.634 171.449 137.16 171.375C133.687 171.302 130.48 171.115 127.875 170.914C122.598 170.514 119.358 170.073 119.358 170.073L119.946 170.12L121.643 170.287C123.112 170.44 125.243 170.627 127.882 170.814C130.52 171.001 133.667 171.155 137.16 171.242C140.654 171.329 144.508 171.309 148.516 171.168C152.524 171.028 156.379 170.741 159.872 170.42C163.366 170.099 166.479 169.699 169.097 169.318C171.716 168.937 173.827 168.603 175.283 168.343L176.96 168.049L177.534 167.962Z" fill="white"/>
<path d="M203.693 166.065H203.453H202.785C202.177 166.065 201.302 166.065 200.22 166.065C198.055 166.065 195.063 165.978 191.776 165.697C188.49 165.417 185.517 164.969 183.393 164.582C182.324 164.395 181.469 164.221 180.874 164.094L180.206 163.947L179.973 163.887H180.213L180.881 164.007L183.399 164.455C185.53 164.816 188.49 165.243 191.776 165.524C195.063 165.804 198.055 165.898 200.213 165.931H202.778H203.446L203.693 166.065Z" fill="white"/>
<path d="M170.34 193.6C170.34 193.6 170.146 193.64 169.792 193.687L168.216 193.907C167.548 194.007 166.693 194.121 165.711 194.188C164.729 194.254 163.62 194.388 162.371 194.408C161.122 194.428 159.786 194.522 158.363 194.495C157.635 194.495 156.887 194.495 156.112 194.495L153.727 194.415C150.46 194.288 146.88 194.041 143.126 193.747C139.372 193.453 135.778 193.079 132.538 192.885C129.298 192.691 126.346 192.544 123.854 192.584H122.097L120.527 192.665C119.552 192.705 118.704 192.751 118.022 192.838L116.439 192.992L115.885 193.039C115.885 193.039 116.078 193.005 116.439 192.965L118.016 192.778C118.684 192.685 119.545 192.638 120.527 192.584L122.097 192.498H123.854C126.326 192.451 129.271 192.571 132.538 192.771C135.805 192.972 139.372 193.306 143.126 193.62C146.88 193.934 150.474 194.194 153.72 194.335L156.098 194.421C156.873 194.421 157.621 194.421 158.35 194.421C159.799 194.421 161.148 194.388 162.358 194.355C163.567 194.321 164.702 194.208 165.698 194.148C166.693 194.087 167.514 193.987 168.203 193.894L169.779 193.7L170.34 193.6Z" fill="white"/>
<path d="M209.652 185.757L209.358 185.804L208.503 185.891C207.768 185.971 206.693 186.058 205.37 186.152C202.698 186.332 199.044 186.459 194.989 186.359C190.934 186.258 187.267 185.924 184.628 185.604C183.292 185.444 182.244 185.297 181.509 185.183L180.667 185.049L180.373 184.989L180.667 185.023L181.516 185.13C182.25 185.23 183.319 185.363 184.642 185.51C187.28 185.804 190.934 186.111 194.989 186.218C199.044 186.325 202.711 186.218 205.363 186.051C206.699 185.978 207.761 185.898 208.503 185.838L209.351 185.771L209.652 185.757Z" fill="white"/>
<path d="M210.126 210.033L209.151 209.979C208.483 209.979 207.568 209.846 206.352 209.812C203.92 209.685 200.4 209.659 196.051 209.872C191.703 210.086 186.552 210.6 180.848 211.355C175.143 212.11 168.891 213.092 162.324 213.92C156.122 214.757 149.877 215.232 143.62 215.343C138.518 215.43 133.419 215.061 128.383 214.241C124.989 213.681 121.648 212.837 118.396 211.716C117.815 211.536 117.314 211.342 116.88 211.168L115.771 210.727C115.177 210.494 114.869 210.36 114.869 210.36L115.785 210.701L116.893 211.128C117.328 211.302 117.835 211.489 118.416 211.669C121.671 212.768 125.012 213.594 128.403 214.141C133.434 214.945 138.526 215.304 143.62 215.216C149.878 215.09 156.123 214.604 162.324 213.76C168.904 212.912 175.156 211.936 180.868 211.202C186.579 210.467 191.716 209.972 196.051 209.752C199.483 209.577 202.921 209.577 206.352 209.752C208.784 209.892 210.126 210.033 210.126 210.033Z" fill="white"/>
<path d="M173.393 234.976C173.393 234.976 170.18 235.523 164.942 236.085C162.331 236.365 159.204 236.619 155.731 236.819C152.257 237.02 148.423 237.113 144.408 237.093C140.393 237.073 136.566 236.886 133.092 236.659C129.619 236.432 126.499 236.111 123.887 235.791C118.657 235.123 115.457 234.562 115.457 234.562L116.045 234.635L117.722 234.882C118.443 234.996 119.338 235.123 120.394 235.25C121.449 235.376 122.611 235.557 123.914 235.69C126.532 235.998 129.652 236.292 133.119 236.532C136.586 236.773 140.414 236.913 144.428 236.953C148.443 236.993 152.271 236.866 155.744 236.692C159.218 236.519 162.337 236.258 164.956 235.984C166.292 235.864 167.447 235.71 168.483 235.597C169.518 235.483 170.413 235.363 171.155 235.263L172.832 235.042L173.393 234.976Z" fill="white"/>
<path d="M209.752 230.193C209.752 230.193 209.625 230.24 209.391 230.306L208.369 230.62C207.474 230.888 206.178 231.255 204.568 231.689C201.355 232.551 196.873 233.62 191.876 234.535C186.88 235.45 182.304 236.045 178.991 236.379C177.334 236.546 175.991 236.659 175.063 236.726L173.994 236.799H173.62L173.987 236.753L175.056 236.652C175.985 236.572 177.327 236.439 178.977 236.258C182.317 235.898 186.853 235.296 191.85 234.381C196.846 233.466 201.322 232.411 204.542 231.569C206.151 231.155 207.447 230.801 208.343 230.547L209.378 230.26L209.752 230.193Z" fill="white"/>
<path d="M147.909 262.825C146.187 263.092 144.452 263.264 142.711 263.339C141.102 263.426 139.178 263.433 137.04 263.339C132.408 263.117 127.818 262.348 123.366 261.048C121.315 260.44 119.498 259.805 118.022 259.197C116.402 258.554 114.817 257.827 113.273 257.02L113.607 257.167L114.549 257.601C114.956 257.795 115.457 258.028 116.052 258.269C116.646 258.509 117.301 258.817 118.056 259.097C119.552 259.698 121.396 260.32 123.4 260.921C125.625 261.549 127.881 262.062 130.16 262.457C132.442 262.818 134.74 263.063 137.047 263.192C139.178 263.286 141.095 263.292 142.705 263.192C143.513 263.192 144.241 263.105 144.882 263.065C145.524 263.025 146.065 262.965 146.519 262.918L147.548 262.811L147.909 262.825Z" fill="white"/>
<path d="M212.17 261.121L211.502 261.241L209.592 261.549C207.935 261.809 205.53 262.177 202.558 262.597C196.613 263.446 188.376 264.501 179.258 265.41C170.14 266.318 161.85 266.893 155.878 267.227C152.879 267.394 150.447 267.514 148.77 267.581L146.84 267.654H146.172L146.84 267.614L148.77 267.514L155.871 267.12C161.883 266.759 170.14 266.158 179.251 265.256C188.363 264.354 196.619 263.312 202.551 262.491L209.592 261.482L211.502 261.201L212.17 261.121Z" fill="white"/>
<path d="M215.67 285.724C215.67 285.724 214.214 286.031 211.549 286.465C208.884 286.899 205.022 287.441 200.193 287.841C194.561 288.3 188.907 288.439 183.259 288.255C176.88 288.048 169.899 287.334 162.598 286.439C155.297 285.543 148.336 284.642 141.983 284.147C136.357 283.662 130.705 283.535 125.063 283.767C121.253 283.944 117.459 284.377 113.707 285.062C112.371 285.316 111.356 285.53 110.668 285.697L109.612 285.938C109.612 285.938 109.973 285.837 110.661 285.67C111.349 285.503 112.371 285.276 113.694 285.002C117.443 284.293 121.238 283.847 125.05 283.666C130.693 283.413 136.348 283.527 141.977 284.007C148.343 284.501 155.297 285.403 162.598 286.298C169.899 287.193 176.88 287.908 183.252 288.115C188.895 288.308 194.544 288.181 200.173 287.734C204.976 287.347 208.857 286.819 211.529 286.398C212.865 286.185 213.894 286.018 214.595 285.891L215.67 285.724Z" fill="white"/>
<path d="M235.27 148.47C235.27 148.47 235.076 148.997 234.642 149.919C234.015 151.215 233.287 152.459 232.464 153.64C231.239 155.385 229.9 157.048 228.456 158.617C226.839 160.407 224.982 162.291 223.112 164.335C221.326 166.236 219.695 168.278 218.236 170.44C217.046 172.208 216.084 174.118 215.37 176.125C214.883 177.493 214.567 178.915 214.428 180.36C214.361 180.861 214.381 181.262 214.361 181.529C214.341 181.796 214.361 181.937 214.361 181.937C214.343 181.408 214.357 180.88 214.401 180.353C214.516 178.914 214.814 177.495 215.29 176.132C215.995 174.113 216.953 172.191 218.142 170.414C219.602 168.239 221.235 166.186 223.025 164.275C224.909 162.237 226.773 160.353 228.369 158.57C229.81 157.008 231.149 155.354 232.377 153.62C233.209 152.451 233.949 151.218 234.588 149.933C234.829 149.478 234.969 149.111 235.089 148.871C235.209 148.63 235.27 148.47 235.27 148.47Z" fill="white"/>
<path d="M204.501 159.979L204.729 159.812L205.397 159.358C205.984 158.977 206.806 158.389 207.795 157.628C208.783 156.866 209.926 155.918 211.135 154.796C212.438 153.572 213.675 152.281 214.842 150.928C215.994 149.559 217.076 148.132 218.082 146.653C218.99 145.277 219.759 143.981 220.346 142.905C220.934 141.83 221.388 140.901 221.682 140.233L222.023 139.505L222.15 139.251C221.649 140.515 221.078 141.751 220.44 142.952C219.859 144.061 219.104 145.343 218.189 146.719C217.193 148.211 216.114 149.645 214.956 151.015C213.786 152.374 212.541 153.667 211.228 154.889C210.006 156.005 208.863 156.96 207.888 157.708C206.803 158.528 205.672 159.286 204.501 159.979Z" fill="white"/>
<path d="M156.76 191.215C156.809 191.182 156.863 191.158 156.92 191.141L157.401 190.954C157.835 190.807 158.443 190.54 159.224 190.18C161.397 189.085 163.391 187.666 165.136 185.971C167.71 183.444 169.981 180.626 171.903 177.574C174.316 173.871 176.519 170.035 178.503 166.085C182.061 158.881 185.184 151.471 187.855 143.894C188.904 140.995 189.719 138.63 190.293 137.007L190.961 135.13C191.035 134.929 191.095 134.776 191.141 134.642C191.188 134.508 191.208 134.482 191.208 134.482C191.205 134.541 191.194 134.599 191.175 134.655C191.135 134.789 191.081 134.949 191.021 135.15C190.881 135.611 190.681 136.245 190.42 137.047C189.892 138.69 189.084 141.055 188.082 143.974C185.472 151.589 182.368 159.027 178.79 166.238C176.803 170.2 174.589 174.043 172.157 177.748C170.206 180.807 167.901 183.626 165.29 186.145C163.52 187.839 161.49 189.24 159.278 190.293C158.676 190.572 158.058 190.815 157.428 191.021L156.933 191.175C156.878 191.197 156.819 191.21 156.76 191.215Z" fill="#797979"/>
<path d="M155.644 205.35C155.754 205.244 155.875 205.15 156.005 205.069L157.087 204.328C158.015 203.66 159.358 202.718 160.975 201.482C164.214 199.017 168.47 195.337 173.039 191.135C175.337 189.037 177.534 187.053 179.432 185.156C181.128 183.488 182.704 181.703 184.148 179.812C185.116 178.533 185.978 177.177 186.726 175.758C187.007 175.263 187.18 174.856 187.314 174.589C187.377 174.45 187.451 174.316 187.534 174.188C187.501 174.338 187.449 174.484 187.381 174.622C187.26 174.896 187.107 175.29 186.84 175.818C186.135 177.271 185.297 178.655 184.335 179.953C182.917 181.878 181.354 183.691 179.659 185.377C177.762 187.301 175.57 189.291 173.273 191.389C169.399 195.021 165.343 198.455 161.122 201.676C159.485 202.898 158.122 203.82 157.16 204.441C156.686 204.755 156.305 204.976 156.052 205.109C155.921 205.199 155.785 205.279 155.644 205.35Z" fill="#797979"/>
<path d="M137.608 276.766L137.688 276.612C137.762 276.505 137.848 276.365 137.955 276.191C138.189 275.817 138.55 275.283 139.031 274.601C139.999 273.265 141.489 271.348 143.453 269.117C147.414 264.668 152.959 258.609 159.071 251.896L174.775 234.762L179.565 229.591L180.901 228.195L181.248 227.841C181.329 227.761 181.369 227.721 181.375 227.728C181.382 227.734 181.342 227.775 181.275 227.861L180.948 228.242L179.692 229.678C178.556 230.934 176.953 232.724 174.983 234.915L159.345 252.123L143.62 269.271C141.616 271.482 140.12 273.352 139.124 274.681C138.623 275.349 138.249 275.871 137.995 276.225L137.708 276.632C137.682 276.681 137.648 276.727 137.608 276.766Z" fill="#797979"/>
<path d="M199.972 156.706C199.864 156.374 199.781 156.035 199.725 155.691C199.652 155.363 199.572 154.956 199.511 154.482C199.451 154.007 199.351 153.466 199.324 152.865C199.298 152.264 199.224 151.603 199.231 150.861C199.238 150.12 199.231 149.391 199.284 148.59C199.516 145.128 200.362 141.735 201.783 138.57C202.123 137.848 202.451 137.16 202.798 136.566C203.145 135.971 203.466 135.377 203.807 134.869C204.147 134.361 204.475 133.914 204.729 133.533C204.963 133.197 205.214 132.874 205.483 132.565C205.686 132.288 205.91 132.026 206.151 131.783C205.979 132.087 205.78 132.375 205.557 132.645C205.356 132.912 205.109 133.239 204.855 133.64C204.602 134.041 204.274 134.475 203.98 134.976C203.686 135.477 203.312 136.051 203.012 136.679C202.711 137.307 202.344 138.015 202.037 138.683C200.657 141.833 199.821 145.194 199.565 148.623C199.525 149.411 199.465 150.16 199.478 150.861C199.491 151.562 199.478 152.197 199.532 152.818C199.585 153.44 199.625 153.954 199.672 154.428C199.719 154.902 199.772 155.31 199.825 155.644C199.909 155.992 199.958 156.348 199.972 156.706Z" fill="#797979"/>
<path d="M209.692 180.674C209.612 180.674 208.409 178.055 207.02 174.742C205.631 171.429 204.562 168.73 204.642 168.677C205.632 170.608 206.524 172.588 207.314 174.609C208.212 176.587 209.006 178.612 209.692 180.674Z" fill="#797979"/>
<path d="M114.228 159.492C114.175 159.525 113.654 158.57 112.672 157.12C110.106 153.336 106.791 150.119 102.932 147.668C101.456 146.733 100.487 146.238 100.514 146.185C100.76 146.257 100.997 146.355 101.222 146.479C101.67 146.686 102.298 147.02 103.059 147.468C105.036 148.648 106.87 150.053 108.523 151.656C110.173 153.265 111.632 155.058 112.872 157C113.34 157.748 113.694 158.369 113.914 158.81C114.042 159.026 114.147 159.254 114.228 159.492Z" fill="#797979"/>
<path d="M140.447 143.7C140.409 143.479 140.409 143.253 140.447 143.032C140.561 141.777 141.1 140.598 141.977 139.692L142.017 139.652V139.699C142.065 139.792 142.101 139.891 142.124 139.993C142.124 139.993 142.05 139.906 141.957 139.732H142.017C141.584 140.244 141.23 140.818 140.968 141.436C140.69 142.163 140.515 142.925 140.447 143.7Z" fill="#797979"/>
<path d="M149.291 148.296C149.207 148.083 149.159 147.857 149.151 147.628C149.093 147.081 149.106 146.528 149.191 145.985C149.276 145.441 149.431 144.912 149.652 144.408C149.732 144.196 149.845 143.998 149.986 143.82C149.685 144.524 149.461 145.259 149.318 146.011C149.228 146.77 149.219 147.536 149.291 148.296Z" fill="#797979"/>
<path d="M158.931 147.521C158.9 146.898 158.815 146.279 158.677 145.671C158.49 145.072 158.246 144.493 157.949 143.941C158.083 144.072 158.195 144.223 158.283 144.388C158.514 144.777 158.691 145.195 158.81 145.631C158.926 146.067 158.986 146.516 158.991 146.967C159.003 147.154 158.983 147.341 158.931 147.521Z" fill="#797979"/>
<path d="M167.361 143.827C167.077 143.233 166.741 142.666 166.359 142.13C165.931 141.631 165.462 141.168 164.956 140.748C165.137 140.821 165.306 140.923 165.457 141.048C165.834 141.336 166.173 141.67 166.465 142.043C166.756 142.419 166.999 142.83 167.187 143.266C167.275 143.442 167.333 143.632 167.361 143.827Z" fill="#797979"/>
<path d="M173.166 138.102C172.951 137.4 172.552 136.768 172.01 136.272C171.447 135.803 170.765 135.5 170.039 135.397C170.039 135.397 170.106 135.397 170.22 135.397C170.379 135.402 170.538 135.422 170.694 135.457C171.215 135.581 171.698 135.829 172.103 136.179C172.51 136.527 172.824 136.969 173.019 137.468C173.081 137.615 173.126 137.77 173.152 137.929C173.164 137.986 173.169 138.044 173.166 138.102Z" fill="#797979"/>
<path d="M176.272 127.528C175.758 127.117 175.157 126.829 174.515 126.686C173.863 126.586 173.197 126.641 172.571 126.847C173.175 126.531 173.866 126.426 174.536 126.547C175.206 126.668 175.817 127.008 176.272 127.515V127.528Z" fill="#797979"/>
<path d="M134.649 136.573C134.662 136.374 134.709 136.18 134.789 135.998C135.145 135.103 135.818 134.371 136.679 133.941C136.854 133.846 137.044 133.783 137.241 133.754C136.635 134.016 136.092 134.402 135.645 134.888C135.199 135.373 134.859 135.947 134.649 136.573Z" fill="#797979"/>
<path d="M132.538 129.532C132.618 129.336 132.731 129.155 132.872 128.997C133.185 128.59 133.561 128.236 133.987 127.949C134.413 127.656 134.882 127.431 135.377 127.281C135.577 127.211 135.786 127.175 135.998 127.174C134.609 127.531 133.387 128.357 132.538 129.512V129.532Z" fill="#797979"/>
<path d="M115.931 170.587C115.931 170.587 115.931 170.547 115.891 170.587C115.863 170.656 115.843 170.728 115.831 170.801C115.798 171.008 115.764 171.309 115.724 171.703C115.644 172.484 115.557 173.62 115.464 175.043C115.27 177.855 115.05 181.723 114.843 186.045C114.635 190.367 114.475 194.234 114.382 197.053C114.335 198.389 114.301 199.552 114.275 200.393C114.275 200.754 114.275 201.061 114.235 201.302C114.245 201.406 114.245 201.511 114.235 201.616C114.205 201.514 114.194 201.408 114.201 201.302C114.201 201.055 114.201 200.754 114.201 200.393C114.201 199.605 114.201 198.463 114.201 197.053C114.201 194.234 114.348 190.333 114.562 186.031C114.776 181.73 115.03 177.842 115.283 175.029C115.41 173.62 115.537 172.484 115.657 171.689C115.718 171.302 115.778 171.021 115.831 170.794C115.85 170.714 115.881 170.637 115.925 170.567C115.925 170.507 115.945 170.601 115.931 170.587Z" fill="#8EDFEB"/>
<path d="M189.532 35.6578C183.961 33.9544 178.176 38.9444 172.431 37.8222C168.957 37.1542 166.339 34.3686 163.246 32.6452C158.63 30.0667 152.097 29.6458 147.381 32.044C142.665 34.4421 139.612 36.9938 138.977 42.251C134.682 39.7861 127.521 45.1902 125.083 50.4073C122.645 55.6244 123.253 61.0084 124.635 66.5996C127.038 76.2429 131.309 85.321 137.207 93.3196C137.728 94.0277 138.543 94.8092 139.352 94.4352C139.601 94.2607 139.805 94.0302 139.949 93.7622C140.093 93.4942 140.172 93.1962 140.18 92.8921C141.001 87.7819 140.354 82.5648 139.906 77.4078C139.458 72.2509 139.238 66.9336 140.875 62.0438C142.511 57.1541 146.352 52.6518 151.429 51.6498C155.183 50.9083 159.078 52.124 162.411 54.0011C165.744 55.8782 168.677 58.3765 171.85 60.5074C175.023 62.6384 178.59 64.4353 182.411 64.5956C186.232 64.7559 190.333 62.9657 191.957 59.5054C193.58 56.0452 191.763 51.1287 188.022 50.3338C189.764 50.1812 191.398 49.4264 192.644 48.1991C193.89 46.9719 194.669 45.349 194.848 43.6095C195.027 41.8699 194.594 40.1225 193.623 38.6676C192.653 37.2127 191.206 36.1414 189.532 35.6378V35.6578Z" fill="black"/>
<path d="M172.344 125.27L171.803 114.228C171.803 114.228 186.379 111.436 186.051 96.7733C185.891 89.6991 184.368 75.1434 182.845 61.9905C182.06 55.1645 178.731 48.8851 173.523 44.4035C168.315 39.9219 161.609 37.5673 154.742 37.8089L153.326 37.8557C138.116 39.2852 130.821 53.0059 132.671 68.1762L136.178 127.227C136.461 132.003 138.622 136.473 142.189 139.66C145.756 142.848 150.439 144.495 155.216 144.241C159.999 143.986 164.486 141.846 167.696 138.291C170.906 134.736 172.577 130.054 172.344 125.27Z" fill="#FFBE9D"/>
<path d="M171.823 114.228C171.823 114.228 162.585 115.303 152.524 109.465C152.524 109.465 157.414 119.859 171.99 118.022L171.823 114.228Z" fill="#EB996E"/>
<path d="M177.908 71.9101C177.931 72.4544 177.74 72.9861 177.377 73.3925C177.015 73.799 176.508 74.0483 175.965 74.0878C175.699 74.1182 175.43 74.0953 175.174 74.0203C174.917 73.9454 174.678 73.8198 174.471 73.6512C174.264 73.4825 174.092 73.2741 173.967 73.0382C173.841 72.8023 173.764 72.5436 173.74 72.2775C173.714 71.7326 173.902 71.1993 174.264 70.7912C174.626 70.3831 175.133 70.1326 175.677 70.0931C175.944 70.0617 176.214 70.0841 176.472 70.1591C176.729 70.234 176.969 70.36 177.177 70.5294C177.385 70.6989 177.557 70.9084 177.683 71.1456C177.809 71.3828 177.885 71.6427 177.908 71.9101Z" fill="black"/>
<path d="M179.946 69.2448C179.692 69.5254 178.069 68.4098 175.818 68.4966C173.567 68.5835 171.957 69.7658 171.703 69.4986C171.576 69.3784 171.823 68.8774 172.524 68.3296C173.474 67.6196 174.619 67.2206 175.804 67.1874C176.977 67.1412 178.133 67.4712 179.104 68.1292C179.819 68.6302 180.066 69.1179 179.946 69.2448Z" fill="black"/>
<path d="M155.784 73.4801C155.808 74.0256 155.619 74.5589 155.256 74.9668C154.893 75.3747 154.385 75.625 153.84 75.6645C153.575 75.6949 153.306 75.672 153.05 75.597C152.793 75.5221 152.554 75.3965 152.347 75.2279C152.14 75.0592 151.968 74.8508 151.843 74.6149C151.717 74.3789 151.64 74.1203 151.616 73.8542C151.592 73.3087 151.782 72.7753 152.145 72.3674C152.508 71.9596 153.015 71.7093 153.56 71.6698C153.825 71.6393 154.094 71.6623 154.351 71.7372C154.607 71.8122 154.846 71.9377 155.053 72.1064C155.261 72.2751 155.432 72.4835 155.558 72.7194C155.683 72.9553 155.76 73.214 155.784 73.4801Z" fill="black"/>
<path d="M157.822 70.4405C157.575 70.7211 155.945 69.6055 153.693 69.6924C151.442 69.7792 149.832 70.9616 149.579 70.6944C149.452 70.5741 149.699 70.0731 150.4 69.5254C151.352 68.8152 152.5 68.4163 153.687 68.3831C154.857 68.3374 156.011 68.6675 156.98 69.325C157.695 69.8326 157.949 70.3136 157.822 70.4405Z" fill="black"/>
<path d="M166.579 86.84C166.579 86.7064 167.955 86.4192 170.213 86.0518C170.788 85.9716 171.329 85.838 171.416 85.4372C171.44 84.8417 171.284 84.2527 170.968 83.7472C170.38 82.3778 169.766 80.9349 169.118 79.4319C166.532 73.2796 164.642 68.2095 164.896 68.0759C165.15 67.9423 167.434 72.8788 170.013 79.0311C170.641 80.5452 171.235 81.9948 171.796 83.3798C172.182 84.0602 172.317 84.8546 172.177 85.6242C172.101 85.8298 171.979 86.0154 171.82 86.167C171.662 86.3186 171.471 86.4322 171.262 86.4993C170.945 86.597 170.618 86.6531 170.287 86.6663C168.009 86.9268 166.593 86.987 166.579 86.84Z" fill="black"/>
<path d="M160.006 88.6504C160.373 88.6103 160.467 91.0552 162.618 92.7185C164.769 94.3818 167.361 94.0211 167.394 94.3618C167.434 94.5154 166.833 94.8561 165.731 94.9229C164.291 95.0032 162.87 94.5674 161.723 93.6938C160.638 92.8556 159.92 91.6298 159.719 90.2736C159.592 89.2516 159.839 88.637 160.006 88.6504Z" fill="black"/>
<path d="M157.648 58.8977C157.448 59.5122 155.19 59.3051 152.558 59.7126C149.926 60.1201 147.815 60.9217 147.448 60.3806C147.281 60.1201 147.628 59.5323 148.47 58.911C149.593 58.1414 150.878 57.639 152.226 57.4421C153.574 57.2453 154.948 57.3593 156.245 57.7754C157.221 58.1161 157.728 58.6038 157.648 58.8977Z" fill="black"/>
<path d="M178.89 62.7921C178.51 63.3131 176.94 62.8388 175.076 62.8789C173.212 62.919 171.643 63.3465 171.255 62.8188C171.088 62.565 171.322 62.0439 171.997 61.5362C172.894 60.9077 173.967 60.5781 175.063 60.5944C176.154 60.5558 177.23 60.8569 178.142 61.4561C178.817 61.9838 179.057 62.4982 178.89 62.7921Z" fill="black"/>
<path d="M134.268 78.9842C134.014 78.884 124.094 76.359 124.762 86.3322C125.43 96.3055 135.343 93.6001 135.343 93.3128C135.343 93.0256 134.268 78.9842 134.268 78.9842Z" fill="#FFBE9D"/>
<path d="M132.01 89.7591C131.963 89.7591 131.843 89.8927 131.556 90.0464C131.158 90.2601 130.693 90.3082 130.26 90.18C129.171 89.8593 128.169 88.2428 128.002 86.4392C127.919 85.5841 128.029 84.7213 128.323 83.9141C128.394 83.594 128.543 83.2963 128.756 83.047C128.969 82.7978 129.24 82.6047 129.545 82.4846C129.742 82.4176 129.956 82.4216 130.15 82.4961C130.344 82.5705 130.506 82.7107 130.607 82.8921C130.761 83.166 130.708 83.3664 130.761 83.3797C130.814 83.3931 130.968 83.1994 130.854 82.7919C130.782 82.5483 130.629 82.3365 130.42 82.1907C130.129 82.0036 129.778 81.9366 129.438 82.0037C129.033 82.1114 128.662 82.3216 128.361 82.614C128.061 82.9065 127.84 83.2714 127.722 83.6736C127.355 84.57 127.213 85.5422 127.307 86.506C127.508 88.51 128.643 90.3336 130.14 90.6542C130.413 90.715 130.697 90.7135 130.97 90.6499C131.243 90.5863 131.498 90.4622 131.716 90.2868C132.01 90.0063 132.044 89.7792 132.01 89.7591Z" fill="#EB996E"/>
<path d="M185.837 58.7841C182.621 59.7307 179.226 59.9003 175.932 59.279C172.637 58.6577 169.537 57.2633 166.886 55.2103C163.212 52.3112 160.313 48.0627 155.798 46.8403C154.259 46.4888 152.666 46.4465 151.111 46.716C149.556 46.9855 148.07 47.5613 146.739 48.4101C144.084 50.1206 141.81 52.3606 140.059 54.9899C143.152 62.3379 141.542 70.7213 139.886 78.5168C139.795 79.4019 139.412 80.2315 138.797 80.8749C137.648 81.8234 135.844 81.1755 134.789 80.1334C133.072 78.4567 132.344 76.0319 131.843 73.6939C130.602 68.3649 130.436 62.8419 131.355 57.4481C132.296 52.0359 134.804 47.0189 138.57 43.0193C143.473 38.1564 150.075 35.3918 156.98 35.3106C163.849 35.2816 170.552 37.418 176.138 41.4161C178.73 43.2331 181.135 45.4241 182.538 48.2898" fill="black"/>
<path d="M193.86 39.0445C193.902 39.3372 193.882 39.6354 193.8 39.9196C193.589 40.7464 193.121 41.4853 192.464 42.0304C191.411 42.8728 190.118 43.3593 188.77 43.4199C187.942 43.4932 187.108 43.4708 186.285 43.3531C185.34 43.2258 184.446 42.8449 183.7 42.2509C183.28 41.9187 182.942 41.4952 182.71 41.0125C182.479 40.5298 182.36 40.0007 182.364 39.4653C182.417 38.8826 182.633 38.3266 182.988 37.8611C183.342 37.3956 183.82 37.0394 184.368 36.8334C184.936 36.5975 185.551 36.4969 186.165 36.5395C186.803 36.6028 187.409 36.8513 187.908 37.2542C188.41 37.6785 188.814 38.2061 189.093 38.801C189.372 39.3959 189.52 40.0441 189.525 40.7011C189.549 42.0876 189.029 43.4282 188.075 44.4352C187.103 45.4652 185.874 46.2189 184.515 46.6196C181.763 47.4813 178.69 47.0672 175.925 45.9917C173.241 44.8885 170.695 43.4786 168.336 41.79C166.162 40.2484 163.863 38.8921 161.462 37.7352C159.299 36.7025 156.917 36.2097 154.522 36.299C152.445 36.4502 150.426 37.0569 148.61 38.0759C145.962 39.5838 143.745 41.7457 142.171 44.3551C141.725 45.0473 141.317 45.7631 140.948 46.4994C140.835 46.7665 140.703 47.0254 140.554 47.2742C140.566 47.2002 140.589 47.1283 140.621 47.0605C140.668 46.9269 140.741 46.7198 140.855 46.4593C141.178 45.6901 141.556 44.9446 141.983 44.2282C143.515 41.5365 145.732 39.2986 148.41 37.7419C150.275 36.6805 152.354 36.0484 154.495 35.8915C156.962 35.7763 159.42 36.2647 161.656 37.3144C164.093 38.4818 166.426 39.8539 168.63 41.4159C170.957 43.0765 173.465 44.4681 176.105 45.5642C178.81 46.6062 181.763 47.007 184.381 46.1921C185.655 45.7938 186.802 45.0682 187.708 44.0879C188.57 43.1904 189.05 41.9925 189.044 40.7479C189.044 40.1557 188.917 39.5704 188.67 39.032C188.423 38.4936 188.063 38.0148 187.615 37.6283C187.181 37.2852 186.661 37.0681 186.112 37.001C185.562 36.9338 185.005 37.0191 184.502 37.2476C184.017 37.4177 183.59 37.721 183.27 38.1227C182.95 38.5244 182.749 39.0083 182.691 39.5188C182.691 39.9981 182.799 40.4713 183.006 40.9037C183.213 41.3361 183.514 41.7165 183.887 42.0171C184.586 42.5749 185.42 42.9368 186.305 43.0658C187.105 43.1907 187.916 43.2243 188.723 43.1661C190.049 43.1369 191.33 42.6878 192.384 41.8835C193.018 41.3626 193.483 40.6651 193.72 39.8795C193.784 39.6044 193.831 39.3255 193.86 39.0445Z" fill="#797979"/>
<path d="M123.58 59.0981C124.586 59.4155 125.619 59.6392 126.666 59.7661C127.799 59.8271 128.933 59.6683 130.006 59.2985C131.324 58.8306 132.568 58.1759 133.7 57.3546C135.746 55.8283 137.239 53.6784 137.955 51.229C138.206 50.1997 138.391 49.1555 138.51 48.1028C138.583 48.3861 138.61 48.6793 138.59 48.9712C138.588 49.7644 138.487 50.5542 138.289 51.3225C137.65 53.9047 136.128 56.1824 133.988 57.7621C132.817 58.6228 131.522 59.2987 130.147 59.7661C129.013 60.1392 127.813 60.2689 126.626 60.1468C125.834 60.056 125.06 59.849 124.328 59.5323C124.055 59.4329 123.802 59.2859 123.58 59.0981Z" fill="#797979"/>
<path d="M124.288 66.3323C124.288 66.2388 125.477 66.4592 127.368 66.2855C129.825 66.0761 132.181 65.2105 134.189 63.7793C136.197 62.348 137.784 60.4036 138.784 58.1493C139.565 56.4192 139.739 55.2368 139.832 55.2568C139.851 55.5377 139.824 55.8196 139.752 56.0918C139.605 56.8432 139.382 57.5774 139.084 58.2829C138.143 60.6519 136.539 62.6998 134.465 64.1817C132.391 65.6637 129.934 66.5169 127.388 66.6396C126.624 66.679 125.859 66.6432 125.103 66.5327C124.823 66.5092 124.547 66.4416 124.288 66.3323Z" fill="#797979"/>
<path d="M150.674 80.2803C150.641 80.2871 150.606 80.287 150.573 80.2802C150.54 80.2734 150.508 80.2599 150.48 80.2406C150.452 80.2212 150.428 80.1965 150.41 80.1677C150.391 80.139 150.379 80.1069 150.373 80.0733C150.362 80.0408 150.358 80.0065 150.361 79.9723C150.363 79.9381 150.373 79.9049 150.39 79.8747C150.406 79.8445 150.428 79.8181 150.456 79.7971C150.483 79.7761 150.514 79.7609 150.547 79.7526C150.613 79.7459 150.679 79.7634 150.733 79.8017C150.787 79.84 150.826 79.8966 150.841 79.9611C150.856 80.0255 150.848 80.0933 150.817 80.152C150.787 80.2107 150.736 80.2563 150.674 80.2803Z" fill="#EB996E"/>
<path d="M154.976 79.1513C154.904 79.1508 154.834 79.126 154.778 79.0809C154.721 79.0358 154.682 78.9731 154.666 78.9028C154.649 78.8325 154.657 78.7588 154.688 78.6936C154.719 78.6284 154.771 78.5755 154.836 78.5434C154.909 78.5375 154.983 78.5596 155.041 78.6055C155.099 78.6513 155.138 78.7174 155.15 78.7906C155.173 78.8615 155.168 78.9388 155.136 79.0062C155.104 79.0735 155.046 79.1256 154.976 79.1513Z" fill="#EB996E"/>
<path d="M157.842 78.9776C157.701 78.9776 157.568 78.8373 157.528 78.6169C157.488 78.3964 157.574 78.196 157.708 78.176C157.842 78.156 157.982 78.3163 158.022 78.5367C158.062 78.7572 157.975 78.9576 157.842 78.9776Z" fill="#EB996E"/>
<path d="M152.885 82.9055C152.752 82.9055 152.631 82.8454 152.631 82.7586C152.631 82.6717 152.738 82.5916 152.872 82.5916C153.005 82.5916 153.126 82.6517 153.126 82.7385C153.126 82.8254 153.025 82.8988 152.885 82.9055Z" fill="#EB996E"/>
<path d="M156.8 81.85C156.73 81.8537 156.661 81.8299 156.609 81.7837C156.557 81.7375 156.524 81.6726 156.519 81.6029C156.512 81.5682 156.513 81.5325 156.52 81.4979C156.527 81.4634 156.541 81.4305 156.56 81.4013C156.58 81.3721 156.606 81.3471 156.635 81.3279C156.665 81.3086 156.698 81.2953 156.733 81.2889C156.803 81.287 156.872 81.3123 156.924 81.3596C156.976 81.4069 157.008 81.4725 157.013 81.5428C157.025 81.6118 157.009 81.6826 156.969 81.7401C156.929 81.7975 156.868 81.837 156.8 81.85Z" fill="#EB996E"/>
<path d="M177.254 78.6771C177.22 78.6838 177.184 78.6836 177.15 78.6764C177.116 78.6692 177.084 78.6552 177.055 78.6353C177.026 78.6154 177.002 78.5899 176.983 78.5603C176.965 78.5308 176.952 78.4978 176.947 78.4633C176.935 78.4305 176.931 78.3956 176.934 78.361C176.936 78.3264 176.946 78.2927 176.962 78.262C176.979 78.2313 177.001 78.2043 177.028 78.1826C177.055 78.161 177.087 78.1451 177.12 78.136C177.188 78.1274 177.257 78.1441 177.314 78.183C177.371 78.2219 177.411 78.2803 177.428 78.3471C177.444 78.4139 177.436 78.4844 177.404 78.5452C177.372 78.606 177.318 78.653 177.254 78.6771Z" fill="#EB996E"/>
<path d="M180.173 78.3097C180.1 78.3033 180.032 78.2722 179.979 78.2216C179.926 78.171 179.892 78.1038 179.883 78.0313C179.874 77.9588 179.889 77.8853 179.928 77.823C179.966 77.7606 180.024 77.7131 180.093 77.6885C180.226 77.6885 180.353 77.7954 180.38 77.9624C180.397 78.0358 180.384 78.1127 180.346 78.1773C180.307 78.2419 180.245 78.2893 180.173 78.3097Z" fill="#EB996E"/>
<path d="M174.662 78.8241C174.62 78.8283 174.577 78.8201 174.54 78.8006C174.502 78.7812 174.47 78.7512 174.449 78.7144C174.428 78.6775 174.418 78.6354 174.42 78.593C174.423 78.5506 174.437 78.5097 174.462 78.4753C174.487 78.4409 174.521 78.4145 174.561 78.3992C174.601 78.3838 174.644 78.3802 174.685 78.3889C174.727 78.3975 174.765 78.4179 174.795 78.4477C174.826 78.4775 174.847 78.5155 174.856 78.5569C174.864 78.6178 174.848 78.6793 174.812 78.729C174.776 78.7787 174.722 78.8127 174.662 78.8241Z" fill="#EB996E"/>
<path d="M176.94 81.7031C176.873 81.7257 176.8 81.7225 176.736 81.694C176.672 81.6656 176.62 81.614 176.592 81.5495C176.575 81.5188 176.563 81.485 176.558 81.4498C176.554 81.4147 176.556 81.379 176.566 81.3448C176.575 81.3106 176.591 81.2786 176.613 81.2507C176.635 81.2227 176.662 81.1994 176.693 81.1821C176.759 81.1654 176.828 81.1721 176.89 81.2011C176.951 81.2301 177.001 81.2795 177.03 81.341C177.059 81.4025 177.066 81.4723 177.05 81.5383C177.033 81.6043 176.994 81.6626 176.94 81.7031Z" fill="#EB996E"/>
<path d="M179.425 81.1086C179.395 81.1045 179.366 81.0945 179.34 81.0792C179.314 81.0638 179.291 81.0434 179.273 81.0191C179.255 80.9948 179.242 80.9672 179.235 80.9378C179.228 80.9085 179.226 80.878 179.231 80.8481C179.252 80.7911 179.295 80.7445 179.35 80.7184C179.404 80.6922 179.467 80.6884 179.525 80.7078C179.584 80.7161 179.638 80.7474 179.674 80.7949C179.71 80.8425 179.726 80.9024 179.719 80.9617C179.699 81.0199 179.657 81.068 179.602 81.0955C179.547 81.123 179.483 81.1277 179.425 81.1086Z" fill="#EB996E"/>
<path d="M174.468 247.588L174.308 232.738C174.308 232.738 164.402 219.011 168.296 204.121C168.296 204.121 174.756 199.578 192.077 202.237C192.077 202.237 213.82 181.055 242.965 186.446C272.11 191.836 274.822 217.227 275.102 224.141C275.383 231.055 275.316 244.481 265.283 257.608L264.615 270.634C264.615 270.634 262.223 275.537 255.31 275.203C248.396 274.869 248.783 273.867 248.783 273.867C248.783 273.867 240.099 280.874 239.725 282.704C239.351 284.535 237.988 291.475 237.988 291.475C237.988 291.475 234.976 295.57 228.476 296.051C225.905 296.233 223.333 295.707 221.041 294.528C220.172 294.088 219.399 293.479 218.767 292.737C218.135 291.995 217.657 291.135 217.361 290.206C216.74 288.15 215.691 286.248 214.283 284.626C212.875 283.004 211.139 281.698 209.191 280.794L204.702 279.618C204.702 279.618 202.892 281.268 196.592 281.943C190.293 282.618 190.266 280.386 190.266 280.386C190.266 280.386 180.467 282.651 173.106 273.038C167.294 265.437 164.134 251.763 174.468 247.588Z" fill="#5063BF"/>
<path d="M234.882 248.443C234.98 248.284 235.09 248.132 235.209 247.988C235.43 247.694 235.757 247.267 236.165 246.706C236.986 245.59 238.135 243.94 239.405 241.809C240.882 239.311 242.164 236.703 243.239 234.007C243.847 232.484 244.415 230.861 244.916 229.157C245.417 227.454 245.837 225.61 245.396 223.813C244.866 222.072 243.728 220.579 242.19 219.605C240.772 218.654 239.253 217.863 237.661 217.247C234.965 216.183 232.131 215.508 229.244 215.243C227.298 215.058 225.339 215.058 223.393 215.243C222.725 215.303 222.17 215.37 221.803 215.423C221.62 215.461 221.435 215.481 221.248 215.483C221.427 215.427 221.61 215.384 221.796 215.357C222.15 215.283 222.684 215.19 223.379 215.109C225.332 214.867 227.304 214.829 229.264 214.996C232.193 215.216 235.072 215.871 237.808 216.94C239.427 217.554 240.97 218.35 242.411 219.311C244.019 220.329 245.206 221.895 245.751 223.72C246.218 225.637 245.751 227.548 245.263 229.251C244.775 230.954 244.174 232.591 243.553 234.127C242.461 236.832 241.152 239.443 239.638 241.936C238.616 243.614 237.501 245.233 236.298 246.786C235.871 247.34 235.523 247.754 235.29 248.028C235.168 248.179 235.031 248.318 234.882 248.443Z" fill="#8EDFEB"/>
<path d="M194.134 202.885C194.185 202.993 194.219 203.108 194.234 203.226C194.299 203.567 194.315 203.915 194.281 204.261C194.113 205.539 193.525 206.726 192.611 207.634C191.522 208.837 189.866 209.819 188.249 211.141C186.478 212.566 184.844 214.151 183.366 215.878C180.676 219.016 178.506 222.566 176.94 226.392C176.339 227.862 175.945 229.064 175.677 229.932C175.564 230.326 175.464 230.654 175.383 230.914C175.356 231.03 175.316 231.142 175.263 231.248C175.264 231.128 175.282 231.009 175.317 230.894C175.383 230.627 175.457 230.3 175.55 229.892C175.868 228.675 176.256 227.477 176.713 226.305C178.222 222.416 180.384 218.813 183.105 215.65C184.596 213.91 186.252 212.317 188.049 210.894C189.699 209.558 191.355 208.616 192.437 207.467C193.334 206.603 193.933 205.475 194.148 204.248C194.192 203.794 194.188 203.337 194.134 202.885Z" fill="#8EDFEB"/>
<g opacity="0.5">
<path opacity="0.5" d="M205.784 204.702L214.649 206.967C214.649 206.967 227.628 192.384 241.883 188.69L236.539 187.427C224.824 190.069 214.136 196.073 205.784 204.702Z" fill="black"/>
</g>
<path d="M238.99 187.989C227.334 190.61 216.727 196.658 208.536 205.357L205.784 204.689C205.784 204.689 218.356 190.894 236.546 187.414L238.99 187.989Z" fill="#5063BF"/>
<g opacity="0.7">
<path opacity="0.7" d="M238.99 187.989C227.334 190.61 216.727 196.658 208.536 205.357L205.784 204.689C205.784 204.689 218.356 190.894 236.546 187.414L238.99 187.989Z" fill="black"/>
</g>
<path d="M170.186 250.614C175.096 243.586 187.414 245.737 193.032 252.056C198.65 258.376 201.141 267.073 197.487 274.568C195.924 277.768 192.932 280.58 189.371 280.513C191.148 278.52 192.42 276.131 193.083 273.545C193.745 270.959 193.778 268.252 193.179 265.65C192.037 260.406 188.73 255.777 184.548 252.41C182.431 250.7 180.046 248.823 177.334 248.556C174.622 248.289 172.451 248.209 170.186 250.614Z" fill="#5063BF"/>
<g opacity="0.3">
<path opacity="0.3" d="M170.186 250.614C175.096 243.586 187.414 245.737 193.032 252.056C198.65 258.376 201.141 267.073 197.487 274.568C195.924 277.768 192.932 280.58 189.371 280.513C191.148 278.52 192.42 276.131 193.083 273.545C193.745 270.959 193.778 268.252 193.179 265.65C192.037 260.406 188.73 255.777 184.548 252.41C182.431 250.7 180.046 248.823 177.334 248.556C174.622 248.289 172.451 248.209 170.186 250.614Z" fill="black"/>
</g>
<g opacity="0.3">
<path opacity="0.3" d="M235.376 248.028C235.283 249.518 236.646 250.834 238.122 251.008C238.867 251.053 239.613 250.92 240.297 250.62C240.981 250.32 241.584 249.863 242.057 249.284C242.987 248.116 243.669 246.771 244.061 245.33C245.597 240.514 246.392 233.306 245.584 228.343C243.459 234.802 239.665 242.858 235.263 248.042" fill="black"/>
</g>
<g opacity="0.3">
<path opacity="0.3" d="M240.032 225.817C239.077 222.992 236.151 221.342 233.352 220.366C230.482 219.365 227.484 218.776 224.448 218.616C223.493 218.512 222.526 218.605 221.609 218.89C221.154 219.038 220.744 219.3 220.418 219.651C220.091 220.001 219.86 220.429 219.745 220.894C219.685 221.275 219.744 221.666 219.913 222.013C220.083 222.359 220.356 222.645 220.694 222.831C225.535 228.434 229.146 234.991 231.295 242.076C231.386 242.388 231.56 242.669 231.798 242.89C232.035 243.112 232.328 243.264 232.646 243.333C232.963 243.401 233.293 243.383 233.601 243.279C233.909 243.176 234.183 242.991 234.394 242.744C236.666 240.153 237.975 236.659 239.151 233.346C239.992 230.914 240.861 228.255 240.032 225.817Z" fill="black"/>
</g>
<g opacity="0.3">
<path opacity="0.3" d="M176.165 227.12C173.129 222.396 171.566 216.876 171.676 211.262C171.676 210.079 171.85 208.797 172.671 207.955C173.667 206.933 175.283 206.913 176.679 207.006C180.615 207.252 184.525 207.801 188.376 208.65C188.677 208.717 189.044 208.817 189.138 209.104C189.243 209.325 189.275 209.574 189.228 209.815C189.181 210.056 189.058 210.275 188.877 210.44C182.898 214.107 178.657 220.854 176.399 227.454" fill="black"/>
</g>
<path d="M168.717 204.648C168.729 204.985 168.714 205.323 168.67 205.657C168.617 206.325 168.556 207.24 168.516 208.396C168.314 213.07 168.901 217.745 170.253 222.224C170.707 223.686 171.182 224.976 171.636 226.044C172.09 227.113 172.484 227.962 172.771 228.536C172.941 228.828 173.08 229.137 173.186 229.458C172.984 229.189 172.805 228.903 172.651 228.603C172.324 228.042 171.896 227.2 171.415 226.138C170.851 224.896 170.361 223.623 169.946 222.324C169.451 220.726 169.054 219.1 168.757 217.454C168.253 214.47 168.089 211.437 168.269 208.416C168.343 207.26 168.436 206.318 168.536 205.677C168.563 205.329 168.624 204.985 168.717 204.648Z" fill="#FAFAFA"/>
<path d="M236.024 186.946C235.914 187.002 235.797 187.044 235.677 187.073L234.675 187.367C234.234 187.488 233.7 187.635 233.085 187.835C232.471 188.035 231.749 188.229 231.008 188.503C229.465 189.017 227.668 189.705 225.697 190.547C223.727 191.389 221.609 192.431 219.451 193.633C217.294 194.836 215.317 196.125 213.56 197.347C211.803 198.57 210.286 199.772 209.051 200.821C208.416 201.322 207.875 201.823 207.387 202.244C206.9 202.665 206.492 203.039 206.165 203.353L205.39 204.054C205.21 204.214 205.109 204.294 205.103 204.281C205.173 204.181 205.253 204.089 205.343 204.007L206.071 203.252C206.385 202.925 206.779 202.538 207.26 202.103C207.741 201.669 208.262 201.155 208.89 200.634C210.113 199.558 211.629 198.349 213.373 197.087C215.279 195.737 217.252 194.484 219.284 193.333C221.326 192.199 223.424 191.172 225.57 190.253C227.574 189.425 229.378 188.757 230.914 188.249C231.689 187.989 232.397 187.808 233.018 187.628C233.64 187.447 234.181 187.314 234.628 187.214L235.644 186.987C235.768 186.954 235.896 186.94 236.024 186.946Z" fill="#FAFAFA"/>
<path d="M243.82 222.244C243.766 222.304 242.758 221.275 240.821 220.039C239.684 219.322 238.491 218.698 237.253 218.176C235.743 217.543 234.178 217.049 232.577 216.699C229.653 216.057 226.647 215.875 223.666 216.158C221.382 216.392 219.999 216.773 219.979 216.699C220.294 216.581 220.618 216.487 220.948 216.419C221.826 216.191 222.719 216.024 223.62 215.918C226.629 215.554 229.678 215.703 232.638 216.359C234.263 216.715 235.851 217.225 237.38 217.882C238.629 218.424 239.825 219.079 240.954 219.839L241.622 220.3L242.203 220.761C242.52 220.995 242.819 221.252 243.098 221.529C243.358 221.747 243.599 221.986 243.82 222.244Z" fill="#FAFAFA"/>
<path d="M184.067 279.431C183.957 279.418 183.849 279.389 183.747 279.344C183.445 279.252 183.149 279.145 182.858 279.024C181.776 278.596 180.733 278.078 179.739 277.474C176.423 275.49 173.663 272.7 171.715 269.363C169.767 266.026 168.694 262.252 168.596 258.389C168.557 257.228 168.618 256.066 168.777 254.915C168.824 254.508 168.897 254.194 168.93 253.98C168.949 253.872 168.976 253.764 169.011 253.66C169.005 254.084 168.972 254.508 168.91 254.929C168.804 256.077 168.78 257.231 168.837 258.382C169.003 262.189 170.094 265.898 172.016 269.189C173.937 272.479 176.632 275.252 179.866 277.267C180.843 277.88 181.861 278.427 182.912 278.903C183.653 279.224 184.074 279.404 184.067 279.431Z" fill="#FAFAFA"/>
<g opacity="0.2">
<path opacity="0.2" d="M185.818 264C185.298 263.823 184.738 263.801 184.207 263.938C183.675 264.074 183.195 264.363 182.825 264.768C182.464 265.181 182.2 265.67 182.053 266.198C181.906 266.727 181.88 267.281 181.977 267.821C182.077 268.867 182.526 269.848 183.252 270.607C183.855 271.19 184.627 271.567 185.457 271.682C185.975 271.671 186.481 271.517 186.918 271.238C187.355 270.958 187.707 270.565 187.935 270.099C188.223 269.565 188.396 268.976 188.445 268.371C188.493 267.766 188.415 267.158 188.216 266.584C188.017 266.011 187.701 265.485 187.288 265.04C186.875 264.596 186.375 264.241 185.818 264Z" fill="black"/>
</g>
<path d="M184.782 263.86C184.301 264.441 183.975 265.134 183.836 265.876C183.696 266.617 183.747 267.381 183.984 268.097C184.222 268.813 184.637 269.457 185.191 269.969C185.746 270.48 186.421 270.842 187.154 271.021C186.853 271.29 186.493 271.485 186.103 271.588C185.713 271.692 185.304 271.701 184.909 271.615C183.928 271.289 183.086 270.643 182.516 269.781C181.947 268.918 181.684 267.889 181.77 266.859C181.811 266.015 182.155 265.214 182.738 264.601C183.304 264.11 184.033 263.845 184.782 263.86Z" fill="#5063BF"/>
<g opacity="0.4">
<path opacity="0.4" d="M184.782 263.86C184.301 264.441 183.975 265.134 183.836 265.876C183.696 266.617 183.747 267.381 183.984 268.097C184.222 268.813 184.637 269.457 185.191 269.969C185.746 270.48 186.421 270.842 187.154 271.021C186.853 271.29 186.493 271.485 186.103 271.588C185.713 271.692 185.304 271.701 184.909 271.615C183.928 271.289 183.086 270.643 182.516 269.781C181.947 268.918 181.684 267.889 181.77 266.859C181.811 266.015 182.155 265.214 182.738 264.601C183.304 264.11 184.033 263.845 184.782 263.86Z" fill="black"/>
</g>
<g opacity="0.2">
<path opacity="0.2" d="M175.971 260.199C175.469 260.032 174.93 260.014 174.418 260.146C173.905 260.279 173.443 260.558 173.085 260.948C172.737 261.346 172.482 261.817 172.339 262.327C172.197 262.837 172.171 263.372 172.264 263.893C172.374 264.895 172.808 265.833 173.5 266.566C174.083 267.127 174.829 267.489 175.63 267.601C176.129 267.59 176.616 267.443 177.037 267.174C177.457 266.905 177.796 266.526 178.015 266.078C178.292 265.561 178.459 264.993 178.505 264.409C178.551 263.825 178.476 263.238 178.284 262.684C178.092 262.131 177.787 261.623 177.389 261.193C176.991 260.763 176.508 260.42 175.971 260.186" fill="black"/>
</g>
<path d="M174.976 260.079C174.509 260.639 174.193 261.308 174.057 262.024C173.921 262.74 173.97 263.479 174.2 264.17C174.429 264.862 174.831 265.483 175.368 265.976C175.905 266.469 176.558 266.817 177.267 266.986C176.976 267.247 176.628 267.435 176.251 267.536C175.874 267.637 175.478 267.648 175.096 267.567C174.15 267.251 173.338 266.626 172.789 265.792C172.24 264.959 171.987 263.966 172.07 262.972C172.109 262.16 172.438 261.389 172.999 260.801C173.553 260.317 174.268 260.06 175.003 260.079" fill="#5063BF"/>
<g opacity="0.4">
<path opacity="0.4" d="M174.976 260.079C174.509 260.639 174.193 261.308 174.057 262.024C173.921 262.74 173.97 263.479 174.2 264.17C174.429 264.862 174.831 265.483 175.368 265.976C175.905 266.469 176.558 266.817 177.267 266.986C176.976 267.247 176.628 267.435 176.251 267.536C175.874 267.637 175.478 267.648 175.096 267.567C174.15 267.251 173.338 266.626 172.789 265.792C172.24 264.959 171.987 263.966 172.07 262.972C172.109 262.16 172.438 261.389 172.999 260.801C173.553 260.317 174.268 260.06 175.003 260.079" fill="black"/>
</g>
<path d="M201.315 241.816C201.315 241.816 201.382 241.816 201.408 241.769H201.455L201.315 241.816Z" fill="#8EDFEB"/>
<path d="M206.365 243.9C206.048 243.046 205.434 242.335 204.635 241.896C204.001 241.578 203.3 241.416 202.591 241.422H202.531C202.136 241.446 201.752 241.56 201.409 241.756C200.667 242.125 200.032 242.678 199.564 243.362C199.097 244.046 198.812 244.838 198.737 245.664C198.69 246.719 198.957 247.764 199.504 248.668C200.051 249.571 200.853 250.293 201.809 250.74C202.441 251.065 203.161 251.173 203.86 251.048C204.552 250.85 205.157 250.424 205.577 249.839C206.216 249.004 206.625 248.016 206.763 246.974C206.902 245.932 206.764 244.872 206.365 243.9Z" fill="black"/>
<path d="M180.667 235.316C180.695 235.3 180.724 235.287 180.754 235.276H180.793L180.667 235.316Z" fill="#8EDFEB"/>
<path d="M185.036 237.14C184.767 236.388 184.233 235.761 183.533 235.376C182.986 235.1 182.382 234.958 181.769 234.962H181.696C181.355 234.985 181.024 235.085 180.727 235.256C180.083 235.575 179.532 236.054 179.126 236.647C178.72 237.24 178.473 237.927 178.409 238.643C178.37 239.557 178.603 240.462 179.078 241.243C179.554 242.025 180.251 242.647 181.081 243.032C181.619 243.35 182.26 243.447 182.868 243.303C183.476 243.158 184.004 242.783 184.341 242.257C184.89 241.537 185.242 240.687 185.364 239.79C185.486 238.893 185.373 237.98 185.036 237.14Z" fill="black"/>
<path d="M186.372 248.302C186.513 248.311 186.652 248.338 186.786 248.382C187.18 248.482 187.568 248.603 187.949 248.743C189.355 249.258 190.678 249.976 191.876 250.874C193.67 252.2 195.196 253.855 196.372 255.75C197.799 258.078 198.748 260.667 199.164 263.366C199.59 266.059 199.559 268.805 199.071 271.489C198.717 273.709 197.758 275.789 196.299 277.501C195.295 278.634 193.995 279.464 192.544 279.899C192.021 280.07 191.471 280.145 190.921 280.119C191.457 280.046 191.987 279.93 192.504 279.772C193.905 279.297 195.153 278.455 196.118 277.334C197.513 275.643 198.424 273.608 198.757 271.442C199.224 268.792 199.244 266.082 198.817 263.426C198.409 260.772 197.486 258.223 196.098 255.924C194.953 254.052 193.472 252.408 191.729 251.074C190.555 250.176 189.268 249.435 187.902 248.87C186.947 248.496 186.372 248.336 186.372 248.302Z" fill="#8EDFEB"/>
<path d="M179.993 240.4C179.959 240.4 179.785 240.28 179.605 239.966C179.388 239.553 179.271 239.096 179.264 238.63C179.267 238.164 179.381 237.706 179.598 237.294C179.779 236.98 179.946 236.833 179.986 236.86C179.79 237.439 179.665 238.04 179.612 238.65C179.673 239.246 179.801 239.833 179.993 240.4Z" fill="#FAFAFA"/>
<path d="M200.133 247.781C200.093 247.781 199.926 247.628 199.779 247.273C199.599 246.803 199.55 246.293 199.639 245.797C199.714 245.303 199.927 244.84 200.253 244.461C200.507 244.167 200.721 244.06 200.747 244.094C200.4 244.64 200.14 245.237 199.979 245.864C199.922 246.507 199.974 247.155 200.133 247.781Z" fill="#FAFAFA"/>
<path d="M212.805 283.078C212.771 283.132 211.963 282.571 210.547 281.863C208.692 280.968 206.774 280.208 204.809 279.591C202.504 278.843 200.407 278.202 198.904 277.668C198.155 277.407 197.568 277.18 197.14 277C196.922 276.924 196.713 276.823 196.519 276.699C197.353 276.9 198.176 277.145 198.984 277.434C200.493 277.908 202.604 278.509 204.916 279.264C206.9 279.88 208.823 280.679 210.66 281.649C211.014 281.829 211.328 282.023 211.589 282.19C211.821 282.327 212.044 282.479 212.257 282.644C212.458 282.764 212.642 282.91 212.805 283.078Z" fill="#8EDFEB"/>
<path d="M260.199 261.562C260.02 261.892 259.815 262.207 259.585 262.504C259.184 263.098 258.549 263.933 257.741 264.935C255.591 267.52 253.256 269.944 250.754 272.19C247.835 274.862 245.116 277.126 243.192 278.837L240.921 280.841C240.656 281.104 240.37 281.345 240.066 281.562C240.296 281.269 240.551 280.997 240.827 280.747C241.335 280.233 242.09 279.511 243.032 278.629C244.916 276.873 247.608 274.548 250.513 271.909C253.003 269.671 255.352 267.282 257.547 264.755C258.382 263.78 259.044 262.971 259.478 262.404C259.696 262.105 259.938 261.824 260.199 261.562Z" fill="#8EDFEB"/>
<g opacity="0.2">
<path opacity="0.2" d="M248.843 273.933C252.437 274.227 256.519 273.125 259.07 270.593C260.351 269.29 261.216 267.635 261.555 265.839C261.894 264.043 261.692 262.187 260.974 260.507C258.877 263.499 256.512 266.679 253.626 269.124C251.809 270.667 250.6 272.537 248.843 273.953" fill="black"/>
</g>
<g opacity="0.5">
<path opacity="0.5" d="M236.045 189.919C240.721 196.8 250.306 198.977 254.942 205.871C256.739 208.543 257.614 211.696 258.483 214.795L269.171 253.359C269.612 245.002 267.601 236.733 265.597 228.603C263.628 220.587 261.653 212.571 259.672 204.555C259.345 202.762 258.693 201.043 257.748 199.485C256.692 197.969 255.123 196.906 253.593 195.878C248.102 192.19 242.451 188.436 236.011 186.967" fill="black"/>
</g>
<g opacity="0.3">
<path opacity="0.3" d="M203.259 210.747C203.553 211.683 202.27 212.958 200.273 214.542C199.264 215.33 198.089 216.232 196.793 217.214C195.497 218.196 194.121 219.271 192.671 220.433C191.222 221.596 189.912 222.751 188.663 223.773C187.414 224.795 186.325 225.817 185.323 226.639C183.366 228.276 181.863 229.271 181.001 228.79C180.14 228.309 180.2 226.412 181.342 223.753C182.025 222.211 182.893 220.758 183.927 219.425C186.458 216.144 189.714 213.495 193.439 211.683C194.956 210.946 196.555 210.392 198.202 210.033C201.068 209.478 202.979 209.852 203.259 210.747Z" fill="white"/>
</g>
<path d="M185.39 263.466C184.9 263.643 184.391 263.766 183.874 263.833C183.382 264.003 182.874 264.122 182.357 264.187C182.751 263.815 183.255 263.581 183.794 263.519C184.307 263.335 184.865 263.316 185.39 263.466Z" fill="#FAFAFA"/>
<path d="M175.25 259.785C174.785 259.895 174.314 259.978 173.84 260.032C173.085 260.199 172.504 260.513 172.464 260.427C172.424 260.34 172.932 259.879 173.76 259.692C174.002 259.608 174.259 259.573 174.514 259.589C174.77 259.605 175.02 259.672 175.25 259.785Z" fill="#FAFAFA"/>
<path d="M220.22 290.847C220.126 290.894 219.238 289.398 218.002 287.641C216.766 285.884 215.664 284.541 215.737 284.475C216.724 285.338 217.583 286.336 218.289 287.441C219.087 288.481 219.737 289.628 220.22 290.847Z" fill="#FAFAFA"/>
<path d="M180.427 220.741C180.52 220.801 179.204 222.745 178.062 225.35C176.92 227.955 176.372 230.233 176.265 230.206C176.28 229.695 176.37 229.189 176.532 228.703C176.838 227.507 177.242 226.339 177.741 225.21C178.237 224.079 178.824 222.991 179.498 221.956C179.755 221.513 180.067 221.105 180.427 220.741Z" fill="#FAFAFA"/>
<path d="M212.811 207.808C211.525 207.683 210.263 207.374 209.064 206.893C207.827 206.516 206.647 205.972 205.557 205.276C205.604 205.183 207.18 205.864 209.177 206.559C211.175 207.254 212.838 207.708 212.811 207.808Z" fill="#FAFAFA"/>
<path d="M264.915 196.98C263.354 199.112 261.057 200.59 258.469 201.128C259.641 200.602 260.785 200.015 261.896 199.371C262.942 198.626 263.95 197.827 264.915 196.98Z" fill="#EB996E"/>
<path d="M284.481 192.511C280.887 184.228 244.989 154.822 244.989 154.822L224.749 181.101C225.042 180.707 257.768 200.64 257.768 200.64L267.42 244.648L269.084 252.504C269.084 252.504 264.742 256.291 264.922 260.286C265.036 262.958 258.91 268.71 258.91 268.71C257.454 267.501 256.519 267.16 255.784 267.3L249.271 273.399L250.821 274.815C252.548 276.391 254.822 277.232 257.16 277.16L268.295 276.819C269.884 276.773 271.391 276.109 272.497 274.969C275.924 271.448 283.152 263.573 283.292 259.778C283.379 257.654 283.392 255.63 283.386 254C283.352 253.98 288.068 200.794 284.481 192.511Z" fill="#FFBE9D"/>
<path d="M273.82 262.885C273.636 263.051 273.426 263.186 273.199 263.286C272.791 263.513 272.163 263.78 271.435 264.181C270.596 264.665 269.855 265.301 269.251 266.058C268.486 267.012 267.586 267.849 266.579 268.543C264.717 269.782 262.507 270.391 260.273 270.28C259.881 270.279 259.493 270.211 259.124 270.079C258.975 270.027 258.845 269.932 258.75 269.806C258.655 269.68 258.599 269.529 258.589 269.371C258.583 269.273 258.601 269.174 258.642 269.085C258.683 268.995 258.745 268.917 258.823 268.857C258.937 268.79 259.01 268.803 259.01 268.81C259.01 268.817 258.95 268.81 258.863 268.91C258.806 268.969 258.763 269.041 258.738 269.12C258.714 269.199 258.709 269.283 258.723 269.364C258.742 269.49 258.797 269.608 258.881 269.704C258.965 269.8 259.075 269.87 259.197 269.905C259.548 270.01 259.914 270.056 260.279 270.039C262.45 270.081 264.582 269.462 266.392 268.262C267.371 267.588 268.251 266.778 269.004 265.857C269.641 265.083 270.424 264.441 271.308 263.967C272.07 263.586 272.704 263.359 273.132 263.165C273.353 263.052 273.583 262.958 273.82 262.885Z" fill="#EB996E"/>
<path d="M268.73 268.683C268.776 268.77 267.855 269.311 266.866 270.152C265.877 270.994 265.183 271.802 265.102 271.742C265.466 271.014 265.997 270.382 266.652 269.899C267.234 269.329 267.948 268.911 268.73 268.683Z" fill="#EB996E"/>
<path d="M273.212 250.453C273.212 250.553 272.23 250.613 271.155 251.121C270.079 251.629 269.398 252.344 269.324 252.27C269.744 251.64 270.329 251.137 271.014 250.814C271.699 250.492 272.459 250.362 273.212 250.44V250.453Z" fill="#EB996E"/>
<path d="M266.265 272.116C266.265 272.177 265.55 271.829 264.348 271.549C262.347 271.055 260.248 271.143 258.296 271.803C258.078 271.885 257.855 271.952 257.628 272.003C257.378 272.049 257.121 271.993 256.913 271.849L255.176 270.54C254.616 270.17 254.09 269.749 253.606 269.284C254.206 269.589 254.78 269.942 255.323 270.34L257.12 271.562C257.407 271.783 257.788 271.616 258.209 271.462C258.646 271.31 259.092 271.185 259.545 271.088C261.161 270.769 262.83 270.837 264.414 271.288C264.89 271.424 265.352 271.6 265.797 271.816C266.111 271.996 266.278 272.096 266.265 272.116Z" fill="#EB996E"/>
<path d="M190.734 170.046C186.452 168.824 184.555 168.296 184.555 168.296V166.332H186.258C187.969 166.332 190.427 164.201 190.427 164.201L194.081 158.61L194.548 155.023C194.161 150.601 188.83 152.351 188.83 152.351C188.576 150.808 181.749 149.258 176.619 148.303C174.901 147.982 173.133 148.046 171.443 148.492C169.752 148.938 168.183 149.754 166.846 150.881L161.923 155.036L147.174 167.935L109.098 200.1L84.0678 192.711C84.0678 192.711 76.1052 217.06 74.816 225.784C72.3244 242.544 95.3637 253.713 105.544 245.089C113.44 238.409 159.492 188.79 167.12 180.567H167.18C171.856 179.973 179.792 175.223 179.792 175.223L183.86 175.704C183.86 175.704 194.669 177.768 195.951 175.651C196.913 174.014 195.016 171.269 190.734 170.046Z" fill="#FFBE9D"/>
<path d="M168.563 165.183C168.563 165.183 168.67 165.337 168.797 165.651C168.982 166.094 169.13 166.552 169.238 167.02C169.601 168.568 169.66 170.172 169.412 171.743C169.166 173.314 168.612 174.822 167.782 176.178C167.535 176.589 167.253 176.978 166.94 177.341C166.719 177.601 166.586 177.735 166.566 177.715C166.546 177.695 166.993 177.1 167.568 176.058C169.085 173.322 169.593 170.14 169.004 167.067C168.77 165.898 168.503 165.203 168.563 165.183Z" fill="#EB996E"/>
<path d="M171.322 151.543C171.458 151.508 171.596 151.483 171.736 151.469C172.017 151.429 172.404 151.376 172.945 151.329C174.438 151.165 175.945 151.181 177.434 151.376C178.468 151.528 179.473 151.829 180.42 152.271C181.52 152.771 182.491 153.516 183.259 154.448C184.135 155.486 184.62 156.798 184.629 158.156C184.616 158.876 184.435 159.582 184.101 160.22C183.745 160.862 183.294 161.448 182.765 161.957C181.766 162.922 180.671 163.784 179.498 164.529C178.943 164.902 178.355 165.224 177.741 165.49C177.423 165.617 177.082 165.674 176.739 165.657C176.562 165.649 176.387 165.603 176.229 165.522C176.07 165.442 175.93 165.328 175.818 165.19C175.612 164.915 175.51 164.577 175.53 164.235C175.537 163.923 175.594 163.614 175.697 163.319C175.89 162.773 176.153 162.255 176.479 161.776C177.068 160.913 177.856 160.205 178.777 159.712L178.817 159.946L174.261 159.078L173.025 158.824C172.879 158.803 172.735 158.765 172.598 158.71C172.746 158.71 172.893 158.723 173.039 158.75L174.281 158.944L178.857 159.699L179.211 159.759L178.897 159.933C178.024 160.42 177.277 161.107 176.719 161.937C176.411 162.396 176.166 162.895 175.991 163.42C175.878 163.668 175.826 163.941 175.84 164.214C175.853 164.488 175.933 164.753 176.071 164.989C176.278 165.181 176.54 165.302 176.819 165.335C177.099 165.369 177.382 165.313 177.628 165.176C178.218 164.919 178.781 164.606 179.311 164.241C180.464 163.509 181.538 162.661 182.518 161.71C183.028 161.26 183.445 160.714 183.744 160.103C184.043 159.492 184.219 158.828 184.261 158.149C184.255 156.87 183.804 155.632 182.985 154.649C182.249 153.749 181.32 153.025 180.267 152.531C179.349 152.09 178.373 151.784 177.367 151.623C175.899 151.407 174.412 151.354 172.932 151.462L171.716 151.536C171.586 151.555 171.453 151.557 171.322 151.543Z" fill="#EB996E"/>
<path d="M188.884 152.558C188.951 152.793 188.989 153.035 188.997 153.279C189.063 153.945 189.09 154.614 189.077 155.283C189.082 157.499 188.509 159.677 187.414 161.603C186.078 163.84 183.987 165.283 182.257 165.51C181.913 165.558 181.562 165.521 181.234 165.405C180.906 165.289 180.611 165.096 180.373 164.842C180.25 164.702 180.154 164.538 180.093 164.361C180.065 164.303 180.054 164.239 180.059 164.174C180.175 164.381 180.314 164.574 180.474 164.749C180.709 164.96 180.99 165.114 181.295 165.199C181.599 165.285 181.919 165.3 182.23 165.243C183.82 164.983 185.838 163.56 187.114 161.409C188.175 159.527 188.764 157.416 188.83 155.257C188.917 153.593 188.824 152.558 188.884 152.558Z" fill="#EB996E"/>
<path d="M179.431 171.636C179.391 171.589 179.739 171.288 180.153 170.687C180.684 169.914 181.015 169.021 181.115 168.089C181.2 167.153 181.046 166.21 180.667 165.35C180.38 164.682 180.099 164.321 180.146 164.288C180.471 164.538 180.726 164.867 180.888 165.243C181.359 166.125 181.558 167.126 181.462 168.12C181.366 169.115 180.978 170.059 180.347 170.834C180.112 171.173 179.798 171.448 179.431 171.636Z" fill="#EB996E"/>
<path d="M172.938 158.984C173.179 159.431 173.255 159.949 173.152 160.447C173.109 160.995 172.95 161.528 172.685 162.01C172.382 162.598 172 163.142 171.549 163.626C170.699 164.475 169.676 165.129 168.55 165.544C168.106 165.759 167.637 165.916 167.154 166.011C167.559 165.741 167.994 165.517 168.449 165.343C169.507 164.875 170.472 164.219 171.295 163.406C171.727 162.942 172.099 162.426 172.404 161.87C172.665 161.428 172.837 160.941 172.912 160.433C172.971 159.952 172.98 159.467 172.938 158.984Z" fill="#EB996E"/>
<path d="M201.342 160.948L182.551 171.188C182.551 171.188 192.604 173.68 201.736 183.333C206.7 188.59 210.585 194.77 213.172 201.522L231.876 189.071C231.876 189.071 221.809 166.265 201.342 160.948Z" fill="#797979"/>
<path d="M185.864 170.808L201.035 162.124H201.081H201.128C203.811 162.846 206.39 163.908 208.803 165.283C211.546 166.87 214.105 168.757 216.432 170.908C219.012 173.274 221.377 175.865 223.499 178.65C225.8 181.619 227.841 184.782 229.598 188.102L229.672 188.242L229.538 188.329L228.556 188.997L214.114 198.65L213.94 198.763L213.867 198.576C211.825 193.523 209.018 188.814 205.544 184.615C202.783 181.324 199.59 178.42 196.051 175.985C193.743 174.383 191.281 173.013 188.703 171.896C187.795 171.509 187.087 171.228 186.599 171.075L186.051 170.888L185.864 170.821L186.058 170.861L186.619 171.021C187.113 171.175 187.828 171.422 188.743 171.79C191.359 172.867 193.857 174.21 196.198 175.798C199.773 178.22 202.998 181.122 205.784 184.421C209.297 188.635 212.136 193.367 214.201 198.449L213.954 198.376L228.389 188.71L229.371 188.042L229.311 188.262C227.565 184.963 225.54 181.819 223.259 178.864C221.153 176.092 218.806 173.512 216.245 171.155C213.931 169.012 211.388 167.131 208.663 165.544C206.276 164.167 203.724 163.099 201.068 162.364H201.161L185.864 170.808Z" fill="white"/>
<path d="M216.626 176.98C216.131 179.872 212.471 181.622 208.443 180.888C204.415 180.153 201.536 177.214 202.03 174.321C202.524 171.429 206.185 169.679 210.213 170.413C214.241 171.148 217.1 174.087 216.626 176.98Z" fill="#FAFAFA"/>
<path d="M207.868 177.908L207.2 178.63L206.452 177.902L207.08 177.234C206.542 176.669 206.152 175.981 205.944 175.23L207.207 174.682C207.375 175.38 207.734 176.018 208.242 176.526C208.757 177.027 209.091 177.067 209.284 176.853C209.952 176.131 206.98 174.241 208.503 172.558C209.171 171.85 210.186 171.723 211.308 172.558L211.976 171.85L212.725 172.578L212.09 173.246C212.511 173.711 212.826 174.263 213.012 174.862L211.769 175.443C211.602 174.869 211.297 174.343 210.881 173.914C210.36 173.413 210.006 173.413 209.805 173.633C209.177 174.301 212.123 176.218 210.614 177.888C209.992 178.576 208.977 178.71 207.868 177.908Z" fill="#797979"/>
<path d="M190.153 168.396C190.153 168.396 193.339 170.013 190.28 172.404L185.604 170.587L190.153 168.396Z" fill="#FAFAFA"/>
<path d="M198.71 163.587C198.71 163.587 201.783 166.833 204.722 163.453L201.101 162.244L198.71 163.587Z" fill="#FAFAFA"/>
<path d="M212.117 194.234C212.117 194.234 216.252 190.894 218.663 195.41L214.047 198.496L212.117 194.234Z" fill="#FAFAFA"/>
<path d="M227.374 184.502C227.374 184.502 224.388 186.372 226.412 190.226L229.471 188.182L227.374 184.502Z" fill="#FAFAFA"/>
<path d="M216.305 195.336C216.297 195.583 216.217 195.822 216.074 196.024C215.931 196.225 215.732 196.38 215.501 196.468C215.271 196.557 215.019 196.576 214.778 196.522C214.537 196.469 214.317 196.346 214.146 196.168C213.974 195.99 213.859 195.766 213.815 195.523C213.77 195.28 213.798 195.029 213.895 194.802C213.992 194.575 214.154 194.382 214.361 194.246C214.567 194.111 214.809 194.039 215.056 194.041C215.223 194.043 215.388 194.079 215.542 194.145C215.695 194.212 215.834 194.308 215.95 194.429C216.066 194.549 216.157 194.691 216.218 194.847C216.279 195.003 216.309 195.169 216.305 195.336Z" fill="#797979"/>
<path d="M228.837 187.367C228.828 187.612 228.747 187.849 228.604 188.048C228.461 188.247 228.263 188.4 228.034 188.488C227.805 188.575 227.556 188.593 227.317 188.54C227.077 188.487 226.859 188.364 226.689 188.188C226.519 188.011 226.405 187.789 226.36 187.548C226.316 187.307 226.343 187.058 226.439 186.832C226.534 186.607 226.694 186.415 226.899 186.279C227.103 186.144 227.343 186.072 227.588 186.072C227.755 186.074 227.92 186.11 228.073 186.176C228.227 186.243 228.366 186.339 228.482 186.46C228.598 186.58 228.689 186.722 228.75 186.878C228.811 187.034 228.84 187.2 228.837 187.367Z" fill="#797979"/>
<path d="M203.025 163.46C203.025 163.92 202.357 164.295 201.589 164.295C200.821 164.295 200.159 163.92 200.159 163.46C200.159 162.999 200.827 162.625 201.596 162.625C202.364 162.625 203.025 162.992 203.025 163.46Z" fill="#797979"/>
<path d="M190.814 170.387C190.879 170.674 190.854 170.975 190.74 171.247C190.627 171.52 190.432 171.75 190.182 171.906C189.932 172.063 189.64 172.138 189.346 172.121C189.051 172.105 188.769 171.997 188.539 171.813C188.309 171.629 188.141 171.378 188.059 171.095C187.978 170.811 187.986 170.51 188.083 170.231C188.181 169.953 188.362 169.712 188.602 169.541C188.843 169.37 189.13 169.278 189.425 169.278C189.755 169.246 190.085 169.344 190.345 169.551C190.604 169.758 190.772 170.058 190.814 170.387Z" fill="#797979"/>
<path d="M202.331 169.672C202.331 170.38 201.449 170.955 200.36 170.955C199.271 170.955 198.396 170.4 198.396 169.672C198.396 168.944 199.278 168.389 200.367 168.389C201.455 168.389 202.331 169.004 202.331 169.672Z" fill="#FAFAFA"/>
<path d="M218.155 186.853C217.267 187.26 216.152 186.699 215.711 185.604C215.466 185.139 215.409 184.597 215.552 184.091C215.695 183.585 216.027 183.153 216.479 182.885C217.367 182.478 218.483 183.039 218.924 184.141C219.168 184.605 219.225 185.146 219.082 185.651C218.939 186.155 218.607 186.586 218.155 186.853Z" fill="#FAFAFA"/>
<path d="M190.433 164.201L198.149 172.344C198.149 172.344 201.235 175.878 203.312 174.208C205.39 172.538 202.471 169.425 201.856 168.516C201.242 167.608 193.68 158.436 193.68 158.436L190.433 164.201Z" fill="#FFBE9D"/>
<path d="M194.388 156.88C194.358 157.362 194.256 157.837 194.087 158.289C193.769 159.405 193.321 160.479 192.751 161.489C192.17 162.506 191.428 163.422 190.554 164.201C190.21 164.542 189.807 164.818 189.365 165.016C189.685 164.664 190.027 164.332 190.387 164.021C191.185 163.22 191.878 162.323 192.451 161.349C193.78 158.984 194.295 156.84 194.388 156.88Z" fill="#EB996E"/>
<path d="M122.631 188.663C122.523 188.793 122.402 188.912 122.271 189.017L121.195 189.979L117.187 193.46C113.787 196.379 109.064 200.393 103.827 204.769C98.59 209.144 93.7203 213.092 90.1799 215.818C88.4164 217.207 86.9669 218.296 85.9515 219.044L84.7758 219.879C84.6452 219.984 84.5042 220.076 84.355 220.153C84.4741 220.035 84.6013 219.926 84.7357 219.826L85.8713 218.93C86.86 218.156 88.2828 217.04 90.0263 215.63C93.5199 212.818 98.3028 208.877 103.567 204.502C108.83 200.126 113.547 196.165 117.02 193.273L121.102 189.872L122.224 188.964C122.35 188.852 122.487 188.751 122.631 188.663Z" fill="#EB996E"/>
</svg>
