<svg width="344" height="344" viewBox="0 0 344 344" fill="none" xmlns="http://www.w3.org/2000/svg">
<path d="M344 263.091H0V263.263H344V263.091Z" fill="#EBEBEB"/>
<path d="M309.531 274.161H299.28V274.333H309.531V274.161Z" fill="#EBEBEB"/>
<path d="M227.879 276.032H221.901V276.204H227.879V276.032Z" fill="#EBEBEB"/>
<path d="M296.377 267.777H272.854V267.949H296.377V267.777Z" fill="#EBEBEB"/>
<path d="M75.4254 271.327H45.7107V271.499H75.4254V271.327Z" fill="#EBEBEB"/>
<path d="M92.2676 271.327H81.5486V271.499H92.2676V271.327Z" fill="#EBEBEB"/>
<path d="M175.275 269.015H110.823V269.187H175.275V269.015Z" fill="#EBEBEB"/>
<path d="M163.056 232.406H30.2101C29.1693 232.405 28.1719 231.99 27.4366 231.253C26.7014 230.517 26.2885 229.519 26.2885 228.478V41.7342C26.2975 40.6994 26.7145 39.7101 27.4487 38.9809C28.183 38.2518 29.1753 37.8419 30.2101 37.8401H163.056C164.098 37.8401 165.097 38.254 165.834 38.9907C166.571 39.7274 166.984 40.7267 166.984 41.7686V228.478C166.984 229.52 166.571 230.519 165.834 231.256C165.097 231.993 164.098 232.406 163.056 232.406ZM30.2101 37.9777C29.215 37.9795 28.2613 38.3761 27.5583 39.0804C26.8553 39.7846 26.4605 40.7391 26.4605 41.7342V228.478C26.4605 229.473 26.8553 230.428 27.5583 231.132C28.2613 231.836 29.215 232.233 30.2101 232.234H163.056C164.052 232.233 165.006 231.836 165.71 231.132C166.414 230.428 166.811 229.474 166.812 228.478V41.7342C166.811 40.7384 166.414 39.784 165.71 39.0799C165.006 38.3759 164.052 37.9795 163.056 37.9777H30.2101Z" fill="#EBEBEB"/>
<path d="M311.877 232.406H179.024C177.983 232.405 176.985 231.99 176.249 231.254C175.512 230.518 175.098 229.519 175.096 228.478V41.7342C175.107 40.6988 175.525 39.7094 176.261 38.9805C176.996 38.2516 177.989 37.8418 179.024 37.8401H311.877C312.911 37.8437 313.901 38.2544 314.634 38.9834C315.367 39.7123 315.783 40.7006 315.792 41.7342V228.478C315.792 229.518 315.38 230.515 314.646 231.251C313.912 231.987 312.917 232.403 311.877 232.406ZM179.024 37.9777C178.029 37.9795 177.074 38.3759 176.37 39.0799C175.666 39.784 175.27 40.7384 175.268 41.7342V228.478C175.27 229.474 175.666 230.428 176.37 231.132C177.074 231.836 178.029 232.233 179.024 232.234H311.877C312.873 232.233 313.827 231.836 314.531 231.132C315.236 230.428 315.632 229.474 315.634 228.478V41.7342C315.632 40.7384 315.236 39.784 314.531 39.0799C313.827 38.3759 312.873 37.9795 311.877 37.9777H179.024Z" fill="#EBEBEB"/>
<path d="M152.392 258.069H157.827V220.848H152.392V258.069Z" fill="#F0F0F0"/>
<path d="M42.4564 263.091H154.243V258.069H42.4564V263.091Z" fill="#F0F0F0"/>
<path d="M152.392 220.848H38.8651V258.069H152.392V220.848Z" fill="#F5F5F5"/>
<path d="M145.044 227.329H46.2061V248.588H145.044V227.329Z" fill="#F0F0F0"/>
<path d="M71.5864 230.17H119.678C120.578 230.17 121.308 229.44 121.308 228.54V228.237C121.308 227.337 120.578 226.607 119.678 226.607H71.5864C70.6858 226.607 69.9558 227.337 69.9558 228.237V228.54C69.9558 229.44 70.6858 230.17 71.5864 230.17Z" fill="#F5F5F5"/>
<path d="M36.3745 220.848H152.392V217.525H36.3745V220.848Z" fill="#F0F0F0"/>
<path d="M160.435 217.525H152.392V220.848H160.435V217.525Z" fill="#E6E6E6"/>
<path d="M148.243 168.429L293.707 168.429V56.8703L148.243 56.8703V168.429Z" fill="#E6E6E6"/>
<path d="M134.628 52.5288H301.936C302.27 52.5288 302.59 52.6615 302.826 52.8976C303.062 53.1337 303.195 53.4539 303.195 53.7879C303.193 54.1206 303.059 54.4391 302.824 54.6737C302.588 54.9083 302.268 55.04 301.936 55.04H134.628C134.462 55.0409 134.297 55.009 134.144 54.9462C133.99 54.8833 133.851 54.7907 133.733 54.6737C133.615 54.5567 133.522 54.4176 133.458 54.2644C133.395 54.1112 133.362 53.9469 133.362 53.781C133.363 53.6156 133.396 53.4521 133.46 53.2997C133.525 53.1473 133.618 53.009 133.736 52.8927C133.853 52.7764 133.992 52.6845 134.146 52.622C134.299 52.5596 134.463 52.5279 134.628 52.5288Z" fill="#E6E6E6"/>
<path d="M142.849 168.429L291.189 168.429V56.8703L142.849 56.8703V168.429Z" fill="#F0F0F0"/>
<path d="M148.243 168.429H293.707V172H144.528L148.243 168.429Z" fill="#E6E6E6"/>
<path d="M133.864 168.429H282.204L278.489 172H130.156L133.864 168.429Z" fill="#F0F0F0"/>
<path d="M283.635 160.882V64.4175L150.397 64.4175V160.882H283.635Z" fill="#FAFAFA"/>
<path d="M239.176 160.875L194.876 64.4175H173.954L218.261 160.875H239.176Z" fill="white"/>
<path d="M213.768 160.875L169.461 64.4175H161.308L205.616 160.875H213.768Z" fill="white"/>
<path d="M151.36 160.882V64.4175H150.404V160.882H151.36Z" fill="#E6E6E6"/>
<g opacity="0.4">
<path opacity="0.4" d="M283.552 142.327H296.542V50.2654H283.552V142.327Z" fill="#F0F0F0"/>
<path opacity="0.4" d="M278.489 142.327H288.609V50.2654H278.489V142.327Z" fill="#E6E6E6"/>
<path opacity="0.4" d="M270.563 142.327H283.552V50.2654H270.563V142.327Z" fill="#F0F0F0"/>
<path opacity="0.4" d="M265.499 142.327H275.62V50.2654H265.499V142.327Z" fill="#E6E6E6"/>
<path opacity="0.4" d="M257.566 142.327H270.556V50.2654H257.566V142.327Z" fill="#F0F0F0"/>
</g>
<g opacity="0.4">
<path opacity="0.4" d="M155.24 142.327H162.726V50.2654H155.24V142.327Z" fill="#F0F0F0"/>
<path opacity="0.4" d="M152.316 142.327H158.151V50.2654H152.316V142.327Z" fill="#E6E6E6"/>
<path opacity="0.4" d="M147.748 142.327H155.233V50.2654H147.748V142.327Z" fill="#F0F0F0"/>
<path opacity="0.4" d="M144.831 142.327H150.665V50.2654H144.831V142.327Z" fill="#E6E6E6"/>
<path opacity="0.4" d="M140.263 142.327H147.748V50.2654H140.263V142.327Z" fill="#F0F0F0"/>
</g>
<path d="M108.154 50.3274H48.3871V203.036H108.154V50.3274Z" fill="#F5F5F5"/>
<path d="M108.16 203.029H109.798L109.798 50.3203H108.16L108.16 203.029Z" fill="#E0E0E0"/>
<path d="M102.615 197.497L102.615 55.8589H53.9186L53.9186 197.497H102.615Z" fill="white"/>
<path d="M71.0635 197.497L87.2246 55.8589H96.547L80.3928 197.497H71.0635Z" fill="#FAFAFA"/>
<path d="M62.9865 197.497L79.1407 55.8589H83.8053L67.6511 197.497H62.9865Z" fill="#FAFAFA"/>
<path d="M172 294.161C245.673 294.161 305.396 290.674 305.396 286.373C305.396 282.072 245.673 278.585 172 278.585C98.3272 278.585 38.6036 282.072 38.6036 286.373C38.6036 290.674 98.3272 294.161 172 294.161Z" fill="#F5F5F5"/>
<path d="M273.858 286.373H193.5C192.381 286.385 191.271 286.164 190.241 285.724C189.212 285.283 188.286 284.633 187.521 283.815C186.757 282.997 186.171 282.029 185.802 280.972C185.432 279.915 185.287 278.793 185.375 277.677L196.589 107.693C196.777 105.351 197.83 103.163 199.543 101.555C201.257 99.9472 203.507 99.0351 205.857 98.9965H286.208C287.327 98.9854 288.436 99.2073 289.465 99.6481C290.493 100.089 291.419 100.739 292.182 101.557C292.946 102.375 293.531 103.343 293.9 104.399C294.269 105.456 294.414 106.577 294.326 107.693L283.126 277.677C282.938 280.019 281.885 282.207 280.172 283.815C278.458 285.423 276.208 286.335 273.858 286.373Z" fill="#263238"/>
<path d="M290.776 144.707H281.048C280.778 144.71 280.51 144.656 280.262 144.55C280.014 144.444 279.79 144.287 279.606 144.09C279.421 143.892 279.28 143.659 279.191 143.404C279.101 143.149 279.066 142.878 279.087 142.609L280.057 127.886C280.111 127.326 280.37 126.806 280.784 126.425C281.198 126.044 281.738 125.829 282.3 125.822H292.022C292.289 125.819 292.553 125.872 292.799 125.976C293.045 126.08 293.267 126.234 293.45 126.428C293.634 126.621 293.776 126.85 293.868 127.101C293.959 127.352 293.998 127.619 293.982 127.886L293.012 142.609C292.968 143.174 292.714 143.703 292.3 144.091C291.887 144.479 291.343 144.699 290.776 144.707Z" fill="#263238"/>
<path d="M226.889 96.5884H223.332V97.2764H226.889V96.5884Z" fill="#8EDFEB"/>
<path d="M218.949 96.5884H206.015V97.2764H218.949V96.5884Z" fill="#8EDFEB"/>
<path d="M272.634 286.373H192.275C191.156 286.384 190.047 286.162 189.018 285.722C187.989 285.281 187.063 284.631 186.299 283.813C185.535 282.995 184.949 282.027 184.579 280.971C184.209 279.915 184.063 278.793 184.15 277.677L195.392 107.693C195.58 105.351 196.633 103.163 198.346 101.555C200.06 99.9471 202.31 99.0351 204.659 98.9964H285.018C286.133 98.992 287.236 99.2189 288.259 99.6627C289.282 100.106 290.202 100.758 290.96 101.575C291.718 102.392 292.299 103.358 292.665 104.411C293.032 105.464 293.176 106.581 293.088 107.693L281.901 277.677C281.713 280.019 280.66 282.207 278.947 283.815C277.234 285.422 274.983 286.335 272.634 286.373Z" fill="#5063BF"/>
<path d="M276.28 266.573H191.264C190.628 266.579 189.998 266.454 189.413 266.203C188.828 265.953 188.302 265.584 187.868 265.119C187.434 264.655 187.101 264.105 186.891 263.504C186.681 262.904 186.598 262.267 186.648 261.633L196.41 113.644C196.516 112.317 197.111 111.077 198.08 110.164C199.048 109.251 200.322 108.731 201.653 108.704H286.69C287.326 108.697 287.956 108.823 288.541 109.073C289.125 109.324 289.652 109.693 290.086 110.157C290.52 110.622 290.853 111.172 291.063 111.772C291.273 112.372 291.356 113.01 291.306 113.644L281.543 261.633C281.437 262.963 280.84 264.206 279.866 265.12C278.893 266.033 277.615 266.551 276.28 266.573Z" fill="white"/>
<path d="M260.422 108.704H243.538L202.637 266.573H219.52L260.422 108.704Z" fill="#FAFAFA"/>
<path d="M275.296 108.704H266.855L225.953 266.573H234.395L275.296 108.704Z" fill="#FAFAFA"/>
<path d="M264.082 217.656L245.726 148.23C245.235 146.384 244.033 144.808 242.382 143.847C240.731 142.887 238.767 142.619 236.92 143.104L193.493 154.58L187.7 245.3L258.956 226.469C260.802 225.975 262.376 224.771 263.337 223.119C264.297 221.468 264.565 219.504 264.082 217.656Z" fill="#F0F0F0"/>
<path opacity="0.2" d="M236.845 278.326C239.052 276.192 239.222 272.787 237.224 270.723C235.227 268.658 231.819 268.715 229.612 270.849C227.406 272.984 227.236 276.388 229.233 278.453C231.231 280.518 234.639 280.461 236.845 278.326Z" fill="white"/>
<path opacity="0.2" d="M246.737 103.572C246.69 104.171 246.42 104.731 245.981 105.142C245.542 105.553 244.965 105.785 244.364 105.794C244.079 105.795 243.797 105.737 243.536 105.623C243.274 105.51 243.039 105.343 242.846 105.134C242.652 104.926 242.503 104.679 242.409 104.41C242.315 104.141 242.278 103.856 242.3 103.572C242.346 102.972 242.616 102.411 243.055 101.999C243.494 101.588 244.072 101.356 244.673 101.349C244.958 101.349 245.24 101.407 245.502 101.52C245.763 101.634 245.998 101.8 246.192 102.009C246.386 102.217 246.534 102.464 246.628 102.733C246.722 103.002 246.759 103.288 246.737 103.572Z" fill="white"/>
<path opacity="0.2" d="M245.733 103.571C245.709 103.901 245.562 104.21 245.321 104.437C245.08 104.664 244.763 104.792 244.433 104.796C244.275 104.799 244.118 104.768 243.973 104.706C243.828 104.644 243.697 104.553 243.59 104.437C243.482 104.322 243.4 104.185 243.348 104.036C243.297 103.887 243.277 103.729 243.291 103.571C243.315 103.242 243.462 102.933 243.702 102.706C243.943 102.479 244.26 102.351 244.591 102.347C244.749 102.344 244.905 102.375 245.05 102.437C245.196 102.499 245.326 102.59 245.434 102.705C245.542 102.821 245.624 102.958 245.675 103.107C245.727 103.256 245.746 103.414 245.733 103.571Z" fill="white"/>
<path d="M116.492 94.9852C119.058 88.6762 118.136 80.9913 110.857 79.2713C109.253 78.858 107.575 78.8264 105.956 79.1788C104.338 79.5313 102.825 80.258 101.538 81.3008C100.251 82.3436 99.2262 83.6734 98.5458 85.1836C97.8655 86.6938 97.5485 88.3424 97.6202 89.9972C97.9092 96.8772 102.436 102.608 94.5036 107.596C86.571 112.584 87.4172 127.617 102.76 124.714C118.102 121.81 109.812 113.919 109.812 113.919C109.812 113.919 106.048 116.987 104.837 113.864C103.303 109.818 113.52 102.367 116.492 94.9852Z" fill="#263238"/>
<path d="M89.4951 115.68L89.158 115.604C90.1831 111.015 91.793 109.832 93.4924 108.58C95.1917 107.328 96.8016 106.138 98.102 101.624C98.7143 99.4984 98.329 97.1454 97.9506 94.875C97.469 91.9785 96.9736 88.9789 98.4666 86.2957L98.7624 86.4677C97.3314 89.0408 97.8199 91.9717 98.2877 94.82C98.673 97.1317 99.072 99.519 98.4322 101.7C97.1044 106.323 95.3706 107.596 93.6988 108.835C92.0269 110.073 90.4927 111.222 89.4951 115.68Z" fill="#263238"/>
<path d="M136.031 129.64C136.08 129.874 136.162 130.224 136.238 130.541L136.479 131.511C136.644 132.165 136.829 132.818 137.022 133.472C137.414 134.772 137.834 136.086 138.288 137.38C139.196 139.982 140.234 142.538 141.398 145.037L142.265 146.847C142.411 147.17 142.619 147.462 142.877 147.707C143.65 148.328 144.573 148.736 145.553 148.89C148.126 149.306 150.748 149.306 153.321 148.89L154.25 151.814C153.538 152.128 152.81 152.403 152.069 152.64C151.332 152.884 150.584 153.091 149.826 153.259C148.248 153.622 146.628 153.773 145.01 153.706C143.106 153.652 141.254 153.069 139.664 152.02C138.769 151.4 138.014 150.598 137.449 149.667L137.339 149.495L137.27 149.378L137.132 149.131L136.85 148.649L136.293 147.672C134.853 145.048 133.589 142.331 132.509 139.54C131.986 138.164 131.47 136.726 131.05 135.274C130.844 134.586 130.637 133.823 130.452 133.08C130.266 132.337 130.101 131.635 129.949 130.754L136.031 129.64Z" fill="#FFBE9D"/>
<path d="M130.72 120.021C137.662 123.117 137.6 133.52 137.6 133.52L130.287 137.916C130.287 137.916 124.783 129.77 125.195 126.069C125.601 122.209 126.785 118.281 130.72 120.021Z" fill="#8EDFEB"/>
<path opacity="0.2" d="M131.814 128.897C129.915 126.977 128.243 129.193 126.716 131.649C127.763 133.821 128.956 135.919 130.287 137.93L133.286 136.128C133.878 133.837 133.706 130.823 131.814 128.897Z" fill="black"/>
<path d="M152.598 149.151L157.483 146.716L157.538 153.107C157.538 153.107 153.892 153.74 151.463 151.181L152.598 149.151Z" fill="#FFBE9D"/>
<path d="M162.733 147.851L161.893 152.598L157.538 153.107L157.483 146.716L162.733 147.851Z" fill="#FFBE9D"/>
<path d="M107.885 281.296L113.926 281.874L116.74 267.818L110.699 267.24L107.885 281.296Z" fill="#FFBE9D"/>
<path d="M68.2771 264.818L73.1894 268.396L81.3835 256.769L76.4643 253.191L68.2771 264.818Z" fill="#FFBE9D"/>
<path d="M74.992 266.16L70.9466 260.621C70.8793 260.523 70.7781 260.453 70.6625 260.425C70.547 260.397 70.4251 260.413 70.3205 260.47L65.4701 263.043C65.3502 263.112 65.2464 263.207 65.1654 263.319C65.0844 263.432 65.0281 263.56 65.0002 263.696C64.9722 263.831 64.9733 263.971 65.0033 264.107C65.0333 264.242 65.0916 264.37 65.1742 264.481C66.619 266.387 67.4102 267.233 69.1922 269.675C70.293 271.175 72.4946 274.649 74.0082 276.72C75.5218 278.791 77.6477 277.408 77.2074 276.411C75.2122 271.932 75.1434 269.311 75.2947 267.212C75.3236 266.836 75.2161 266.463 74.992 266.16Z" fill="#263238"/>
<path d="M114.724 280.05H107.472C107.342 280.051 107.215 280.094 107.112 280.173C107.009 280.253 106.935 280.365 106.901 280.491L105.326 286.208C105.287 286.343 105.281 286.486 105.307 286.624C105.333 286.762 105.391 286.892 105.477 287.004C105.563 287.116 105.673 287.206 105.8 287.267C105.927 287.328 106.066 287.359 106.207 287.357C108.766 287.357 109.977 287.357 113.162 287.357H122.911C125.56 287.357 126.11 284.681 125.016 284.433C120.104 283.346 117.27 281.846 115.749 280.415C115.466 280.168 115.099 280.038 114.724 280.05Z" fill="#263238"/>
<path opacity="0.2" d="M116.74 267.824L115.288 275.069H109.131L110.699 267.247L116.74 267.824Z" fill="black"/>
<path opacity="0.2" d="M76.4643 253.191L81.3835 256.775L77.1592 262.768L72.24 259.183L76.4643 253.191Z" fill="black"/>
<path d="M133.582 125.505C133.155 130.149 131.614 139.265 127.108 157.077L102.381 154.938C103.571 145.656 104.129 139.643 101.803 122.072C101.728 121.491 101.772 120.901 101.934 120.338C102.097 119.775 102.373 119.252 102.746 118.8C103.118 118.348 103.58 117.978 104.102 117.713C104.624 117.447 105.195 117.291 105.78 117.256C107.562 117.159 109.681 117.098 111.807 117.18C115.568 117.236 119.32 117.561 123.035 118.15C125.216 118.542 127.541 119.106 129.433 119.602C130.711 119.937 131.829 120.713 132.588 121.794C133.348 122.874 133.7 124.189 133.582 125.505Z" fill="#8EDFEB"/>
<path opacity="0.2" d="M102.436 127.218C102.753 129.97 102.987 132.426 103.124 134.628C105.402 134.428 107.08 131.931 107.252 126.709C106.399 124.184 104.37 125.099 102.436 127.218Z" fill="black"/>
<path d="M127.108 157.077C127.108 157.077 135.474 194.092 129.86 220.187C126.124 237.663 117.806 272.964 117.806 272.964L107.259 272.696C107.259 272.696 112.295 235.647 114.407 221.096C118.019 196.176 108.972 155.536 108.972 155.536L127.108 157.077Z" fill="#263238"/>
<path opacity="0.2" d="M117.462 164.556L112.185 172.874C113.774 182.736 114.783 192.683 115.206 202.664C122.622 189.386 119.107 171.58 117.462 164.556Z" fill="black"/>
<path d="M119.32 273.514L106.289 273.184L107.046 269.18L120.338 269.806L119.32 273.514Z" fill="#8EDFEB"/>
<path d="M121.7 156.685C121.7 156.685 116.795 195.935 106.152 217.367C97.5585 234.677 79.581 262.19 79.581 262.19L73.0106 256.927C73.0106 256.927 84.2525 226.496 90.6372 215C106.303 186.792 93.4993 165.292 102.381 154.938L121.7 156.685Z" fill="#263238"/>
<path d="M224.595 121.755L107.652 170.89C103.98 172.432 102.255 176.659 103.797 180.33L131.612 246.531C133.154 250.202 137.381 251.928 141.052 250.385L257.996 201.25C261.667 199.708 263.393 195.481 261.85 191.81L234.036 125.61C232.493 121.938 228.267 120.213 224.595 121.755Z" fill="#8EDFEB"/>
<path opacity="0.1" d="M224.595 121.755L107.652 170.89C103.98 172.432 102.255 176.659 103.797 180.33L131.612 246.531C133.154 250.202 137.381 251.928 141.052 250.385L257.996 201.25C261.667 199.708 263.393 195.481 261.85 191.81L234.036 125.61C232.493 121.938 228.267 120.213 224.595 121.755Z" fill="black"/>
<path opacity="0.2" d="M139.91 167.943L117.012 177.563C115.246 178.305 114.416 180.338 115.158 182.103L119.984 193.59C120.726 195.356 122.759 196.186 124.524 195.444L147.422 185.823C149.188 185.081 150.018 183.049 149.276 181.283L144.45 169.796C143.708 168.031 141.675 167.201 139.91 167.943Z" fill="white"/>
<path opacity="0.4" d="M155.977 213.35L133.542 222.776C132.88 223.054 132.569 223.816 132.847 224.478L134.55 228.531C134.828 229.194 135.59 229.505 136.252 229.227L158.687 219.8C159.349 219.522 159.66 218.76 159.382 218.098L157.679 214.045C157.401 213.383 156.639 213.072 155.977 213.35Z" fill="white"/>
<path opacity="0.4" d="M185.166 201.089L162.731 210.515C162.069 210.794 161.757 211.556 162.036 212.218L163.739 216.271C164.017 216.933 164.779 217.244 165.441 216.966L187.876 207.54C188.538 207.262 188.849 206.5 188.571 205.837L186.868 201.784C186.59 201.122 185.828 200.811 185.166 201.089Z" fill="white"/>
<path opacity="0.4" d="M214.348 188.829L191.913 198.255C191.251 198.533 190.939 199.296 191.218 199.958L192.921 204.011C193.199 204.673 193.961 204.984 194.623 204.706L217.058 195.28C217.72 195.002 218.031 194.239 217.753 193.577L216.05 189.524C215.772 188.862 215.01 188.551 214.348 188.829Z" fill="white"/>
<path opacity="0.4" d="M243.536 176.569L221.102 185.995C220.44 186.273 220.128 187.035 220.407 187.697L222.109 191.75C222.388 192.412 223.15 192.723 223.812 192.445L246.247 183.019C246.909 182.741 247.22 181.979 246.942 181.317L245.239 177.264C244.961 176.602 244.198 176.29 243.536 176.569Z" fill="white"/>
<path d="M80.2689 262.919L71.8409 256.541L73.9118 252.84L82.8696 259.789L80.2689 262.919Z" fill="#8EDFEB"/>
<path d="M102.134 153.458L100.826 155.577C100.723 155.735 100.916 155.935 101.198 155.956L127.136 158.199C127.356 158.199 127.548 158.123 127.576 157.985L127.989 155.791C128.023 155.639 127.837 155.495 127.597 155.474L102.553 153.307C102.476 153.294 102.397 153.302 102.324 153.328C102.251 153.355 102.185 153.4 102.134 153.458Z" fill="#8EDFEB"/>
<path opacity="0.5" d="M102.134 153.458L100.826 155.577C100.723 155.735 100.916 155.935 101.198 155.956L127.136 158.199C127.356 158.199 127.548 158.123 127.576 157.985L127.989 155.791C128.023 155.639 127.837 155.495 127.597 155.474L102.553 153.307C102.476 153.294 102.397 153.302 102.324 153.328C102.251 153.355 102.185 153.4 102.134 153.458Z" fill="black"/>
<path d="M105.264 156.548L104.576 156.493C104.445 156.493 104.349 156.403 104.363 156.321L104.927 153.472C104.927 153.383 105.065 153.328 105.202 153.341L105.89 153.396C106.028 153.396 106.124 153.486 106.103 153.568L105.539 156.417C105.512 156.499 105.388 156.561 105.264 156.548Z" fill="#8EDFEB"/>
<path d="M125.216 158.274L124.528 158.219C124.397 158.219 124.301 158.13 124.315 158.047L124.879 155.199C124.904 155.15 124.944 155.11 124.994 155.086C125.044 155.063 125.1 155.056 125.154 155.068L125.842 155.123C125.98 155.123 126.076 155.213 126.055 155.295L125.491 158.144C125.484 158.24 125.36 158.288 125.216 158.274Z" fill="#8EDFEB"/>
<path d="M115.24 157.414L114.552 157.352C114.414 157.352 114.318 157.263 114.339 157.18L114.903 154.332C114.903 154.25 115.04 154.188 115.171 154.201L115.859 154.263C115.99 154.263 116.086 154.353 116.072 154.435L115.508 157.284C115.495 157.366 115.378 157.421 115.24 157.414Z" fill="#8EDFEB"/>
<path d="M76.5331 269.221C76.4557 269.235 76.3766 269.235 76.2992 269.221C75.5493 269.07 74.9232 267.797 74.593 267.054C74.58 267.035 74.573 267.012 74.573 266.989C74.573 266.965 74.58 266.943 74.593 266.923C74.6108 266.91 74.6326 266.903 74.6549 266.903C74.6772 266.903 74.6989 266.91 74.7168 266.923C74.9507 267.006 77.001 267.797 77.1592 268.547C77.1782 268.628 77.1741 268.713 77.1473 268.792C77.1206 268.871 77.0723 268.941 77.0078 268.994C76.8778 269.118 76.7115 269.198 76.5331 269.221ZM74.9301 267.212C75.3979 268.237 75.9208 268.891 76.3474 268.974C76.4437 268.988 76.5421 268.978 76.6336 268.944C76.725 268.911 76.8064 268.854 76.8702 268.781C76.9046 268.755 76.9308 268.72 76.9454 268.68C76.9601 268.639 76.9627 268.596 76.9528 268.554C76.8565 268.093 75.6387 267.501 74.9301 267.212Z" fill="#8EDFEB"/>
<path d="M76.595 267.309C75.941 267.39 75.2771 267.319 74.6548 267.102C74.6358 267.094 74.6194 267.08 74.6073 267.063C74.5952 267.046 74.5879 267.027 74.586 267.006C74.5833 266.985 74.5864 266.964 74.5949 266.944C74.6034 266.925 74.617 266.908 74.6342 266.896C74.6961 266.854 76.1134 265.823 76.9665 266.015C77.0719 266.035 77.1715 266.078 77.2584 266.141C77.3452 266.204 77.417 266.286 77.4687 266.38C77.5368 266.466 77.5739 266.573 77.5739 266.682C77.5739 266.792 77.5368 266.899 77.4687 266.985C77.224 267.191 76.915 267.306 76.595 267.309ZM74.9919 266.944C75.6799 267.143 76.9665 267.157 77.283 266.806C77.338 266.751 77.3862 266.662 77.283 266.483C77.249 266.419 77.2011 266.364 77.1427 266.321C77.0844 266.278 77.0171 266.249 76.9459 266.235C76.3679 266.118 75.3772 266.689 74.9919 266.944Z" fill="#8EDFEB"/>
<path d="M117.944 281.22C117.277 281.203 116.613 281.12 115.962 280.972C115.94 280.963 115.922 280.947 115.908 280.926C115.895 280.906 115.888 280.883 115.888 280.859C115.888 280.835 115.895 280.811 115.908 280.791C115.922 280.771 115.94 280.755 115.962 280.745C116.265 280.601 118.893 279.369 119.554 279.837C119.615 279.876 119.664 279.932 119.694 279.997C119.725 280.063 119.736 280.137 119.726 280.208C119.724 280.343 119.691 280.476 119.629 280.595C119.567 280.715 119.477 280.818 119.368 280.896C118.94 281.153 118.441 281.267 117.944 281.22ZM116.375 280.807C117.16 280.951 118.604 281.144 119.196 280.697C119.273 280.637 119.336 280.561 119.381 280.474C119.426 280.387 119.452 280.292 119.457 280.195C119.457 280.098 119.457 280.057 119.396 280.036C119.024 279.782 117.469 280.325 116.375 280.807Z" fill="#8EDFEB"/>
<path d="M115.99 280.972C115.966 280.982 115.939 280.982 115.914 280.972C115.896 280.959 115.883 280.941 115.876 280.92C115.868 280.899 115.867 280.877 115.873 280.855C115.873 280.738 116.492 278.144 117.937 278.31C118.295 278.358 118.391 278.53 118.412 278.674C118.501 279.362 116.843 280.669 116.045 280.993L115.99 280.972ZM117.792 278.516C116.877 278.516 116.348 280.03 116.169 280.635C117.029 280.181 118.233 279.101 118.157 278.681C118.157 278.647 118.157 278.55 117.889 278.523L117.792 278.516Z" fill="#8EDFEB"/>
<path d="M105.12 127.342L104.755 127.858L104.356 128.443C104.088 128.842 103.819 129.248 103.565 129.667C103.042 130.493 102.567 131.353 102.085 132.213C101.135 133.943 100.298 135.733 99.5812 137.572C98.8585 139.401 98.2542 141.274 97.7717 143.18L97.4484 144.556C97.4484 144.514 97.4071 144.659 97.4828 144.92C97.7196 145.656 98.0651 146.351 98.5079 146.984C99.6193 148.582 100.867 150.081 102.237 151.463C103.613 152.922 105.14 154.332 106.661 155.736C108.181 157.139 109.777 158.488 111.373 159.815C112.97 161.143 114.6 162.485 116.189 163.778L114.469 166.317C110.784 164.131 107.226 161.738 103.812 159.148C102.092 157.855 100.407 156.492 98.7762 155.02C97.0664 153.522 95.5065 151.86 94.1185 150.06C93.2865 149.002 92.6356 147.814 92.1921 146.544C91.891 145.66 91.7899 144.72 91.8962 143.792V143.599V143.496L91.9306 143.29L91.9994 142.87L92.1439 142.038C92.5487 139.822 93.1191 137.639 93.8501 135.508C94.6062 133.388 95.5003 131.32 96.5265 129.316C97.0425 128.312 97.6066 127.342 98.2121 126.386C98.5079 125.904 98.8175 125.429 99.1409 124.955L99.65 124.267C99.8289 124.026 99.9802 123.812 100.221 123.517L105.12 127.342Z" fill="#FFBE9D"/>
<path d="M104.507 117.648C99.7875 118.886 95.2329 130.328 95.2329 130.328L101.342 135.914C101.342 135.914 110.94 127.163 110.617 123.214C110.348 119.856 108.298 116.643 104.507 117.648Z" fill="#8EDFEB"/>
<path opacity="0.2" d="M111.807 116.96C110.942 117.137 110.061 117.217 109.179 117.201C108.993 120.599 111.174 123.881 116.533 128.284C117.82 124.273 120.661 123.407 120.661 123.407L111.807 116.96Z" fill="black"/>
<path opacity="0.2" d="M123.035 118.04C123.035 118.04 123.661 118.129 125.154 118.473C126.152 120.008 127.445 124.734 124.507 128.105C123.365 123.977 120.641 123.455 120.641 123.455L123.035 118.04Z" fill="black"/>
<path d="M111.807 116.96C111.807 116.96 110.431 116.96 108.752 116.96C107.755 118.494 111.188 122.746 116.54 127.149C117.827 123.138 120.668 123.379 120.668 123.379L111.807 116.96Z" fill="white"/>
<path d="M123.035 118.04C123.035 118.04 123.661 118.129 125.154 118.473C126.152 120.008 128.305 124.163 125.367 127.507C124.225 123.379 120.641 123.434 120.641 123.434L123.035 118.04Z" fill="white"/>
<path d="M114.015 104.61C114.414 108.284 114.545 114.93 111.807 117.159C111.807 117.159 113.231 121.287 120.641 123.434C125.099 120.861 123.035 118.13 123.035 118.13C119.093 116.822 119.457 113.843 120.4 111.091L114.015 104.61Z" fill="#FFBE9D"/>
<path opacity="0.2" d="M116.616 107.259L120.4 111.091C120.168 111.728 119.993 112.384 119.877 113.052C118.357 112.701 116.155 111.119 116.134 109.495C116.162 108.727 116.325 107.97 116.616 107.259Z" fill="black"/>
<path d="M122.381 89.9283C123.585 88.6005 125.973 90.293 126.853 93.5472C128.174 98.3632 124.652 98.7072 122.808 96.2992C120.964 93.8912 121.377 91.036 122.381 89.9283Z" fill="#263238"/>
<path d="M126.11 98.3839C127.318 98.8019 128.461 99.3904 129.502 100.131C128.904 98.6729 128.367 97.7853 126.11 98.3839Z" fill="#263238"/>
<path d="M126.805 98.6109C127.783 98.4162 128.784 98.3606 129.777 98.4458C128.8 97.6958 128.092 97.3243 126.805 98.6109Z" fill="#263238"/>
<path d="M110.768 98.8724C112.302 104.741 112.832 107.259 116.423 109.715C121.838 113.417 128.711 110.252 128.966 104.039C129.193 98.4527 126.647 89.7976 120.366 88.573C118.981 88.292 117.548 88.3708 116.203 88.802C114.858 89.2331 113.646 90.0021 112.683 91.0355C111.72 92.0688 111.038 93.332 110.703 94.7041C110.368 96.0762 110.39 97.5113 110.768 98.8724Z" fill="#FFBE9D"/>
<path d="M113.603 91.1324L111.903 93.107C111.393 93.6904 110.674 94.0493 109.901 94.106C109.129 94.1626 108.365 93.9125 107.775 93.4097C107.191 92.9008 106.831 92.182 106.773 91.4093C106.715 90.6365 106.964 89.8721 107.466 89.2817L109.165 87.314C109.675 86.7312 110.393 86.3721 111.166 86.3142C111.938 86.2563 112.702 86.5041 113.293 87.0044C113.876 87.5143 114.235 88.2328 114.293 89.005C114.351 89.7772 114.103 90.5413 113.603 91.1324Z" fill="white"/>
<path d="M115.171 93.3339L113.107 94.3659C112.26 94.7808 111.283 94.8437 110.39 94.5407C109.497 94.2378 108.759 93.5937 108.339 92.7491C107.924 91.901 107.861 90.9231 108.164 90.0286C108.467 89.1342 109.111 88.3958 109.956 87.9744L112.02 86.9424C112.869 86.5277 113.848 86.4656 114.742 86.7698C115.637 87.074 116.375 87.7198 116.795 88.5661C117.209 89.414 117.271 90.3916 116.967 91.285C116.663 92.1785 116.017 92.9151 115.171 93.3339Z" fill="#8EDFEB"/>
<path d="M112.529 103.262C112.529 103.262 116.767 102.292 114.965 96.0929C114.897 95.8543 114.886 95.6035 114.93 95.3597C114.975 95.1159 115.075 94.8856 115.222 94.6863C115.37 94.4871 115.561 94.3242 115.781 94.2103C116.001 94.0963 116.244 94.0342 116.492 94.0289C121.267 93.8981 125.732 92.9005 125.099 90.1348C124.308 86.6397 112.412 83.9428 110.252 90.9397C106.035 91.9236 105.876 100.235 112.529 103.262Z" fill="#263238"/>
<path d="M112.55 102.037C113.758 102.455 114.9 103.044 115.942 103.785C115.343 102.34 114.807 101.452 112.55 102.037Z" fill="#263238"/>
<path d="M113.245 102.278C114.223 102.083 115.223 102.028 116.217 102.113C115.247 101.377 114.538 100.998 113.245 102.278Z" fill="#263238"/>
<path d="M109.805 103.482C110.354 104.518 111.292 105.295 112.412 105.642C113.905 106.089 114.676 104.768 114.291 103.344C113.94 102.065 112.743 100.296 111.236 100.468C110.908 100.514 110.597 100.64 110.33 100.836C110.063 101.031 109.849 101.29 109.707 101.589C109.565 101.888 109.5 102.217 109.517 102.548C109.534 102.878 109.633 103.199 109.805 103.482Z" fill="#FFBE9D"/>
<path d="M120.717 98.673C120.813 99.1546 121.15 99.4986 121.46 99.4367C121.769 99.3747 121.955 98.9275 121.865 98.4459C121.776 97.9643 121.432 97.6203 121.116 97.6823C120.799 97.7442 120.62 98.1845 120.717 98.673Z" fill="#263238"/>
<path d="M126.186 97.5926C126.282 98.0811 126.613 98.4182 126.929 98.3563C127.246 98.2944 127.425 97.854 127.328 97.3724C127.232 96.8908 126.902 96.5469 126.585 96.6088C126.269 96.6707 126.09 97.111 126.186 97.5926Z" fill="#263238"/>
<path d="M126.454 96.664L127.548 96.0999C127.548 96.0999 127.129 97.125 126.454 96.664Z" fill="#263238"/>
<path d="M124.308 98.8037C124.955 99.8237 125.74 100.75 126.64 101.556C126.43 101.786 126.172 101.967 125.884 102.085C125.597 102.204 125.286 102.258 124.975 102.244L124.308 98.8037Z" fill="#ED847E"/>
<path d="M122.739 104.521C121.721 104.534 120.737 104.157 119.987 103.468C119.965 103.445 119.953 103.414 119.953 103.382C119.953 103.35 119.965 103.319 119.987 103.296C120.01 103.274 120.041 103.261 120.073 103.261C120.105 103.261 120.136 103.274 120.159 103.296C120.622 103.704 121.175 103.998 121.773 104.152C122.371 104.306 122.996 104.317 123.599 104.184C123.63 104.178 123.662 104.185 123.688 104.203C123.714 104.221 123.731 104.249 123.737 104.28C123.742 104.311 123.735 104.343 123.717 104.369C123.699 104.395 123.672 104.412 123.641 104.418C123.345 104.484 123.042 104.519 122.739 104.521Z" fill="#263238"/>
<path d="M117.435 96.7946C117.391 96.7928 117.349 96.781 117.311 96.7602C117.256 96.7273 117.217 96.6741 117.201 96.6122C117.186 96.5502 117.196 96.4847 117.228 96.43C117.456 96.0434 117.773 95.7168 118.152 95.4774C118.531 95.2381 118.962 95.0929 119.409 95.054C119.473 95.0539 119.534 95.078 119.58 95.1216C119.626 95.1651 119.653 95.2246 119.657 95.2879C119.658 95.3195 119.653 95.351 119.641 95.3806C119.63 95.4101 119.613 95.4372 119.591 95.4602C119.57 95.4832 119.544 95.5017 119.515 95.5146C119.486 95.5276 119.455 95.5347 119.423 95.5356C119.054 95.5762 118.7 95.704 118.39 95.9086C118.08 96.1132 117.823 96.3886 117.641 96.712C117.616 96.7414 117.584 96.7642 117.548 96.7786C117.512 96.7929 117.473 96.7984 117.435 96.7946Z" fill="#263238"/>
<path d="M127.707 94.8544C127.668 94.8646 127.628 94.8646 127.59 94.8544C127.269 94.6652 126.908 94.5541 126.536 94.5302C126.164 94.5063 125.792 94.5702 125.45 94.7168C125.389 94.7478 125.318 94.7533 125.253 94.732C125.187 94.7107 125.133 94.6644 125.102 94.6033C125.071 94.5421 125.066 94.4712 125.087 94.406C125.109 94.3409 125.155 94.2868 125.216 94.2558C125.628 94.0692 126.079 93.9848 126.531 94.01C126.982 94.0351 127.421 94.169 127.81 94.4003C127.837 94.4153 127.861 94.4357 127.881 94.4602C127.9 94.4848 127.914 94.5129 127.923 94.5431C127.931 94.5732 127.933 94.6047 127.929 94.6358C127.925 94.6668 127.915 94.6967 127.899 94.7237C127.882 94.7608 127.855 94.7926 127.821 94.8156C127.787 94.8386 127.747 94.852 127.707 94.8544Z" fill="#263238"/>
<path d="M113.94 162.753L119.444 163.138L116.96 169.021C116.96 169.021 112.364 167.569 112.178 164.205L113.94 162.753Z" fill="#FFBE9D"/>
<path d="M121.556 166.468L118.893 170.486L116.967 169.021L119.464 163.138L121.556 166.468Z" fill="#FFBE9D"/>
<path d="M120.985 97.7373L122.079 97.1731C122.079 97.1731 121.659 98.1982 120.985 97.7373Z" fill="#263238"/>
</svg>
