<svg width="342" height="342" viewBox="0 0 342 342" fill="none" xmlns="http://www.w3.org/2000/svg">
<path d="M74.0704 163.127C70.4509 167.993 65.4698 171.677 59.757 173.712C54.0442 175.747 47.8562 176.042 41.9754 174.561C36.0947 173.079 30.7853 169.887 26.7187 165.388C22.652 160.889 20.0108 155.285 19.1289 149.285C18.247 143.285 19.1641 137.158 21.7642 131.68C24.3643 126.201 28.5306 121.616 33.7363 118.505C38.9421 115.394 44.9534 113.896 51.0102 114.201C57.0671 114.507 62.8974 116.601 67.7639 120.22L67.8255 120.268C74.3364 125.124 78.6519 132.367 79.823 140.404C80.9941 148.442 78.9249 156.615 74.0704 163.127Z" fill="#EBEBEB"/>
<path d="M68.229 158.757C65.474 162.467 61.6806 165.277 57.3286 166.831C52.9765 168.386 48.2613 168.614 43.7792 167.489C39.297 166.363 35.2493 163.934 32.1479 160.508C29.0464 157.082 27.0305 152.813 26.3552 148.242C25.6798 143.67 26.3753 139.001 28.3536 134.824C30.332 130.648 33.5043 127.152 37.4696 124.779C41.4348 122.405 46.0148 121.261 50.6304 121.491C55.246 121.72 59.6898 123.313 63.4 126.068H63.441C68.4059 129.764 71.6995 135.28 72.5974 141.404C73.4953 147.528 71.924 153.757 68.229 158.722V158.757Z" fill="#F5F5F5"/>
<path d="M68.6599 158.168C68.5436 158.086 69.0772 157.211 69.8501 155.549C70.9374 153.226 71.6552 150.747 71.9773 148.202C72.4545 144.451 72.0059 140.639 70.6709 137.101C69.8801 135.037 68.8049 133.094 67.4766 131.328C66.7714 130.397 65.9937 129.524 65.151 128.715C63.4178 127.044 61.4299 125.658 59.2618 124.611C57.1926 123.603 54.9837 122.911 52.709 122.559C51.6383 122.394 50.557 122.307 49.4737 122.299C47.4646 122.273 45.4603 122.503 43.5092 122.983C41.8096 123.423 40.1628 124.047 38.5981 124.844C36.3235 126.022 34.2465 127.547 32.4421 129.365C31.1494 130.658 30.5064 131.465 30.3901 131.417C30.2738 131.369 30.7526 130.412 31.9223 128.934C33.6126 126.861 35.6748 125.121 38.003 123.804C40.7863 122.216 43.8631 121.209 47.0469 120.844C50.2308 120.48 53.4555 120.765 56.5258 121.684C57.7342 122.046 58.912 122.504 60.0484 123.052C61.2166 123.619 62.3393 124.275 63.4068 125.015C64.4661 125.766 65.4675 126.596 66.4027 127.498C67.3062 128.379 68.1387 129.331 68.8925 130.343C70.799 132.909 72.1672 135.833 72.9148 138.941C73.6623 142.049 73.7739 145.276 73.2427 148.428C72.8041 151.073 71.8762 153.613 70.5067 155.918C69.4807 157.484 68.7488 158.23 68.6599 158.168Z" fill="#E0E0E0"/>
<path d="M43.2835 157.519L40.8964 160.809L37.9552 158.688L40.2808 155.487C37.4969 153.196 35.3628 150.261 34.6651 147.82L38.8854 145.405C39.7181 147.809 41.1633 149.954 43.0783 151.629L46.642 146.718C43.947 143.558 41.0879 139.824 44.1385 135.617C46.4026 132.498 50.6092 131.465 55.6434 134.304L58.01 131.041L60.9512 133.175L58.6256 136.376C60.6491 138.029 62.2504 140.139 63.2974 142.532L59.1934 145.084C58.3845 143.275 57.2216 141.647 55.7734 140.296L52.1482 145.296C54.8842 148.428 57.6612 152.136 54.6516 156.24C52.4696 159.283 48.3109 160.309 43.2835 157.519ZM49.7747 142.382L52.8048 138.202C50.9922 137.423 49.7542 137.833 49.0496 138.804C48.3451 139.776 48.776 141.027 49.7747 142.382ZM49.6926 153.141C50.4382 152.108 49.9936 150.932 49.0496 149.571L46.1016 153.634C47.8116 154.379 49.0086 154.078 49.6926 153.141Z" fill="#E0E0E0"/>
<path d="M258.196 250.221C255.056 254.444 250.734 257.64 245.776 259.406C240.819 261.172 235.45 261.429 230.347 260.143C225.244 258.858 220.637 256.088 217.108 252.184C213.579 248.28 211.287 243.417 210.522 238.211C209.757 233.004 210.552 227.688 212.809 222.934C215.065 218.18 218.68 214.201 223.197 211.502C227.715 208.802 232.931 207.503 238.187 207.768C243.442 208.033 248.502 209.851 252.724 212.991L252.779 213.032C258.428 217.246 262.171 223.531 263.187 230.505C264.203 237.479 262.408 244.57 258.196 250.221Z" fill="#EBEBEB"/>
<path d="M253.128 246.432C250.733 249.647 247.438 252.081 243.66 253.424C239.882 254.767 235.791 254.959 231.903 253.977C228.016 252.995 224.507 250.883 221.82 247.906C219.133 244.93 217.389 241.224 216.809 237.257C216.228 233.289 216.837 229.239 218.558 225.618C220.28 221.996 223.036 218.967 226.479 216.912C229.922 214.857 233.897 213.869 237.902 214.074C241.906 214.278 245.76 215.665 248.976 218.059H249.01C251.146 219.65 252.946 221.647 254.309 223.935C255.672 226.222 256.571 228.756 256.953 231.392C257.335 234.027 257.194 236.712 256.538 239.293C255.882 241.873 254.723 244.299 253.128 246.432Z" fill="#F5F5F5"/>
<path d="M253.504 245.919C253.402 245.843 253.867 245.084 254.53 243.641C255.474 241.625 256.097 239.474 256.377 237.266C256.563 235.754 256.581 234.227 256.432 232.711C256.255 230.975 255.855 229.269 255.241 227.635C254.915 226.754 254.522 225.899 254.065 225.077C253.599 224.216 253.066 223.393 252.471 222.615C251.858 221.807 251.183 221.048 250.453 220.344C249.694 219.627 248.888 218.962 248.039 218.354C247.18 217.761 246.279 217.23 245.344 216.767C243.55 215.892 241.633 215.295 239.66 214.995C238.73 214.851 237.79 214.776 236.849 214.769C233.569 214.729 230.329 215.497 227.416 217.006C225.439 218.028 223.633 219.35 222.061 220.925C220.939 222.047 220.378 222.745 220.282 222.67C220.186 222.594 220.597 221.801 221.609 220.522C223.075 218.712 224.866 217.193 226.89 216.042C228.291 215.235 229.783 214.599 231.336 214.147C233.128 213.629 234.983 213.358 236.849 213.34C237.858 213.325 238.866 213.389 239.865 213.531C240.912 213.677 241.946 213.906 242.957 214.215C246.179 215.178 249.12 216.908 251.527 219.256C252.309 220.024 253.031 220.849 253.689 221.726C254.32 222.571 254.883 223.465 255.371 224.4C255.845 225.28 256.252 226.195 256.589 227.136C257.21 228.901 257.589 230.742 257.718 232.608C257.825 234.222 257.74 235.843 257.464 237.437C257.075 239.734 256.261 241.937 255.064 243.935C254.209 245.324 253.573 245.967 253.504 245.919Z" fill="#E0E0E0"/>
<path d="M231.486 245.351L229.434 248.21L226.876 246.357L228.894 243.573C226.479 241.589 224.632 239.038 224.024 236.924L227.683 234.831C228.407 236.917 229.661 238.779 231.322 240.235L234.414 235.967C232.081 233.231 229.626 229.988 232.245 226.336C234.208 223.6 237.861 222.731 242.225 225.2L244.277 222.362L246.828 224.215L244.81 226.999C246.566 228.423 247.957 230.245 248.867 232.314L245.31 234.523C244.618 232.954 243.618 231.54 242.369 230.365L239.222 234.708C241.575 237.444 244.01 240.625 241.397 244.222C239.448 246.883 235.843 247.772 231.486 245.351ZM237.115 232.218L239.742 228.593C238.169 227.909 237.095 228.272 236.479 229.113C235.864 229.954 236.247 231.049 237.115 232.218ZM237.04 241.555C237.69 240.659 237.3 239.64 236.479 238.456L233.928 241.979C235.405 242.663 236.452 242.369 237.04 241.555Z" fill="#E0E0E0"/>
<path d="M97.3332 67.4015C96.7111 70.8017 95.0948 73.941 92.6884 76.4225C90.2821 78.904 87.194 80.6162 83.8145 81.3425C80.4351 82.0688 76.9162 81.7767 73.7028 80.503C70.4894 79.2293 67.7259 77.0313 65.7617 74.187C63.7976 71.3427 62.721 67.9797 62.6682 64.5235C62.6154 61.0673 63.5886 57.6731 65.465 54.7701C67.3413 51.867 70.0363 49.5856 73.2093 48.2143C76.3823 46.8431 79.8906 46.4435 83.2907 47.0662H83.3317C85.5865 47.4818 87.7372 48.3375 89.6612 49.5845C91.5852 50.8314 93.2446 52.4451 94.5449 54.3335C95.8451 56.2219 96.7605 58.3479 97.2389 60.5902C97.7174 62.8324 97.7494 65.1469 97.3332 67.4015Z" fill="#EBEBEB"/>
<path d="M93.2429 66.6424C92.7682 69.2332 91.5358 71.6251 89.7016 73.5156C87.8674 75.406 85.5138 76.7101 82.9385 77.2629C80.3632 77.8157 77.6817 77.5924 75.2333 76.6213C72.7849 75.6501 70.6794 73.9747 69.1832 71.8069C67.687 69.6391 66.8672 67.0763 66.8275 64.4426C66.7879 61.8089 67.5301 59.2226 68.9603 57.0107C70.3906 54.7988 72.4447 53.0608 74.8627 52.0163C77.2808 50.9718 79.9543 50.6679 82.5451 51.1429C86.0125 51.7828 89.0838 53.7737 91.0835 56.6777C93.0832 59.5817 93.8477 63.1611 93.2087 66.6287L93.2429 66.6424Z" fill="#F5F5F5"/>
<path d="M93.3181 66.2319C93.2384 65.6885 93.22 65.1378 93.2634 64.5903C93.2322 63.1296 92.9737 61.6827 92.4973 60.3016C92.1701 59.3441 91.7365 58.4264 91.2046 57.5656C90.5968 56.5951 89.8657 55.7076 89.0295 54.9254C88.11 54.0596 87.0683 53.3337 85.9378 52.7708C85.3415 52.475 84.7242 52.2235 84.091 52.0184C83.4373 51.8136 82.7699 51.6559 82.0937 51.5464C81.414 51.4484 80.7284 51.3982 80.0417 51.3959C79.3751 51.4027 78.7099 51.4576 78.0513 51.5601C77.4161 51.6604 76.7896 51.8091 76.1771 52.0047C75.588 52.1881 75.0141 52.4168 74.4603 52.6887C72.5104 53.6317 70.8235 55.0414 69.5491 56.7927C68.668 57.9661 67.9756 59.27 67.4971 60.6573C67.3727 61.1904 67.1915 61.7086 66.9568 62.2031C66.8889 61.6465 66.9426 61.0817 67.1141 60.5478C67.4561 59.0573 68.0707 57.6427 68.9267 56.3754C70.2 54.4661 71.9494 52.9218 74.002 51.8952C74.5949 51.5934 75.21 51.3373 75.8419 51.1292C76.4983 50.9092 77.1706 50.74 77.8529 50.623C78.5719 50.4999 79.2988 50.429 80.028 50.411C80.7673 50.4086 81.5058 50.4612 82.2373 50.5683C82.9676 50.6842 83.6879 50.8557 84.3919 51.0813C85.0756 51.3058 85.7411 51.5825 86.3824 51.9089C87.0017 52.2223 87.5942 52.5861 88.1539 52.9965C88.6937 53.3813 89.2015 53.809 89.6724 54.2756C90.548 55.1305 91.3048 56.099 91.9228 57.1552C92.4507 58.0784 92.8728 59.0581 93.1813 60.0759C93.6179 61.5406 93.778 63.0738 93.6533 64.5971C93.6524 65.159 93.5384 65.715 93.3181 66.2319Z" fill="#E0E0E0"/>
<path d="M80.1785 72.2922L79.7886 74.5836L77.7366 74.2348L78.1128 72.005C76.3148 71.6368 74.656 70.7718 73.3248 69.5084L74.8706 67.2101C75.9021 68.2293 77.1827 68.9604 78.5848 69.3305L79.1662 65.9105C76.9979 64.9734 74.597 63.7833 75.0964 60.8626C75.4657 58.7012 77.3536 57.1143 80.6436 57.299L81.0266 55.0281L83.0786 55.3769L82.6956 57.6068C84.1418 57.9377 85.4894 58.6057 86.6286 59.5562L85.1785 61.8954C84.313 61.1736 83.3135 60.6297 82.2373 60.2949L81.6422 63.7696C83.8173 64.6862 86.1771 65.8695 85.6847 68.7423C85.3153 70.8832 83.448 72.4564 80.1785 72.2922ZM79.6792 62.9283L80.1785 60.0281C79.0499 60.0897 78.5232 60.6095 78.4069 61.2867C78.2906 61.9638 78.831 62.4837 79.6792 62.9283ZM82.3536 68.4482C82.4767 67.7642 81.95 67.2443 81.1224 66.7929L80.6436 69.6041C81.7038 69.5494 82.2442 69.0843 82.3536 68.4413V68.4482Z" fill="#E0E0E0"/>
<path d="M323.272 302.93C323.272 303.032 260.009 303.114 181.992 303.114C103.975 303.114 40.7048 303.012 40.7048 302.93C40.7048 302.848 103.947 302.752 181.992 302.752C260.036 302.752 323.272 302.834 323.272 302.93Z" fill="#263238"/>
<path d="M124.221 87.5929C124.221 87.5929 124.816 56.9428 99.4605 41.375H179.824C179.824 41.375 202.799 59.9935 202.991 87.5929H124.221Z" fill="#EBEBEB"/>
<path d="M173.695 52.5516C173.695 52.6542 164.516 52.7363 153.175 52.7363C141.834 52.7363 132.655 52.6542 132.655 52.5516C132.655 52.449 141.834 52.3738 153.175 52.3738C164.516 52.3738 173.695 52.4559 173.695 52.5516Z" fill="#455A64"/>
<path d="M182.464 58.0987C182.464 58.1945 170.302 58.2766 155.302 58.2766C140.302 58.2766 128.141 58.1945 128.141 58.0987C128.141 58.003 140.302 57.9141 155.302 57.9141C170.302 57.9141 182.464 57.9961 182.464 58.0987Z" fill="#263238"/>
<path d="M187.033 72.1207C187.033 72.2165 174.871 72.2986 159.871 72.2986C144.871 72.2986 132.703 72.2165 132.703 72.1207C132.703 72.025 144.864 71.9429 159.871 71.9429C174.878 71.9429 187.033 72.025 187.033 72.1207Z" fill="#263238"/>
<path d="M158.647 64.4806C158.28 64.5363 157.91 64.5614 157.539 64.5558L154.502 64.6105C151.937 64.6447 148.401 64.6653 144.488 64.6653C140.576 64.6653 137.039 64.6653 134.474 64.6105L131.437 64.5558C131.067 64.5614 130.696 64.5363 130.329 64.4806C130.696 64.4271 131.067 64.4043 131.437 64.4122L134.474 64.3575C137.039 64.3575 140.576 64.3027 144.488 64.3027C148.401 64.3027 151.937 64.3027 154.502 64.3575L157.539 64.4122C157.91 64.4043 158.28 64.4271 158.647 64.4806Z" fill="#263238"/>
<path d="M182.464 64.4806C182.194 64.5364 181.919 64.5617 181.643 64.5558L179.4 64.6105C177.512 64.6447 174.892 64.6653 172.006 64.6653C169.119 64.6653 166.499 64.6653 164.611 64.6105L162.368 64.5558C162.092 64.5617 161.817 64.5364 161.547 64.4806C161.818 64.4307 162.093 64.4078 162.368 64.4122L164.611 64.3575C166.499 64.3575 169.119 64.3027 172.006 64.3027C174.892 64.3027 177.478 64.3027 179.4 64.3575L181.643 64.4122C181.918 64.4044 182.194 64.4273 182.464 64.4806Z" fill="#263238"/>
<path d="M163.688 79.638C163.319 79.694 162.946 79.7191 162.573 79.7133L159.543 79.768C156.978 79.768 153.435 79.8227 149.529 79.8227C145.624 79.8227 142.074 79.8227 139.509 79.768L136.479 79.7133C136.105 79.7191 135.733 79.694 135.364 79.638C135.733 79.5844 136.106 79.5615 136.479 79.5696L139.509 79.5149C142.074 79.5149 145.617 79.4602 149.529 79.4602C153.442 79.4602 156.978 79.4602 159.543 79.5149L162.573 79.5696C162.946 79.5615 163.319 79.5844 163.688 79.638Z" fill="#263238"/>
<path d="M187.505 79.638C187.235 79.6939 186.96 79.7191 186.684 79.7133L184.441 79.768C182.546 79.768 179.933 79.8227 177.047 79.8227C174.16 79.8227 171.575 79.8227 169.646 79.768L167.402 79.7133C167.127 79.7191 166.851 79.6939 166.581 79.638C166.852 79.5881 167.127 79.5652 167.402 79.5696L169.646 79.5149C171.54 79.5149 174.153 79.4602 177.047 79.4602C179.94 79.4602 182.519 79.4602 184.441 79.5149L186.684 79.5696C186.959 79.5652 187.234 79.5881 187.505 79.638Z" fill="#263238"/>
<path d="M107.792 86.7241H226.356L232.813 292.129C232.857 293.507 232.629 294.881 232.141 296.17C231.654 297.46 230.918 298.641 229.974 299.646C229.03 300.651 227.897 301.46 226.64 302.027C225.383 302.594 224.027 302.908 222.649 302.95H99.0295C97.2878 302.951 95.6125 302.281 94.3507 301.08C93.0889 299.88 92.3371 298.24 92.2511 296.5L86.5534 180.514C86.5534 180.514 51.389 167.751 51.984 128.811C51.984 128.811 53.5846 86.7241 107.792 86.7241Z" fill="#263238"/>
<path d="M114.228 302.642L109.057 86.7241H230.658L232.854 293.559C232.93 295.966 232.046 298.305 230.398 300.061C228.75 301.816 226.472 302.846 224.065 302.923H223.75L114.228 302.642Z" fill="#455A64"/>
<path d="M119.105 99.2346L121.567 199.769H220.604L219.27 99.2346H119.105Z" fill="#263238"/>
<path d="M130.063 112.244C134.899 113.551 141.007 112.997 145.972 112.757C146.335 112.757 146.683 112.613 146.94 112.357C147.196 112.1 147.34 111.752 147.34 111.389C147.34 111.026 147.196 110.679 146.94 110.422C146.683 110.165 146.335 110.021 145.972 110.021C141.007 109.775 134.892 109.221 130.063 110.534C129.831 110.602 129.637 110.76 129.521 110.971C129.406 111.183 129.379 111.432 129.447 111.663C129.491 111.808 129.57 111.94 129.678 112.048C129.785 112.155 129.917 112.234 130.063 112.278V112.244Z" fill="#E0E0E0"/>
<path d="M154.427 112.046C159.174 113.257 165.309 113.038 170.159 112.573C170.521 112.573 170.869 112.429 171.126 112.172C171.383 111.915 171.527 111.567 171.527 111.205C171.527 110.842 171.383 110.494 171.126 110.237C170.869 109.981 170.521 109.837 170.159 109.837C165.309 109.365 159.174 109.153 154.427 110.363C154.316 110.397 154.212 110.452 154.123 110.526C154.033 110.599 153.959 110.69 153.904 110.792C153.85 110.894 153.816 111.006 153.804 111.122C153.793 111.237 153.805 111.354 153.838 111.465C153.88 111.604 153.956 111.73 154.058 111.833C154.161 111.936 154.288 112.011 154.427 112.053V112.046Z" fill="#E0E0E0"/>
<path d="M178.462 111.615C180.85 112.34 183.428 112.217 185.904 112.258C188.433 112.408 190.969 112.36 193.49 112.114C194.728 111.936 194.728 109.782 193.49 109.611C190.969 109.359 188.433 109.308 185.904 109.46C183.428 109.501 180.85 109.378 178.462 110.103C178.299 110.15 178.154 110.25 178.052 110.386C177.949 110.522 177.894 110.688 177.894 110.859C177.894 111.03 177.949 111.196 178.052 111.332C178.154 111.468 178.299 111.568 178.462 111.615Z" fill="#E0E0E0"/>
<path d="M200.734 111.752C202.535 112.014 204.351 112.153 206.171 112.169C207.977 112.21 209.926 112.504 211.678 112.005C211.923 111.93 212.139 111.779 212.292 111.573C212.445 111.366 212.528 111.116 212.528 110.859C212.528 110.602 212.445 110.352 212.292 110.146C212.139 109.939 211.923 109.788 211.678 109.713C209.926 109.214 207.977 109.508 206.171 109.549C204.351 109.564 202.534 109.706 200.734 109.973C200.543 110.032 200.377 110.15 200.259 110.31C200.14 110.47 200.077 110.664 200.077 110.863C200.077 111.062 200.14 111.255 200.259 111.415C200.377 111.575 200.543 111.693 200.734 111.752Z" fill="#E0E0E0"/>
<path d="M150.302 211.725H121.602V232.238H150.302V211.725Z" fill="#8EDFEB"/>
<path d="M126.793 211.725H121.602V232.238H126.793V211.725Z" fill="#263238"/>
<path d="M185.446 211.725H156.745V232.238H185.446V211.725Z" fill="#8EDFEB"/>
<path d="M161.643 211.725H156.451V232.238H161.643V211.725Z" fill="#263238"/>
<path d="M220.597 211.725H191.896V232.238H220.597V211.725Z" fill="#8EDFEB"/>
<path d="M196.267 211.725H191.075V232.238H196.267V211.725Z" fill="#263238"/>
<path d="M220.597 239.017H191.896V259.53H220.597V239.017Z" fill="#8EDFEB"/>
<path d="M197.245 239.017H191.896V259.53H197.245V239.017Z" fill="#263238"/>
<path d="M150.302 239.017H121.602V259.53H150.302V239.017Z" fill="#8EDFEB"/>
<path d="M126.793 238.976H121.602V259.489H126.793V238.976Z" fill="#263238"/>
<path d="M150.302 266.035H121.602V286.548H150.302V266.035Z" fill="#8EDFEB"/>
<path opacity="0.3" d="M150.302 266.035H121.602V286.548H150.302V266.035Z" fill="black"/>
<path d="M126.793 266.035H121.602V286.548H126.793V266.035Z" fill="#263238"/>
<path d="M185.289 239.017H156.588V259.53H185.289V239.017Z" fill="#8EDFEB"/>
<path d="M161.78 238.976H156.588V259.489H161.78V238.976Z" fill="#263238"/>
<path d="M185.446 266.035H156.745V286.548H185.446V266.035Z" fill="#8EDFEB"/>
<path opacity="0.3" d="M185.446 266.035H156.745V286.548H185.446V266.035Z" fill="black"/>
<path d="M161.937 266.035H156.745V286.548H161.937V266.035Z" fill="#263238"/>
<path d="M220.597 266.035H191.896V286.548H220.597V266.035Z" fill="#E0E0E0"/>
<path d="M197.088 266.035H191.896V286.548H197.088V266.035Z" fill="#263238"/>
<path d="M104.755 302.957C104.262 302.957 102.463 254.571 100.733 194.885C99.0022 135.199 97.9967 86.7515 98.4892 86.7378C98.9817 86.7241 100.781 135.11 102.511 194.81C104.242 254.509 105.247 302.943 104.755 302.957Z" fill="#455A64"/>
<path d="M220.453 188.319V192.006L231.808 194.831L231.746 189.146L220.453 188.319Z" fill="#455A64"/>
<path d="M82.6204 180.925C81.9989 180.678 81.3317 180.569 80.6641 180.603C79.9921 180.666 79.333 180.827 78.7079 181.082L70.9377 183.681L55.7529 188.784L27.0249 198.36C25.8913 198.684 24.9171 199.414 24.2889 200.412C23.6663 201.388 23.4343 202.562 23.6391 203.702C23.7647 204.267 23.9293 204.822 24.1315 205.364L24.6856 207.019C25.0549 208.12 25.4175 209.208 25.7868 210.296C27.2278 214.623 28.6323 218.825 30.0003 222.902C32.7363 231.041 35.2534 238.634 37.5721 245.535C42.1823 259.373 45.9238 270.577 48.5161 278.319C49.8021 282.191 50.7939 285.194 51.4779 287.211C51.8062 288.231 52.0661 289.003 52.2371 289.53C52.4081 290.057 52.4833 290.324 52.4833 290.324C52.575 290.585 52.6918 290.837 52.8322 291.076C53.2266 291.789 53.7963 292.389 54.4875 292.82C55.0475 293.167 55.673 293.395 56.3251 293.489C56.9771 293.583 57.6415 293.542 58.2768 293.367C59.7679 292.889 61.4779 292.287 63.4137 291.644L91.9775 282.013L61.5121 186.869L76.7517 181.759L104.269 266.076L103.065 236.746C97.5247 220.241 91.5397 202.395 85.2811 183.77C85.0689 183.132 84.7213 182.547 84.262 182.056C83.8027 181.565 83.2427 181.179 82.6204 180.925ZM47.5038 224.27L40.7049 202.751L43.0099 202.019L49.8089 223.538L47.5038 224.27ZM52.2234 212.416L48.2562 199.871L50.5613 199.146L54.5285 211.684L52.2234 212.416ZM57.5449 228.326L53.5846 215.781L55.8897 215.056L59.85 227.594L57.5449 228.326ZM58.9129 231.691L61.218 230.959L72.162 265.693L69.8569 266.418L58.9129 231.691ZM73.2769 277.136L70.9308 269.715L73.2359 268.983L75.582 276.411L73.2769 277.136ZM82.764 273.196L80.4589 273.921L65.9787 228.093L68.2837 227.368L82.764 273.196ZM67.1004 222.984L64.7953 223.709L56.3958 197.149L58.7009 196.417L67.1004 222.984Z" fill="#8EDFEB"/>
<path opacity="0.3" d="M82.6204 180.925C81.9989 180.678 81.3317 180.569 80.6641 180.603C79.9921 180.666 79.333 180.827 78.7079 181.082L70.9377 183.681L55.7529 188.784L27.0249 198.36C25.8913 198.684 24.9171 199.414 24.2889 200.412C23.6663 201.388 23.4343 202.562 23.6391 203.702C23.7647 204.267 23.9293 204.822 24.1315 205.364L24.6856 207.019C25.0549 208.12 25.4175 209.208 25.7868 210.296C27.2278 214.623 28.6323 218.825 30.0003 222.902C32.7363 231.041 35.2534 238.634 37.5721 245.535C42.1823 259.373 45.9238 270.577 48.5161 278.319C49.8021 282.191 50.7939 285.194 51.4779 287.211C51.8062 288.231 52.0661 289.003 52.2371 289.53C52.4081 290.057 52.4833 290.324 52.4833 290.324C52.575 290.585 52.6918 290.837 52.8322 291.076C53.2266 291.789 53.7963 292.389 54.4875 292.82C55.0475 293.167 55.673 293.395 56.3251 293.489C56.9771 293.583 57.6415 293.542 58.2768 293.367C59.7679 292.889 61.4779 292.287 63.4137 291.644L91.9775 282.013L61.5121 186.869L76.7517 181.759L104.269 266.076L103.065 236.746C97.5247 220.241 91.5397 202.395 85.2811 183.77C85.0689 183.132 84.7213 182.547 84.262 182.056C83.8027 181.565 83.2427 181.179 82.6204 180.925ZM47.5038 224.27L40.7049 202.751L43.0099 202.019L49.8089 223.538L47.5038 224.27ZM52.2234 212.416L48.2562 199.871L50.5613 199.146L54.5285 211.684L52.2234 212.416ZM57.5449 228.326L53.5846 215.781L55.8897 215.056L59.85 227.594L57.5449 228.326ZM58.9129 231.691L61.218 230.959L72.162 265.693L69.8569 266.418L58.9129 231.691ZM73.2769 277.136L70.9308 269.715L73.2359 268.983L75.582 276.411L73.2769 277.136ZM82.764 273.196L80.4589 273.921L65.9787 228.093L68.2837 227.368L82.764 273.196ZM67.1004 222.984L64.7953 223.709L56.3958 197.149L58.7009 196.417L67.1004 222.984Z" fill="black"/>
<path d="M91.998 282.143L91.9638 282.033L63.4 291.664C61.4643 292.307 59.7543 292.909 58.2631 293.388C57.6279 293.562 56.9634 293.604 56.3114 293.51C55.6594 293.415 55.0338 293.188 54.4738 292.841C53.7826 292.41 53.2129 291.809 52.8185 291.097C52.5517 290.618 52.4902 290.337 52.4697 290.344L52.5381 290.542C52.8965 291.514 53.5647 292.341 54.4396 292.895C55.0035 293.257 55.6371 293.496 56.2992 293.597C56.9614 293.699 57.6374 293.66 58.2837 293.484C59.7885 293.012 61.4985 292.423 63.441 291.781L96.2251 280.836L104.002 278.237L104.755 277.854L91.998 282.143Z" fill="#263238"/>
<path d="M52.2234 289.544C52.0524 289.017 51.7925 288.244 51.4642 287.225C50.7802 285.173 49.7884 282.177 48.5025 278.333C45.9238 270.59 42.1823 259.386 37.5585 245.549C35.2397 238.634 32.7089 231.055 29.9866 222.915C28.6186 218.848 27.2141 214.646 25.7731 210.309C25.4038 209.222 25.0413 208.134 24.6719 207.033L24.1179 205.378C23.9156 204.836 23.751 204.28 23.6254 203.716C23.4306 202.572 23.6749 201.397 24.3094 200.425C24.9377 199.428 25.9119 198.697 27.0454 198.373L55.7734 188.797L70.9582 183.709L78.7284 181.109C79.3535 180.855 80.0126 180.693 80.6847 180.631C81.6952 180.577 82.6954 180.856 83.5319 181.426C84.3684 181.996 84.9949 182.824 85.3153 183.784C91.5602 202.409 97.5452 220.255 103.099 236.76L103.051 235.651C97.6205 219.427 91.7518 201.93 85.6437 183.667C85.4135 182.984 85.0381 182.359 84.5434 181.835C84.0487 181.311 83.4463 180.9 82.7777 180.631C82.1114 180.364 81.3944 180.247 80.6778 180.289C79.9736 180.353 79.2824 180.518 78.6258 180.781L70.8624 183.387L55.6776 188.476L26.9496 198.107C25.7479 198.437 24.7103 199.2 24.0358 200.248C23.3782 201.291 23.1342 202.543 23.3518 203.757C23.482 204.335 23.6511 204.904 23.8579 205.46C24.0426 206.014 24.2341 206.561 24.4188 207.115C24.7813 208.209 25.1507 209.304 25.5132 210.385C26.9724 214.717 28.3837 218.919 29.7472 222.991L37.3464 245.597L48.3793 278.347C49.6926 282.205 50.7049 285.187 51.3958 287.239C51.7446 288.251 52.0114 289.024 52.1892 289.551L52.4697 290.337C52.4697 290.337 52.3944 290.071 52.2234 289.544Z" fill="#263238"/>
<path d="M68.2597 227.38L65.9574 228.107L80.4407 273.931L82.7429 273.203L68.2597 227.38Z" fill="#FAFAFA"/>
<path d="M58.6982 196.417L56.3959 197.145L64.7961 223.722L67.0983 222.994L58.6982 196.417Z" fill="#FAFAFA"/>
<path d="M50.5634 199.142L48.2612 199.87L52.2252 212.412L54.5275 211.684L50.5634 199.142Z" fill="#FAFAFA"/>
<path d="M42.5821 201.373L40.2862 202.099L47.0603 223.544L49.3561 222.819L42.5821 201.373Z" fill="#FAFAFA"/>
<path d="M73.2627 268.977L70.9604 269.705L73.3062 277.127L75.6085 276.399L73.2627 268.977Z" fill="#FAFAFA"/>
<path d="M55.8837 215.055L53.5814 215.783L57.5455 228.324L59.8477 227.597L55.8837 215.055Z" fill="#FAFAFA"/>
<path d="M61.1905 230.978L58.8883 231.706L69.8651 266.436L72.1674 265.708L61.1905 230.978Z" fill="#FAFAFA"/>
<path d="M61.5121 186.869L91.9638 282.034L91.998 282.143L104.755 277.868L104.269 266.062L76.7517 181.759L61.5121 186.869Z" fill="#FAFAFA"/>
<path d="M91.827 287.827L104.194 283.477L103.927 278.053L91.998 282.143L91.827 287.827Z" fill="#263238"/>
<path d="M247.752 130.377C247.752 130.473 247.369 130.535 246.89 130.514C246.411 130.494 246.042 130.398 246.048 130.295C246.055 130.193 246.438 130.138 246.91 130.159C247.382 130.179 247.758 130.275 247.752 130.377Z" fill="#263238"/>
<path d="M254.448 130.09C253.922 130.311 253.356 130.416 252.786 130.398C252.226 130.502 251.65 130.485 251.096 130.35C252.183 130.028 253.325 129.94 254.448 130.09Z" fill="#263238"/>
<path d="M261.083 128.907C260.59 129.193 260.042 129.373 259.475 129.433C258.932 129.605 258.36 129.666 257.793 129.611C258.829 129.153 259.95 128.92 261.083 128.927V128.907Z" fill="#263238"/>
<path d="M267.478 126.862C267.029 127.209 266.511 127.458 265.96 127.593C265.447 127.84 264.887 127.976 264.318 127.99C264.766 127.64 265.284 127.39 265.837 127.258C266.352 127.018 266.91 126.883 267.478 126.862Z" fill="#263238"/>
<path d="M273.545 123.968C272.669 124.686 271.654 125.215 270.563 125.521C270.965 125.117 271.444 124.798 271.972 124.584C272.448 124.272 272.984 124.062 273.545 123.968Z" fill="#263238"/>
<path d="M279.134 120.24C279.195 120.316 278.634 120.822 277.875 121.369C277.451 121.748 276.952 122.034 276.411 122.21C276.356 122.128 276.917 121.622 277.67 121.075C278.422 120.528 279.072 120.158 279.134 120.24Z" fill="#263238"/>
<path d="M284.072 115.685C284.147 115.753 283.668 116.369 283.012 116.998C282.355 117.628 281.76 118.134 281.699 118.058C281.637 117.983 282.102 117.374 282.759 116.745C283.415 116.116 283.997 115.596 284.072 115.685Z" fill="#263238"/>
<path d="M288.155 110.357C288.244 110.405 287.875 111.041 287.342 111.834C286.808 112.627 286.309 113.202 286.233 113.113C286.403 112.569 286.68 112.064 287.047 111.629C287.581 110.876 288.073 110.302 288.155 110.357Z" fill="#263238"/>
<path d="M291.165 104.351C290.933 105.463 290.466 106.512 289.797 107.429C290.015 106.313 290.482 105.261 291.165 104.351Z" fill="#263238"/>
<path d="M292.944 97.8806C292.994 98.4469 292.927 99.0176 292.745 99.5564C292.679 100.123 292.492 100.668 292.198 101.157C292.211 100.024 292.465 98.9073 292.944 97.8806Z" fill="#263238"/>
<path d="M293.627 91.1978C293.801 92.3171 293.728 93.4607 293.415 94.5494C293.277 93.9992 293.253 93.4263 293.347 92.8667C293.327 92.2972 293.422 91.7295 293.627 91.1978Z" fill="#263238"/>
<path d="M293.292 84.4946C293.632 85.575 293.732 86.7163 293.586 87.8394C293.368 87.3152 293.258 86.752 293.265 86.1841C293.161 85.6248 293.17 85.0503 293.292 84.4946Z" fill="#263238"/>
<path d="M291.931 77.9146C292.232 78.3981 292.429 78.9383 292.513 79.5014C292.706 80.0378 292.785 80.6085 292.745 81.1772C292.445 80.6936 292.247 80.1535 292.164 79.5904C291.974 79.053 291.895 78.4831 291.931 77.9146Z" fill="#263238"/>
<path d="M289.496 71.656C289.875 72.0803 290.162 72.5788 290.337 73.1198C290.623 73.6146 290.798 74.1652 290.85 74.734C290.475 74.305 290.189 73.8049 290.009 73.2634C289.73 72.7684 289.555 72.2213 289.496 71.656Z" fill="#263238"/>
<path d="M285.912 65.9719C285.987 65.9103 286.48 66.478 287.02 67.2441C287.391 67.6749 287.668 68.178 287.834 68.7215C287.752 68.7763 287.253 68.2017 286.726 67.4493C286.355 67.0185 286.078 66.5154 285.912 65.9719Z" fill="#263238"/>
<path d="M281.254 61.1566C281.316 61.0813 281.938 61.4917 282.622 62.1278C283.306 62.764 283.771 63.3659 283.703 63.4343C283.634 63.5027 283.06 63.017 282.383 62.3878C281.705 61.7585 281.192 61.2318 281.254 61.1566Z" fill="#263238"/>
<path d="M277.075 58.2702C277.123 58.1881 277.492 58.3181 277.896 58.5643C278.299 58.8105 278.58 59.0773 278.532 59.1594C278.484 59.2415 278.108 59.1115 277.711 58.8721C277.314 58.6327 277.02 58.3591 277.075 58.2702Z" fill="#263238"/>
<path d="M258.525 75.1649C271.61 75.1649 282.218 64.5568 282.218 51.4711C282.218 38.3854 271.61 27.7773 258.525 27.7773C245.439 27.7773 234.831 38.3854 234.831 51.4711C234.831 64.5568 245.439 75.1649 258.525 75.1649Z" fill="#5064BF"/>
<path d="M244.509 53.2017L248.176 49.5354L255.248 55.8214L269.133 42.4629L272.54 46.1291L254.728 62.894L244.509 53.2017Z" fill="#FAFAFA"/>
<path d="M272.348 154.775L268.86 141.991C268.86 141.991 252.444 146.266 251.397 144.939C245.44 137.573 242.43 127.45 241.493 123.818C241.623 123.298 241.801 122.689 242.04 121.978C242.248 121.369 242.558 120.8 242.957 120.295C243.428 119.652 243.985 119.077 244.612 118.585C244.782 118.489 244.908 118.329 244.96 118.14C245.013 117.952 244.989 117.75 244.893 117.579C244.844 117.484 244.773 117.402 244.686 117.339C244.599 117.276 244.499 117.234 244.393 117.217C243.709 117.169 241.986 118.209 240.693 120.186C239.4 122.162 239.01 118.469 238.846 117.128C238.682 115.787 237.964 111.656 237.512 111.362C236.828 110.958 236.288 111.594 236.486 112.935C236.685 114.276 236.992 118.339 236.281 118.407C235.57 118.476 234.817 111.567 234.817 111.567C234.817 111.567 234.892 110.076 234.065 110.11C232.567 110.172 233.914 117.408 234.065 118.099C234.167 118.571 233.381 118.66 233.312 118.14C233.244 117.621 232.71 111.3 231.192 111.3C230.022 111.341 232.239 117.265 231.616 118.64C230.994 120.015 230.392 113.975 229.277 114.057C228.866 114.057 228.559 114.166 229.407 117.586C230.12 120.024 230.965 122.422 231.938 124.768H231.876C231.876 124.768 237.964 160.487 253.764 158.49C270.584 156.41 272.348 154.775 272.348 154.775Z" fill="#FFBE9D"/>
<path d="M248.511 190.213L148.257 182.915C146.898 182.82 145.632 182.192 144.735 181.166C143.838 180.141 143.383 178.803 143.469 177.443L147.956 115.849C148.051 114.49 148.68 113.224 149.705 112.327C150.73 111.43 152.068 110.975 153.428 111.061L253.764 118.332C255.13 118.428 256.402 119.063 257.299 120.097C258.197 121.131 258.648 122.479 258.552 123.845L254.065 185.439C254.018 186.115 253.838 186.775 253.536 187.382C253.234 187.988 252.815 188.529 252.304 188.974C251.793 189.419 251.199 189.758 250.556 189.973C249.913 190.188 249.235 190.275 248.559 190.227L248.511 190.213Z" fill="#8EDFEB"/>
<path d="M248.511 190.214C248.819 190.214 249.12 190.214 249.427 190.214C250.325 190.117 251.18 189.782 251.903 189.242C252.488 188.809 252.973 188.256 253.327 187.62C253.68 186.984 253.895 186.28 253.955 185.555C254.079 183.818 254.222 181.814 254.38 179.564L257.116 141.417C257.403 137.39 257.706 133.175 258.025 128.77C258.107 127.675 258.183 126.56 258.265 125.446C258.457 124.341 258.429 123.209 258.183 122.114C257.873 121.025 257.196 120.075 256.267 119.426C255.801 119.096 255.284 118.847 254.735 118.688C254.169 118.558 253.592 118.482 253.012 118.462L222.772 116.28L153.49 111.211C152.748 111.157 152.004 111.27 151.311 111.541C150.619 111.812 149.996 112.235 149.488 112.778C148.981 113.318 148.602 113.966 148.38 114.673C148.188 115.396 148.087 116.14 148.079 116.889C147.851 119.926 147.623 122.94 147.395 125.931C146.939 131.918 146.511 137.81 146.109 143.606C145.261 155.193 144.44 166.376 143.661 177.019C143.482 178.312 143.805 179.624 144.563 180.685C145.31 181.731 146.433 182.447 147.696 182.683C150.247 182.936 152.833 183.073 155.35 183.278L170.022 184.352L196.37 186.294L234.509 189.126L244.872 189.919L247.608 190.152L248.525 190.234C248.525 190.234 248.217 190.234 247.608 190.186L244.872 190.008L234.503 189.29L196.349 186.554L170.022 184.68L155.343 183.62C152.819 183.421 150.282 183.291 147.655 183.032C146.31 182.782 145.114 182.023 144.317 180.911C143.518 179.786 143.174 178.401 143.353 177.033C144.126 166.383 144.94 155.206 145.781 143.613C146.2 137.817 146.627 131.925 147.06 125.938C147.279 122.942 147.507 119.928 147.744 116.896C147.756 116.12 147.862 115.348 148.059 114.597C148.421 113.454 149.159 112.467 150.151 111.794C151.144 111.122 152.335 110.803 153.531 110.89L222.813 115.952L253.046 118.168C253.645 118.189 254.241 118.269 254.824 118.407C255.69 118.657 256.48 119.12 257.121 119.753C257.763 120.386 258.236 121.17 258.497 122.032C258.662 122.596 258.729 123.184 258.696 123.77C258.696 124.344 258.62 124.898 258.579 125.466C258.497 126.581 258.415 127.696 258.333 128.79C258.009 133.191 257.699 137.404 257.403 141.431C256.206 157.532 255.235 170.562 254.564 179.577C254.393 181.828 254.243 183.818 254.113 185.562C254.046 186.301 253.82 187.017 253.452 187.662C253.084 188.306 252.581 188.864 251.979 189.297C251.245 189.838 250.376 190.167 249.468 190.248C249.241 190.268 249.012 190.268 248.784 190.248L248.511 190.214Z" fill="#263238"/>
<path d="M154.81 157.32L154.365 163.476L153.736 163.428L154.139 157.853L152.696 157.751L152.737 157.19L154.81 157.32Z" fill="#FAFAFA"/>
<path d="M160.74 163.373L160.692 163.934L156.39 163.62V163.175L159.126 160.863C159.864 160.227 160.029 159.83 160.056 159.406C160.111 158.722 159.639 158.223 158.688 158.154C158.377 158.11 158.06 158.137 157.761 158.234C157.462 158.331 157.19 158.496 156.964 158.715L156.547 158.298C156.843 158.02 157.198 157.811 157.584 157.687C157.971 157.562 158.381 157.526 158.784 157.58C160.029 157.669 160.774 158.36 160.699 159.386C160.654 159.759 160.528 160.118 160.33 160.437C160.131 160.756 159.865 161.028 159.55 161.232L157.32 163.127L160.74 163.373Z" fill="#FAFAFA"/>
<path d="M167.252 162.792L166.027 162.703L165.904 164.317L165.275 164.269L165.391 162.655L161.93 162.409V161.951L165.48 158.12L166.164 158.168L162.744 161.903L165.412 162.101L165.514 160.678L166.13 160.719L166.027 162.142L167.252 162.231V162.792Z" fill="#FAFAFA"/>
<path d="M176.657 163.476L175.432 163.387L175.309 165.001L174.68 164.953L174.796 163.346L171.335 163.093V162.635L174.885 158.804L175.569 158.859L172.149 162.587L174.817 162.785L174.919 161.362L175.535 161.41L175.425 162.826L176.657 162.915V163.476Z" fill="#FAFAFA"/>
<path d="M182.033 163.674C181.958 164.721 181.171 165.48 179.673 165.371C178.863 165.343 178.096 165.002 177.532 164.42L177.874 163.948C178.351 164.459 179.009 164.763 179.707 164.796C180.747 164.871 181.335 164.399 181.39 163.654C181.445 162.908 180.993 162.341 179.434 162.224L178.127 162.129L178.668 159.078L182.026 159.324L181.985 159.885L179.181 159.68L178.825 161.616L179.618 161.677C181.465 161.807 182.115 162.587 182.033 163.674Z" fill="#FAFAFA"/>
<path d="M188.1 164.092C188.058 164.595 187.819 165.062 187.435 165.39C187.05 165.718 186.552 165.88 186.048 165.843H185.884C184.249 165.726 183.449 164.529 183.592 162.594C183.743 160.507 184.96 159.502 186.629 159.625C187.137 159.639 187.631 159.79 188.059 160.063L187.765 160.555C187.42 160.319 187.013 160.189 186.595 160.179C185.268 160.083 184.359 160.863 184.235 162.532V163.038C184.436 162.712 184.727 162.452 185.073 162.289C185.42 162.126 185.806 162.068 186.185 162.122C186.672 162.105 187.146 162.281 187.505 162.611C187.863 162.941 188.077 163.4 188.1 163.886C188.107 163.955 188.107 164.023 188.1 164.092ZM187.478 164.092C187.539 163.284 186.978 162.724 186.034 162.655C185.851 162.621 185.662 162.622 185.479 162.661C185.296 162.699 185.122 162.773 184.968 162.878C184.814 162.984 184.682 163.119 184.579 163.275C184.477 163.432 184.407 163.607 184.372 163.791C184.372 163.791 184.372 163.852 184.372 163.88C184.317 164.564 184.837 165.248 185.898 165.316C186.075 165.346 186.257 165.341 186.432 165.301C186.608 165.261 186.774 165.187 186.92 165.083C187.067 164.979 187.192 164.847 187.288 164.694C187.383 164.542 187.448 164.372 187.478 164.194C187.481 164.151 187.481 164.107 187.478 164.064V164.092Z" fill="#FAFAFA"/>
<path d="M196.493 164.775C196.417 165.801 195.617 166.533 194.133 166.424C193.321 166.396 192.551 166.055 191.985 165.473L192.327 165.001C192.811 165.511 193.472 165.814 194.174 165.849C195.193 165.918 195.788 165.487 195.843 164.728C195.898 163.968 195.412 163.469 194.277 163.36L193.839 163.325L193.873 162.86L195.727 160.856L192.587 160.63L192.628 160.07L196.575 160.357L196.541 160.801L194.646 162.853C195.959 163.052 196.561 163.791 196.493 164.775Z" fill="#FAFAFA"/>
<path d="M202.649 165.152C202.61 165.658 202.373 166.128 201.988 166.458C201.603 166.789 201.103 166.954 200.597 166.916C200.535 166.923 200.473 166.923 200.412 166.916C198.784 166.8 197.977 165.603 198.121 163.667C198.271 161.615 199.489 160.576 201.158 160.699C201.665 160.713 202.159 160.864 202.587 161.137L202.293 161.629C201.949 161.39 201.542 161.259 201.123 161.253C199.796 161.157 198.887 161.937 198.764 163.606V164.112C198.964 163.786 199.255 163.525 199.601 163.362C199.948 163.2 200.334 163.141 200.713 163.195C201.205 163.175 201.686 163.351 202.049 163.684C202.412 164.018 202.627 164.481 202.649 164.974C202.654 165.033 202.654 165.092 202.649 165.152ZM202.026 165.152C202.088 164.344 201.527 163.784 200.583 163.715C200.399 163.681 200.211 163.682 200.028 163.721C199.845 163.759 199.671 163.833 199.517 163.938C199.362 164.044 199.23 164.179 199.128 164.335C199.026 164.492 198.955 164.667 198.921 164.851C198.921 164.851 198.921 164.912 198.921 164.94C198.866 165.624 199.386 166.308 200.446 166.376C200.624 166.406 200.805 166.401 200.981 166.361C201.156 166.321 201.322 166.247 201.469 166.143C201.616 166.039 201.741 165.907 201.836 165.754C201.932 165.602 201.996 165.432 202.026 165.254C202.03 165.211 202.03 165.167 202.026 165.124V165.152Z" fill="#FAFAFA"/>
<path d="M208.62 161.26L208.586 161.704L205.604 167.176L204.92 167.128L207.854 161.739L204.701 161.506L204.612 162.655L203.989 162.614L204.119 160.904L208.62 161.26Z" fill="#FAFAFA"/>
<path d="M217.382 161.896L217.348 162.347L214.366 167.819L213.682 167.772L216.609 162.382L213.456 162.149L213.374 163.298L212.751 163.25L212.874 161.54L217.382 161.896Z" fill="#FAFAFA"/>
<path d="M223.093 166.766C223.018 167.853 222.047 168.455 220.583 168.353C219.119 168.25 218.264 167.505 218.346 166.417C218.37 166.069 218.51 165.739 218.745 165.48C218.98 165.222 219.295 165.051 219.639 164.994C219.359 164.886 219.122 164.689 218.965 164.433C218.808 164.177 218.74 163.877 218.771 163.578C218.846 162.58 219.742 162.019 221.041 162.108C222.341 162.197 223.162 162.894 223.093 163.893C223.079 164.195 222.965 164.483 222.77 164.713C222.574 164.943 222.308 165.102 222.013 165.165C222.347 165.271 222.636 165.486 222.832 165.777C223.028 166.068 223.121 166.416 223.093 166.766ZM222.45 166.711C222.505 165.952 221.89 165.432 220.802 165.343C219.714 165.254 219.044 165.685 218.989 166.444C218.935 167.204 219.537 167.723 220.624 167.812C221.712 167.901 222.396 167.47 222.45 166.711ZM220.836 164.844C221.794 164.912 222.396 164.522 222.444 163.859C222.492 163.195 221.917 162.696 221 162.635C220.084 162.573 219.455 162.942 219.407 163.626C219.359 164.31 219.885 164.782 220.836 164.844Z" fill="#FAFAFA"/>
<path d="M229.14 165.788C228.99 167.874 227.772 168.88 226.103 168.756C225.597 168.736 225.104 168.585 224.673 168.319L224.961 167.826C225.309 168.061 225.717 168.192 226.137 168.202C227.457 168.298 228.367 167.518 228.49 165.843V165.343C228.289 165.671 227.997 165.932 227.649 166.095C227.302 166.258 226.914 166.315 226.534 166.26C226.042 166.28 225.561 166.104 225.198 165.771C224.835 165.438 224.62 164.974 224.598 164.481C224.591 164.411 224.591 164.34 224.598 164.269C224.642 163.767 224.881 163.301 225.265 162.973C225.649 162.646 226.147 162.482 226.65 162.518H226.808C228.497 162.655 229.297 163.852 229.14 165.788ZM228.36 164.502C228.408 163.818 227.895 163.134 226.835 163.072C226.478 163.011 226.11 163.094 225.814 163.303C225.518 163.512 225.317 163.83 225.255 164.187C225.252 164.224 225.252 164.26 225.255 164.297C225.193 165.104 225.754 165.665 226.698 165.733C227.067 165.808 227.451 165.733 227.765 165.525C228.079 165.318 228.298 164.994 228.374 164.625V164.502H228.36Z" fill="#FAFAFA"/>
<path d="M199.48 171.34L199.286 174.008L248.438 177.583L248.632 174.915L199.48 171.34Z" fill="#FAFAFA"/>
<path d="M223.043 178.409L222.849 181.077L248.056 182.91L248.25 180.243L223.043 178.409Z" fill="#FAFAFA"/>
<path d="M152.302 139.786L151.672 148.422C151.536 150.291 152.941 151.916 154.809 152.053L168.665 153.063C170.533 153.199 172.159 151.795 172.295 149.926L172.925 141.289C173.061 139.421 171.656 137.795 169.788 137.659L155.932 136.649C154.064 136.513 152.438 137.917 152.302 139.786Z" fill="#455A64"/>
<path d="M151.745 147.532L151.821 146.547L162.436 147.32C162.728 147.35 163.022 147.322 163.303 147.239C163.584 147.155 163.846 147.017 164.073 146.832C164.3 146.647 164.489 146.419 164.628 146.161C164.768 145.904 164.855 145.621 164.885 145.329C164.915 145.038 164.888 144.743 164.804 144.463C164.72 144.182 164.582 143.92 164.397 143.693C164.212 143.465 163.984 143.277 163.727 143.137C163.469 142.998 163.186 142.911 162.895 142.881H162.792L152.176 142.108L152.245 141.116L162.867 141.889C163.698 141.977 164.462 142.385 164.998 143.026C165.534 143.668 165.799 144.492 165.739 145.325C165.679 146.158 165.297 146.936 164.674 147.493C164.052 148.05 163.237 148.344 162.402 148.312L151.745 147.532Z" fill="#8EDFEB"/>
<path d="M165.349 144.787L165.276 145.777L172.561 146.314L172.634 145.325L165.349 144.787Z" fill="#8EDFEB"/>
<path d="M155.909 123.883L155.577 128.433L208.617 132.3L208.949 127.75L155.909 123.883Z" fill="#FAFAFA"/>
<path d="M278.716 111.902C277.3 114.262 277.444 117.224 277.841 119.953C278.238 122.682 278.853 125.466 278.244 128.161C277.841 129.933 276.876 131.704 277.342 133.462C277.649 134.714 278.586 135.699 279.052 136.882C279.736 138.592 279.346 140.494 279.12 142.313C278.894 144.132 278.908 146.164 280.112 147.539C281.61 149.249 284.366 149.174 286.418 148.223C288.47 147.272 290.098 145.583 292 144.344C293.901 143.106 296.377 142.292 298.422 143.277C299.366 143.729 300.18 144.536 301.22 144.645C302.677 144.755 303.826 143.421 305.235 143.031C306.446 142.703 307.738 143.106 308.983 142.963C311.521 142.682 313.395 139.946 313.039 137.422C312.802 136.162 312.18 135.006 311.259 134.113C310.338 133.22 309.163 132.634 307.896 132.436C306.822 132.258 305.529 132.231 304.941 131.314C304.065 129.946 305.625 128.229 305.331 126.649C305.139 125.514 304.059 124.755 302.998 124.29C301.938 123.824 300.768 123.517 299.948 122.71C298.477 121.273 298.641 118.92 298.19 116.909C297.444 113.599 294.346 106.82 287.601 106.157" fill="#263238"/>
<path d="M275.59 300.276L275.72 295.447L284.77 295.631L284.653 302.697H284.093C281.596 302.786 271.377 302.971 269.729 302.43C267.868 301.849 275.59 300.276 275.59 300.276Z" fill="#8EDFEB"/>
<path d="M281.377 302.554C281.527 301.795 281.951 301.119 282.567 300.652C283.174 300.188 283.933 299.968 284.694 300.036L284.647 302.56L281.377 302.554Z" fill="#8EDFEB"/>
<path d="M271.815 301.172C271.815 301.172 269.079 301.897 269.434 302.348C269.79 302.8 280.091 303.032 284.653 302.69V302.492L272.608 302.355C272.608 302.355 272.341 301.206 271.815 301.172Z" fill="#8EDFEB"/>
<path d="M284.783 302.485H284.181L282.54 302.526H277.109C274.989 302.526 273.066 302.41 271.678 302.335L270.036 302.232L269.592 302.198H270.036L271.685 302.26C273.053 302.314 274.989 302.383 277.109 302.424C279.229 302.465 281.145 302.472 282.533 302.465H284.783V302.485Z" fill="#263238"/>
<path d="M272.595 302.499C272.527 302.224 272.429 301.958 272.3 301.706C272.143 301.471 271.959 301.256 271.753 301.062C272.022 301.189 272.246 301.394 272.397 301.65C272.547 301.907 272.616 302.203 272.595 302.499Z" fill="#263238"/>
<path d="M275.289 301.192C275.184 301.087 275.089 300.97 275.009 300.844C274.879 300.638 274.797 300.447 274.824 300.433C274.852 300.42 274.975 300.577 275.105 300.782C275.235 300.987 275.317 301.179 275.289 301.192Z" fill="#263238"/>
<path d="M276.028 300.823C275.914 300.764 275.808 300.691 275.714 300.604C275.556 300.461 275.454 300.324 275.474 300.303C275.495 300.283 275.638 300.379 275.789 300.522C275.939 300.666 276.049 300.803 276.028 300.823Z" fill="#263238"/>
<path d="M276.507 299.975C276.507 300.009 276.295 300.03 276.035 300.03C275.775 300.03 275.563 300.03 275.563 299.968C275.714 299.915 275.876 299.898 276.035 299.92C276.194 299.904 276.355 299.923 276.507 299.975Z" fill="#263238"/>
<path d="M276.678 299.38C276.521 299.481 276.338 299.531 276.151 299.523C275.966 299.553 275.777 299.522 275.611 299.434C275.789 299.421 275.967 299.421 276.144 299.434C276.319 299.393 276.499 299.375 276.678 299.38Z" fill="#263238"/>
<path d="M274.968 300.399C274.776 300.433 274.579 300.433 274.387 300.399C274.177 300.367 273.972 300.316 273.771 300.248C273.65 300.209 273.533 300.159 273.422 300.098C273.354 300.055 273.304 299.99 273.279 299.913C273.271 299.869 273.277 299.824 273.293 299.783C273.31 299.742 273.338 299.707 273.374 299.681C273.599 299.578 273.853 299.556 274.092 299.618C274.331 299.68 274.541 299.823 274.688 300.023C274.777 300.137 274.838 300.27 274.865 300.413V300.57C274.812 300.39 274.726 300.22 274.612 300.071C274.484 299.914 274.313 299.798 274.12 299.735C274.009 299.695 273.892 299.678 273.774 299.683C273.657 299.689 273.542 299.719 273.436 299.77C273.34 299.838 273.374 299.947 273.477 300.009C273.581 300.064 273.688 300.112 273.798 300.153C273.991 300.227 274.19 300.284 274.393 300.324C274.586 300.338 274.778 300.363 274.968 300.399Z" fill="#263238"/>
<path d="M274.845 300.426C274.776 300.304 274.757 300.159 274.79 300.023C274.81 299.866 274.871 299.717 274.968 299.592C275.017 299.505 275.089 299.432 275.176 299.382C275.262 299.332 275.36 299.305 275.46 299.305C275.517 299.322 275.566 299.359 275.597 299.41C275.628 299.46 275.641 299.52 275.631 299.578C275.615 299.669 275.58 299.755 275.529 299.831C275.451 299.959 275.357 300.076 275.248 300.18C275.154 300.283 275.037 300.363 274.906 300.413C275.009 300.324 275.105 300.228 275.194 300.125C275.289 300.022 275.372 299.907 275.44 299.783C275.522 299.66 275.584 299.441 275.44 299.414C275.296 299.387 275.139 299.537 275.05 299.654C274.963 299.763 274.904 299.892 274.879 300.03C274.858 300.161 274.846 300.294 274.845 300.426Z" fill="#263238"/>
<path d="M284.647 300.009C284.419 299.987 284.19 299.987 283.963 300.009C283.427 300.057 282.917 300.256 282.491 300.583C282.064 300.91 281.74 301.351 281.555 301.856C281.411 302.239 281.391 302.499 281.37 302.499C281.363 302.437 281.363 302.376 281.37 302.314C281.453 301.677 281.758 301.089 282.23 300.654C282.703 300.219 283.314 299.964 283.956 299.934C284.12 299.92 284.284 299.92 284.448 299.934C284.517 299.951 284.584 299.976 284.647 300.009Z" fill="#263238"/>
<path d="M283.785 296.227C283.84 296.845 283.853 297.467 283.826 298.087C283.841 298.706 283.818 299.325 283.757 299.941C283.684 298.704 283.684 297.464 283.757 296.227H283.785Z" fill="#263238"/>
<path d="M280.255 301.644C279.82 301.74 279.373 301.774 278.928 301.746C278.485 301.758 278.041 301.714 277.608 301.616C277.608 301.616 278.203 301.616 278.935 301.616C279.667 301.616 280.249 301.644 280.255 301.644Z" fill="#263238"/>
<path d="M282.027 301.685C281.992 301.771 281.954 301.856 281.911 301.938C281.842 302.068 281.815 302.198 281.781 302.191C281.746 302.184 281.74 302.047 281.815 301.897C281.89 301.746 282.006 301.644 282.027 301.685Z" fill="#263238"/>
<path d="M282.711 300.864C282.681 300.942 282.634 301.012 282.574 301.069C282.478 301.158 282.389 301.22 282.369 301.199C282.348 301.179 282.403 301.083 282.499 300.994C282.595 300.905 282.69 300.844 282.711 300.864Z" fill="#263238"/>
<path d="M283.675 300.502C283.675 300.536 283.545 300.502 283.415 300.577C283.285 300.652 283.183 300.686 283.162 300.666C283.142 300.645 283.217 300.522 283.381 300.467C283.545 300.413 283.682 300.474 283.675 300.502Z" fill="#263238"/>
<path d="M284.359 300.337C284.333 300.383 284.292 300.419 284.243 300.44C284.192 300.455 284.137 300.455 284.086 300.44C284.11 300.392 284.152 300.356 284.202 300.337C284.277 300.31 284.346 300.31 284.359 300.337Z" fill="#263238"/>
<path d="M301.261 300.276L301.391 295.447L310.433 295.631L310.317 302.697H309.756C307.26 302.786 297.047 302.971 295.392 302.43C293.539 301.849 301.261 300.276 301.261 300.276Z" fill="#8EDFEB"/>
<path d="M307.041 302.553C307.191 301.793 307.617 301.116 308.238 300.652C308.843 300.184 309.604 299.964 310.365 300.036L310.31 302.56L307.041 302.553Z" fill="#8EDFEB"/>
<path d="M297.485 301.172C297.485 301.172 294.749 301.897 295.098 302.348C295.447 302.8 305.755 303.032 310.317 302.69V302.492L298.265 302.355C298.265 302.355 298.012 301.206 297.485 301.172Z" fill="#8EDFEB"/>
<path d="M310.454 302.485H309.852L308.204 302.526H302.773C300.652 302.526 298.73 302.41 297.348 302.335L295.7 302.232L295.255 302.198H295.707L297.348 302.26C298.716 302.314 300.652 302.383 302.773 302.424C304.893 302.465 306.815 302.472 308.204 302.465H310.454V302.485Z" fill="#263238"/>
<path d="M298.258 302.499C298.193 302.224 298.097 301.958 297.971 301.706C297.813 301.471 297.63 301.256 297.424 301.062C297.692 301.189 297.915 301.394 298.064 301.651C298.214 301.907 298.281 302.203 298.258 302.499Z" fill="#263238"/>
<path d="M300.96 301.192C300.855 301.087 300.763 300.97 300.686 300.844C300.563 300.638 300.474 300.447 300.502 300.433C300.529 300.42 300.652 300.577 300.775 300.782C300.854 300.91 300.917 301.048 300.96 301.192Z" fill="#263238"/>
<path d="M301.699 300.823C301.583 300.766 301.477 300.692 301.384 300.604C301.234 300.461 301.124 300.324 301.145 300.303C301.165 300.283 301.302 300.379 301.459 300.522C301.617 300.666 301.719 300.803 301.699 300.823Z" fill="#263238"/>
<path d="M302.178 299.975C302.178 300.009 301.965 300.03 301.706 300.03C301.446 300.03 301.234 300.03 301.234 299.968C301.385 299.915 301.547 299.898 301.706 299.92C301.865 299.904 302.026 299.923 302.178 299.975Z" fill="#263238"/>
<path d="M302.328 299.38C302.168 299.478 301.982 299.528 301.794 299.523C301.609 299.553 301.42 299.522 301.254 299.434C301.432 299.421 301.61 299.421 301.788 299.434C301.965 299.392 302.146 299.374 302.328 299.38Z" fill="#263238"/>
<path d="M300.666 300.399C300.474 300.433 300.277 300.433 300.084 300.399C299.875 300.367 299.669 300.316 299.469 300.248C299.345 300.212 299.225 300.162 299.113 300.098C299.045 300.056 298.996 299.99 298.976 299.913C298.969 299.87 298.974 299.826 298.989 299.785C299.005 299.744 299.031 299.708 299.065 299.681C299.29 299.578 299.544 299.556 299.783 299.618C300.022 299.68 300.233 299.823 300.379 300.023C300.467 300.138 300.53 300.271 300.563 300.413C300.577 300.464 300.577 300.518 300.563 300.57C300.507 300.389 300.419 300.22 300.303 300.071C300.179 299.913 300.009 299.796 299.818 299.735C299.594 299.657 299.349 299.67 299.134 299.77C299.045 299.838 299.079 299.947 299.175 300.009C299.278 300.071 299.388 300.119 299.503 300.153C299.696 300.227 299.895 300.284 300.098 300.324C300.44 300.378 300.666 300.378 300.666 300.399Z" fill="#263238"/>
<path d="M300.515 300.426C300.444 300.305 300.422 300.16 300.454 300.023C300.476 299.87 300.534 299.724 300.625 299.599C300.676 299.514 300.747 299.444 300.831 299.394C300.916 299.344 301.012 299.315 301.11 299.312C301.169 299.326 301.22 299.363 301.253 299.413C301.286 299.464 301.299 299.525 301.288 299.585C301.272 299.677 301.235 299.764 301.179 299.838C301.103 299.968 301.008 300.085 300.898 300.187C300.808 300.291 300.693 300.371 300.563 300.42C300.662 300.329 300.756 300.233 300.844 300.132C300.939 300.027 301.024 299.913 301.097 299.79C301.179 299.667 301.234 299.448 301.097 299.421C300.96 299.394 300.803 299.544 300.707 299.66C300.627 299.774 300.569 299.901 300.536 300.037C300.515 300.165 300.509 300.296 300.515 300.426Z" fill="#263238"/>
<path d="M310.317 300.009C310.09 299.987 309.861 299.987 309.633 300.009C309.098 300.058 308.588 300.257 308.162 300.584C307.736 300.911 307.411 301.352 307.225 301.856C307.082 302.239 307.061 302.499 307.041 302.499C307.027 302.438 307.027 302.375 307.041 302.314C307.06 302.149 307.097 301.986 307.15 301.829C307.32 301.299 307.648 300.834 308.089 300.496C308.53 300.157 309.064 299.961 309.619 299.934C309.786 299.92 309.953 299.92 310.119 299.934C310.189 299.946 310.257 299.971 310.317 300.009Z" fill="#263238"/>
<path d="M309.455 296.227C309.528 297.464 309.528 298.704 309.455 299.941C309.401 299.324 309.387 298.705 309.414 298.087C309.39 297.467 309.404 296.845 309.455 296.227Z" fill="#263238"/>
<path d="M305.919 301.644C305.486 301.74 305.042 301.774 304.599 301.746C304.155 301.762 303.711 301.718 303.279 301.616C303.279 301.616 303.874 301.616 304.599 301.616C305.324 301.616 305.919 301.644 305.919 301.644Z" fill="#263238"/>
<path d="M307.691 301.685C307.691 301.685 307.643 301.808 307.581 301.938C307.52 302.068 307.479 302.198 307.451 302.191C307.424 302.184 307.41 302.047 307.451 301.897C307.492 301.746 307.677 301.644 307.691 301.685Z" fill="#263238"/>
<path d="M308.381 300.864C308.351 300.942 308.305 301.012 308.245 301.069C308.149 301.158 308.053 301.22 308.033 301.199C308.012 301.179 308.074 301.083 308.169 300.994C308.265 300.905 308.354 300.844 308.381 300.864Z" fill="#263238"/>
<path d="M309.339 300.502C309.339 300.536 309.216 300.502 309.079 300.577C308.942 300.652 308.853 300.686 308.826 300.666C308.799 300.645 308.881 300.522 309.045 300.467C309.209 300.413 309.353 300.474 309.339 300.502Z" fill="#263238"/>
<path d="M310.023 300.337C309.996 300.383 309.955 300.419 309.907 300.44C309.855 300.455 309.801 300.455 309.749 300.44C309.749 300.44 309.797 300.365 309.873 300.337C309.948 300.31 310.016 300.31 310.023 300.337Z" fill="#263238"/>
<path d="M273.764 176.164L269.428 240.809V299.106H286.76C286.76 299.106 287.492 248.832 287.034 245.542C287.034 245.542 289.866 195.186 290.187 195.904C290.871 197.375 290.83 240.18 291.801 245.481C292.773 250.782 297.273 299.106 297.273 299.106H313.956L308.347 243.702C308.231 237.026 306.514 178.401 306.514 178.401L273.764 176.164Z" fill="#263238"/>
<path d="M313.58 295.796C313.391 295.931 313.168 296.009 312.937 296.021C312.31 296.077 311.68 295.973 311.104 295.72C310.304 295.325 309.462 295.022 308.593 294.818C307.615 294.674 306.596 295.187 305.625 295.837C304.732 296.542 303.684 297.025 302.567 297.246C301.642 297.334 300.708 297.219 299.831 296.911C299.248 296.717 298.677 296.489 298.121 296.227C297.911 296.146 297.715 296.033 297.54 295.891C297.54 295.83 298.436 296.247 299.9 296.685C300.75 296.944 301.643 297.028 302.526 296.931C303.588 296.707 304.584 296.239 305.433 295.563C305.92 295.235 306.438 294.955 306.979 294.729C307.505 294.521 308.074 294.451 308.634 294.523C309.534 294.733 310.403 295.057 311.22 295.488C311.758 295.746 312.347 295.879 312.944 295.878C313.347 295.864 313.566 295.761 313.58 295.796Z" fill="#455A64"/>
<path d="M286.904 295.392C286.732 295.231 286.55 295.082 286.357 294.947C285.801 294.637 285.152 294.54 284.53 294.674C283.608 294.934 282.745 295.368 281.986 295.953C281.499 296.281 280.982 296.561 280.44 296.787C279.836 297.036 279.176 297.114 278.532 297.013C277.218 296.787 276.179 296.103 275.112 295.871C274.182 295.672 273.216 295.714 272.307 295.994C270.734 296.466 269.811 296.952 269.783 296.883C269.976 296.733 270.187 296.608 270.413 296.514C271 296.211 271.611 295.955 272.239 295.748C273.186 295.42 274.204 295.351 275.187 295.549C276.302 295.789 277.355 296.466 278.559 296.664C279.763 296.863 280.864 296.24 281.774 295.672C282.572 295.081 283.482 294.658 284.448 294.428C285.128 294.304 285.829 294.449 286.404 294.831C286.628 294.958 286.804 295.155 286.904 295.392Z" fill="#455A64"/>
<path d="M305.344 189.57C305.042 189.769 304.693 189.886 304.332 189.912C303.471 190.041 302.592 189.986 301.754 189.75C300.915 189.514 300.137 189.103 299.469 188.544C298.963 188.114 298.737 187.765 298.785 187.737C299.672 188.518 300.724 189.086 301.863 189.4C303.002 189.714 304.197 189.765 305.358 189.55L305.344 189.57Z" fill="#455A64"/>
<path d="M276.569 187.047C276.61 187.047 276.61 187.395 276.432 187.902C276.191 188.564 275.789 189.157 275.262 189.625C274.733 190.092 274.1 190.425 273.415 190.597C272.889 190.713 272.553 190.672 272.553 190.631C273.472 190.423 274.322 189.985 275.024 189.358C275.727 188.731 276.258 187.935 276.569 187.047Z" fill="#455A64"/>
<path d="M235.604 163.223L235.152 169.379L234.523 169.338L234.927 163.763L233.483 163.654L233.524 163.093L235.604 163.223Z" fill="#FAFAFA"/>
<path d="M241.507 169.256L241.466 169.817L237.163 169.509V169.057L239.899 166.745C240.638 166.116 240.802 165.713 240.836 165.288C240.884 164.604 240.419 164.105 239.468 164.037C239.157 163.996 238.841 164.025 238.543 164.122C238.245 164.219 237.972 164.382 237.745 164.598L237.348 164.16C237.644 163.882 237.998 163.673 238.385 163.548C238.772 163.424 239.182 163.388 239.585 163.442C240.83 163.531 241.575 164.221 241.5 165.247C241.459 165.836 241.233 166.349 240.351 167.094L238.121 168.996L241.507 169.256Z" fill="#FAFAFA"/>
<path d="M247.095 168.462C247.02 169.481 246.219 170.22 244.742 170.111C243.928 170.083 243.156 169.743 242.587 169.16L242.929 168.681C243.168 168.937 243.454 169.144 243.772 169.29C244.09 169.435 244.434 169.517 244.783 169.529C245.795 169.605 246.39 169.174 246.452 168.414C246.514 167.655 246.021 167.156 244.879 167.046H244.441L244.475 166.581L246.336 164.577L243.196 164.351L243.237 163.791L247.177 164.078V164.522L245.282 166.574C246.561 166.739 247.17 167.477 247.095 168.462Z" fill="#FAFAFA"/>
<path d="M279.414 108.291C278.803 108.912 278.332 109.658 278.034 110.476C277.735 111.295 277.616 112.169 277.684 113.038C277.835 114.776 278.4 116.453 279.332 117.928" fill="#263238"/>
<path d="M294.346 135.028L295.276 113.599L286.678 107.087L278.867 110.904C278.867 110.904 278.607 120.712 278.867 124.967C279.127 129.221 283.415 129.673 283.415 129.673C283.415 129.673 283.292 132.019 283.156 134.461C283.08 135.928 283.583 137.367 284.556 138.468C285.529 139.569 286.895 140.244 288.361 140.35C289.843 140.453 291.305 139.964 292.426 138.989C293.548 138.014 294.235 136.634 294.339 135.151C294.339 135.11 294.346 135.069 294.346 135.028Z" fill="#FFBE9D"/>
<path d="M280.262 118.058C280.262 118.166 280.294 118.272 280.354 118.362C280.414 118.452 280.5 118.522 280.6 118.564C280.7 118.605 280.81 118.616 280.916 118.595C281.022 118.574 281.12 118.522 281.196 118.445C281.273 118.369 281.325 118.271 281.346 118.165C281.367 118.059 281.356 117.949 281.315 117.849C281.274 117.749 281.203 117.663 281.113 117.603C281.023 117.543 280.918 117.511 280.809 117.511C280.738 117.511 280.666 117.525 280.6 117.553C280.534 117.58 280.473 117.62 280.422 117.671C280.372 117.722 280.331 117.782 280.304 117.849C280.276 117.915 280.262 117.986 280.262 118.058Z" fill="#263238"/>
<path d="M279.195 117.463C279.264 117.532 279.667 117.19 280.248 117.155C280.83 117.121 281.274 117.408 281.336 117.333C281.398 117.258 281.295 117.169 281.103 117.032C280.844 116.863 280.537 116.784 280.228 116.806C279.92 116.821 279.626 116.939 279.393 117.142C279.216 117.292 279.161 117.429 279.195 117.463Z" fill="#263238"/>
<path d="M286.596 118.058C286.596 118.202 286.653 118.339 286.754 118.44C286.856 118.542 286.993 118.599 287.136 118.599C287.245 118.6 287.351 118.569 287.441 118.51C287.532 118.451 287.603 118.367 287.646 118.267C287.689 118.168 287.701 118.058 287.681 117.952C287.661 117.845 287.61 117.747 287.535 117.67C287.459 117.592 287.363 117.539 287.257 117.516C287.151 117.494 287.041 117.503 286.94 117.543C286.84 117.584 286.753 117.653 286.692 117.742C286.631 117.831 286.597 117.937 286.596 118.045V118.058Z" fill="#263238"/>
<path d="M285.693 117.463C285.762 117.532 286.165 117.19 286.746 117.156C287.328 117.121 287.772 117.409 287.834 117.333C287.896 117.258 287.793 117.169 287.601 117.032C287.341 116.866 287.034 116.787 286.725 116.807C286.417 116.826 286.122 116.944 285.885 117.142C285.714 117.292 285.659 117.429 285.693 117.463Z" fill="#263238"/>
<path d="M285.508 122.969C284.613 123.421 283.661 123.748 282.677 123.941C282.894 124.235 283.202 124.448 283.554 124.548C283.905 124.649 284.28 124.63 284.619 124.495C284.774 124.461 284.92 124.397 285.049 124.306C285.179 124.215 285.289 124.1 285.373 123.966C285.458 123.833 285.515 123.684 285.542 123.528C285.569 123.372 285.564 123.212 285.529 123.058L285.508 122.969Z" fill="#FAFAFA"/>
<path d="M283.415 129.673C285.437 129.589 287.392 128.929 289.052 127.771C289.052 127.771 287.772 130.897 283.511 130.719L283.415 129.673Z" fill="#EB996E"/>
<path d="M283.573 122.436C283.259 122.36 282.938 122.321 282.615 122.32C282.465 122.32 282.321 122.32 282.287 122.183C282.268 122.018 282.299 121.851 282.376 121.704C282.499 121.321 282.636 120.917 282.772 120.493C283.053 119.625 283.292 118.845 283.456 118.27C283.571 117.967 283.643 117.65 283.668 117.326C283.512 117.608 283.388 117.906 283.299 118.216C283.094 118.776 282.827 119.584 282.547 120.418C282.417 120.849 282.287 121.253 282.164 121.642C282.081 121.834 282.062 122.048 282.109 122.251C282.13 122.304 282.163 122.351 282.206 122.388C282.249 122.425 282.3 122.451 282.355 122.463C282.439 122.477 282.524 122.477 282.608 122.463C282.929 122.499 283.254 122.489 283.573 122.436Z" fill="#263238"/>
<path d="M294.647 121.218C294.58 120.51 294.659 119.795 294.879 119.118C294.99 118.781 295.19 118.479 295.459 118.247C295.727 118.014 296.054 117.859 296.405 117.798C296.81 117.777 297.21 117.904 297.528 118.156C297.847 118.407 298.062 118.767 298.135 119.166C298.185 119.574 298.112 119.988 297.924 120.354C297.736 120.72 297.443 121.021 297.082 121.218C296.717 121.405 296.315 121.508 295.905 121.518C295.496 121.529 295.089 121.447 294.715 121.28" fill="#FFBE9D"/>
<path d="M295.892 120.596C295.892 120.548 296.117 120.658 296.418 120.562C296.606 120.497 296.768 120.375 296.882 120.213C296.996 120.051 297.057 119.857 297.054 119.659C297.073 119.559 297.069 119.456 297.043 119.358C297.017 119.26 296.97 119.169 296.904 119.091C296.771 118.99 296.605 118.942 296.439 118.954C296.124 118.954 295.898 119.064 295.878 119.016C295.857 118.968 296.021 118.818 296.405 118.708C296.522 118.681 296.643 118.679 296.761 118.702C296.879 118.726 296.991 118.775 297.089 118.845C297.2 118.952 297.285 119.084 297.336 119.23C297.387 119.377 297.403 119.533 297.383 119.686C297.365 119.978 297.255 120.256 297.068 120.48C296.906 120.663 296.682 120.779 296.439 120.808C296.049 120.849 295.85 120.623 295.892 120.596Z" fill="#EB996E"/>
<path d="M278.928 108.708C277.041 111.054 279.558 112.532 280.809 113.496C281.774 114.248 284.619 116.232 287.116 115.295C286.233 114.112 285.228 113.592 284.838 112.463C285.857 113.9 286.931 114.987 288.682 115.199C288.333 114.18 287.841 112.107 288.217 112.025C288.682 116.075 292.478 119.481 295.091 118.181C295.58 116.908 295.762 115.536 295.622 114.179C295.481 112.822 295.023 111.517 294.284 110.37C293.526 109.236 292.54 108.272 291.39 107.538C290.24 106.805 288.95 106.318 287.601 106.109C286.054 105.873 284.473 105.984 282.973 106.434C281.473 106.883 280.092 107.66 278.928 108.708Z" fill="#263238"/>
<path d="M296.856 121.608C296.856 121.567 297.177 121.875 297.048 122.456C297.007 122.624 296.929 122.78 296.82 122.914C296.712 123.048 296.574 123.156 296.418 123.229C296.224 123.318 296.011 123.36 295.797 123.352C295.583 123.343 295.374 123.285 295.187 123.181C295.004 123.07 294.847 122.92 294.729 122.742C294.611 122.563 294.534 122.361 294.503 122.149C294.461 121.808 294.549 121.463 294.749 121.184C295.091 120.719 295.474 120.671 295.474 120.705C295.271 120.882 295.098 121.089 294.961 121.321C294.83 121.558 294.785 121.833 294.831 122.101C294.857 122.258 294.916 122.409 295.005 122.542C295.093 122.675 295.209 122.788 295.344 122.874C295.483 122.951 295.637 122.997 295.796 123.007C295.954 123.018 296.113 122.993 296.261 122.935C296.383 122.885 296.493 122.81 296.583 122.714C296.674 122.619 296.744 122.505 296.788 122.381C296.861 122.131 296.885 121.868 296.856 121.608Z" fill="#8EDFEB"/>
<path d="M267.287 156.848L273.703 155.514L275.652 166.308C274.004 171.84 272.635 177.451 271.548 183.12L286.596 192.512L288.915 188.107L292.629 191.636L308.641 183.12C306.665 172.86 301.671 170.179 301.671 168.51C301.671 163.722 300.987 168.373 305.002 152.511C309.018 136.649 294.366 135.028 294.366 135.028C294.366 135.028 294.695 137.244 283.039 135.131C278.771 134.358 261.733 143.305 261.733 143.305L267.287 156.848Z" fill="#5064BF"/>
<path d="M283.019 135.131C283.019 135.131 282.882 146.868 285.679 146.075C288.477 145.281 294.113 140.268 294.346 135.001L283.019 135.131Z" fill="#FFBE9D"/>
<path d="M283.73 155.699C283.697 154.308 283.777 152.917 283.969 151.54C284.05 150.157 284.251 148.784 284.571 147.436C284.606 148.829 284.523 150.222 284.325 151.602C284.243 152.982 284.044 154.352 283.73 155.699Z" fill="#263238"/>
<path d="M285.515 154.748C285.31 153.65 285.221 152.534 285.249 151.417C285.162 150.302 285.192 149.181 285.337 148.072C285.542 149.173 285.632 150.291 285.604 151.41C285.698 152.523 285.668 153.642 285.515 154.748Z" fill="#263238"/>
<path d="M283.005 156.848C282.909 156.848 282.841 156.547 283.005 156.212C283.169 155.877 283.436 155.726 283.497 155.801C283.559 155.877 283.45 156.096 283.333 156.356C283.217 156.615 283.108 156.855 283.005 156.848Z" fill="#263238"/>
<path d="M283.388 156.848C283.292 156.848 283.258 156.602 283.306 156.335C283.354 156.068 283.484 155.877 283.58 155.897C283.675 155.918 283.71 156.144 283.662 156.41C283.614 156.677 283.484 156.869 283.388 156.848Z" fill="#263238"/>
<path d="M283.751 156.855C283.655 156.855 283.552 156.656 283.525 156.39C283.497 156.123 283.559 155.904 283.662 155.897C283.764 155.89 283.86 156.095 283.881 156.355C283.901 156.615 283.86 156.841 283.751 156.855Z" fill="#263238"/>
<path d="M284.346 157.04C284.243 157.04 284.168 156.698 283.99 156.356C283.812 156.014 283.607 155.713 283.675 155.631C283.744 155.548 284.106 155.754 284.318 156.205C284.53 156.656 284.441 157.046 284.346 157.04Z" fill="#263238"/>
<path d="M285.584 155.801C285.495 155.836 285.31 155.541 285.31 155.117C285.31 154.693 285.495 154.433 285.584 154.433C285.673 154.433 285.666 154.755 285.666 155.117C285.666 155.48 285.679 155.767 285.584 155.801Z" fill="#263238"/>
<path d="M285.953 155.61C285.857 155.61 285.755 155.391 285.727 155.104C285.7 154.816 285.727 154.57 285.857 154.563C285.987 154.557 286.056 154.782 286.083 155.07C286.11 155.357 286.049 155.603 285.953 155.61Z" fill="#263238"/>
<path d="M286.534 155.514C286.459 155.576 286.247 155.432 286.063 155.193C285.878 154.953 285.789 154.714 285.871 154.659C285.953 154.605 286.158 154.741 286.343 154.974C286.528 155.206 286.596 155.453 286.534 155.514Z" fill="#263238"/>
<path d="M286.726 155.323C286.637 155.364 286.466 155.186 286.247 154.994C286.028 154.803 285.837 154.659 285.871 154.563C285.905 154.468 286.213 154.481 286.487 154.728C286.76 154.974 286.815 155.268 286.726 155.323Z" fill="#263238"/>
<path d="M282.164 136.424C282.164 136.383 282.369 136.28 282.608 136.499C282.707 136.614 282.755 136.764 282.744 136.915C282.732 137.066 282.661 137.207 282.547 137.306C282.49 137.356 282.424 137.395 282.353 137.419C282.281 137.443 282.205 137.453 282.13 137.447C282.055 137.442 281.981 137.421 281.914 137.386C281.847 137.351 281.788 137.303 281.74 137.244C281.706 137.21 281.679 137.171 281.658 137.128C281.625 137.038 281.616 136.941 281.629 136.845C281.642 136.75 281.677 136.66 281.733 136.581C281.931 136.321 282.171 136.383 282.157 136.424C282.071 136.506 282.002 136.603 281.952 136.711C281.883 136.896 281.952 137.142 282.232 137.108C282.513 137.073 282.533 136.834 282.424 136.663C282.314 136.492 282.171 136.478 282.164 136.424Z" fill="#263238"/>
<path d="M282.437 138.633C282.376 138.708 282.184 138.633 282 138.537C281.815 138.441 281.712 138.236 281.767 138.154C281.822 138.072 282.02 138.113 282.205 138.25C282.389 138.387 282.492 138.551 282.437 138.633Z" fill="#263238"/>
<path d="M282.615 139.098C282.697 139.16 282.615 139.399 282.342 139.502C282.068 139.604 281.842 139.502 281.863 139.399C281.883 139.297 282.041 139.242 282.212 139.173C282.383 139.105 282.54 139.037 282.615 139.098Z" fill="#263238"/>
<path d="M282.629 140.254C282.704 140.316 282.629 140.494 282.526 140.651C282.424 140.808 282.225 140.89 282.15 140.822C282.075 140.753 282.116 140.582 282.253 140.425C282.389 140.268 282.547 140.22 282.629 140.254Z" fill="#263238"/>
<path d="M282.335 141.506C282.335 141.465 282.608 141.369 282.93 141.663C283.02 141.75 283.085 141.859 283.118 141.979C283.15 142.1 283.149 142.227 283.114 142.347C283.068 142.505 282.973 142.645 282.843 142.745C282.713 142.846 282.554 142.903 282.389 142.908C282.227 142.896 282.074 142.832 281.951 142.727C281.827 142.621 281.741 142.478 281.705 142.32C281.675 142.188 281.689 142.05 281.745 141.926C281.8 141.803 281.894 141.701 282.013 141.636C282.41 141.417 282.697 141.636 282.629 141.67C282.46 141.688 282.298 141.746 282.157 141.841C282.096 141.885 282.051 141.947 282.028 142.018C282.004 142.09 282.004 142.166 282.027 142.238C282.055 142.323 282.108 142.397 282.178 142.452C282.249 142.507 282.334 142.539 282.424 142.546C282.485 142.542 282.546 142.526 282.601 142.499C282.657 142.472 282.706 142.434 282.747 142.388C282.788 142.341 282.819 142.287 282.839 142.229C282.858 142.17 282.866 142.108 282.861 142.046C282.855 141.952 282.821 141.862 282.766 141.786C282.56 141.588 282.328 141.588 282.335 141.506Z" fill="#263238"/>
<path d="M283.101 143.496C283.149 143.585 282.998 143.749 282.834 143.934C282.67 144.119 282.533 144.29 282.437 144.256C282.342 144.221 282.355 143.948 282.567 143.701C282.779 143.455 283.06 143.407 283.101 143.496Z" fill="#263238"/>
<path d="M283.484 144.734C283.573 144.769 283.559 145.042 283.347 145.288C283.135 145.535 282.861 145.583 282.813 145.5C282.766 145.418 282.916 145.241 283.08 145.056C283.244 144.871 283.388 144.7 283.484 144.734Z" fill="#263238"/>
<path d="M283.689 146.739C283.593 146.739 283.491 146.52 283.47 146.226C283.45 145.931 283.47 145.699 283.6 145.685C283.73 145.671 283.798 145.904 283.819 146.198C283.839 146.492 283.792 146.732 283.689 146.739Z" fill="#263238"/>
<path d="M287.013 147.06C286.965 147.142 286.774 147.128 286.589 147.06C286.404 146.992 286.295 146.8 286.343 146.711C286.391 146.622 286.582 146.643 286.767 146.711C286.952 146.78 287.061 146.937 287.013 147.06Z" fill="#263238"/>
<path d="M288.169 145.692C288.238 145.76 288.121 145.986 287.916 146.198C287.711 146.41 287.478 146.526 287.41 146.458C287.342 146.39 287.451 146.164 287.663 145.952C287.875 145.74 288.094 145.63 288.169 145.692Z" fill="#263238"/>
<path d="M289.113 144.926C289.113 144.871 289.291 144.844 289.551 144.85H289.585L289.633 144.892C289.694 144.952 289.738 145.027 289.764 145.11C289.789 145.192 289.793 145.279 289.777 145.363C289.758 145.471 289.704 145.57 289.624 145.644C289.543 145.718 289.441 145.764 289.332 145.774C289.216 145.784 289.1 145.757 289 145.697C288.9 145.637 288.823 145.546 288.778 145.439C288.742 145.353 288.733 145.259 288.753 145.168C288.772 145.078 288.819 144.996 288.887 144.933C289.113 144.727 289.325 144.83 289.298 144.871C289.27 144.912 289.161 144.939 289.086 145.09C289.066 145.123 289.055 145.161 289.055 145.199C289.055 145.238 289.066 145.276 289.086 145.309C289.11 145.346 289.144 145.375 289.184 145.394C289.223 145.414 289.268 145.422 289.311 145.418C289.455 145.418 289.524 145.165 289.448 145.076L289.53 145.117C289.264 145.049 289.106 145.008 289.113 144.926Z" fill="#263238"/>
<path d="M290.091 144.741C289.995 144.741 289.954 144.488 290.009 144.228C290.064 143.968 290.187 143.77 290.283 143.784C290.379 143.797 290.413 144.037 290.358 144.297C290.303 144.557 290.187 144.762 290.091 144.741Z" fill="#263238"/>
<path d="M291.589 143.688C291.555 143.777 291.329 143.763 291.09 143.688C290.85 143.613 290.693 143.421 290.734 143.332C290.775 143.243 291.001 143.257 291.233 143.332C291.466 143.407 291.63 143.599 291.589 143.688Z" fill="#263238"/>
<path d="M291.76 142.388C291.801 142.388 291.794 142.511 291.877 142.6C291.959 142.689 292.061 142.71 292.136 142.6C292.212 142.491 292.136 142.409 292.027 142.368C291.946 142.346 291.861 142.346 291.781 142.368C291.74 142.368 291.781 142.176 292.013 142.128C292.086 142.115 292.16 142.12 292.23 142.144C292.299 142.168 292.361 142.21 292.41 142.265C292.473 142.338 292.51 142.43 292.516 142.526C292.522 142.622 292.497 142.718 292.444 142.798C292.396 142.882 292.322 142.949 292.234 142.988C292.145 143.027 292.046 143.038 291.952 143.017C291.881 143.001 291.815 142.965 291.762 142.915C291.709 142.864 291.671 142.8 291.651 142.73C291.582 142.47 291.726 142.354 291.76 142.388Z" fill="#263238"/>
<path d="M292.807 141.307C292.746 141.298 292.689 141.272 292.642 141.232C292.594 141.192 292.559 141.141 292.538 141.083C292.518 141.025 292.514 140.962 292.526 140.902C292.538 140.841 292.567 140.785 292.608 140.74C292.677 140.74 292.82 140.808 292.875 140.965C292.93 141.123 292.896 141.28 292.807 141.307Z" fill="#263238"/>
<path d="M293.785 140.35C293.737 140.432 293.545 140.418 293.361 140.309C293.176 140.199 293.067 140.049 293.121 139.967C293.176 139.885 293.354 139.898 293.539 140.001C293.723 140.104 293.833 140.261 293.785 140.35Z" fill="#263238"/>
<path d="M294.455 138.913C294.496 139.009 294.332 139.167 294.099 139.269C293.867 139.372 293.634 139.385 293.593 139.269C293.552 139.153 293.716 139.023 293.949 138.92C294.026 138.876 294.113 138.852 294.201 138.851C294.29 138.85 294.377 138.871 294.455 138.913Z" fill="#263238"/>
<path d="M294.763 137.196C294.763 137.162 294.893 137.032 295.125 137.155C295.193 137.193 295.25 137.247 295.291 137.313C295.332 137.379 295.355 137.454 295.358 137.532C295.358 137.632 295.327 137.731 295.27 137.814C295.213 137.897 295.132 137.96 295.038 137.997C294.944 138.033 294.842 138.04 294.744 138.017C294.646 137.994 294.557 137.941 294.489 137.867C294.44 137.807 294.406 137.735 294.393 137.658C294.38 137.581 294.387 137.502 294.414 137.429C294.503 137.19 294.695 137.176 294.701 137.224C294.708 137.272 294.647 137.347 294.66 137.477C294.674 137.607 294.756 137.723 294.907 137.668C295.057 137.614 295.057 137.477 294.968 137.361C294.879 137.244 294.804 137.244 294.763 137.196Z" fill="#263238"/>
<path d="M295.7 135.699C295.7 135.794 295.55 135.917 295.31 135.972C295.071 136.027 294.866 135.972 294.845 135.897C294.825 135.822 294.996 135.678 295.235 135.623C295.474 135.569 295.679 135.603 295.7 135.699Z" fill="#263238"/>
<path d="M294.742 135.199L295.119 134.912L294.742 135.199Z" fill="#263238"/>
<path d="M263.675 144.953C263.586 144.953 263.552 144.755 263.614 144.577C263.675 144.399 263.791 144.283 263.88 144.31C263.969 144.337 264.003 144.508 263.949 144.686C263.894 144.864 263.771 145.008 263.675 144.953Z" fill="#263238"/>
<path d="M264.496 145.945C264.496 145.904 264.619 145.774 264.865 145.883C264.95 145.921 265.022 145.982 265.073 146.06C265.123 146.138 265.15 146.228 265.15 146.321C265.15 146.414 265.123 146.505 265.073 146.582C265.022 146.66 264.95 146.721 264.865 146.759C264.774 146.809 264.67 146.829 264.567 146.816C264.464 146.804 264.368 146.76 264.291 146.691C264.234 146.636 264.192 146.567 264.168 146.492C264.144 146.417 264.14 146.337 264.154 146.26C264.202 145.993 264.4 145.952 264.414 145.993C264.428 146.034 264.373 146.13 264.414 146.266C264.455 146.403 264.551 146.526 264.722 146.444C264.893 146.362 264.859 146.212 264.722 146.095C264.585 145.979 264.517 145.993 264.496 145.945Z" fill="#263238"/>
<path d="M265.515 148.182C265.474 148.271 265.262 148.271 265.036 148.182C264.811 148.093 264.667 147.942 264.701 147.853C264.735 147.764 264.954 147.764 265.18 147.853C265.406 147.942 265.549 148.093 265.515 148.182Z" fill="#263238"/>
<path d="M265.768 149.55C265.734 149.645 265.57 149.673 265.392 149.618C265.214 149.563 265.098 149.44 265.125 149.344C265.153 149.249 265.324 149.221 265.501 149.283C265.679 149.344 265.796 149.461 265.768 149.55Z" fill="#263238"/>
<path d="M266.185 150.48C266.268 150.528 266.247 150.726 266.131 150.918C266.014 151.109 265.857 151.232 265.775 151.178C265.693 151.123 265.713 150.931 265.823 150.74C265.855 150.668 265.906 150.607 265.969 150.561C266.033 150.516 266.107 150.488 266.185 150.48Z" fill="#263238"/>
<path d="M266.432 151.431C266.384 151.431 266.548 151.178 266.897 151.273C266.997 151.301 267.089 151.353 267.164 151.424C267.239 151.496 267.295 151.585 267.328 151.684C267.367 151.822 267.352 151.969 267.286 152.097C267.22 152.224 267.108 152.321 266.972 152.368C266.849 152.417 266.715 152.43 266.585 152.404C266.455 152.379 266.335 152.316 266.24 152.224C266.164 152.136 266.121 152.023 266.121 151.906C266.121 151.789 266.164 151.676 266.24 151.588C266.297 151.532 266.373 151.501 266.452 151.501C266.532 151.501 266.608 151.532 266.664 151.588C266.739 151.677 266.705 151.745 266.664 151.745C266.645 151.748 266.626 151.745 266.608 151.738C266.59 151.731 266.574 151.719 266.562 151.704C266.548 151.696 266.534 151.691 266.518 151.69C266.503 151.688 266.488 151.69 266.473 151.696C266.459 151.701 266.446 151.709 266.435 151.72C266.424 151.731 266.416 151.744 266.411 151.759C266.395 151.801 266.392 151.848 266.403 151.892C266.414 151.936 266.438 151.976 266.473 152.005C266.525 152.042 266.585 152.065 266.649 152.073C266.712 152.08 266.776 152.071 266.835 152.046C267.116 151.944 266.999 151.629 266.794 151.526C266.589 151.424 266.466 151.472 266.432 151.431Z" fill="#263238"/>
<path d="M267.444 153.216C267.512 153.284 267.444 153.442 267.321 153.565C267.198 153.688 267.027 153.715 266.958 153.647C266.89 153.579 266.958 153.414 267.081 153.298C267.205 153.182 267.355 153.127 267.444 153.216Z" fill="#263238"/>
<path d="M267.813 154.392C267.889 154.461 267.813 154.632 267.697 154.775C267.581 154.919 267.389 154.988 267.314 154.919C267.239 154.851 267.314 154.68 267.437 154.536C267.56 154.392 267.745 154.324 267.813 154.392Z" fill="#263238"/>
<path d="M274.797 184.851C274.715 184.899 274.53 184.741 274.4 184.495C274.27 184.249 274.222 184.016 274.305 183.969C274.387 183.921 274.571 184.078 274.708 184.324C274.845 184.57 274.886 184.803 274.797 184.851Z" fill="#263238"/>
<path d="M275.392 184.851C275.303 184.892 275.139 184.728 275.03 184.481C274.92 184.235 274.906 184.009 275.03 183.968C275.153 183.927 275.283 184.092 275.392 184.338C275.502 184.584 275.481 184.81 275.392 184.851Z" fill="#263238"/>
<path d="M276.233 185.295V185.514C276.233 185.617 276.336 185.658 276.432 185.603C276.528 185.549 276.521 185.473 276.432 185.384C276.343 185.295 276.274 185.309 276.247 185.261C276.22 185.213 276.329 185.09 276.548 185.159C276.65 185.192 276.734 185.263 276.784 185.358C276.834 185.452 276.845 185.562 276.815 185.665C276.78 185.768 276.707 185.854 276.61 185.904C276.536 185.958 276.447 185.986 276.357 185.986C276.266 185.986 276.177 185.958 276.103 185.904C276.053 185.858 276.015 185.8 275.992 185.736C275.97 185.671 275.963 185.602 275.973 185.535C276.049 185.282 276.22 185.248 276.233 185.295Z" fill="#263238"/>
<path d="M278.34 185.74C278.402 185.815 278.272 186.014 278.053 186.178C277.834 186.342 277.615 186.41 277.554 186.328C277.492 186.246 277.622 186.055 277.841 185.891C278.06 185.726 278.285 185.658 278.34 185.74Z" fill="#263238"/>
<path d="M279.031 186.424C279.072 186.513 278.976 186.65 278.819 186.732C278.662 186.814 278.484 186.807 278.443 186.732C278.402 186.657 278.491 186.506 278.655 186.424C278.819 186.342 278.99 186.342 279.031 186.424Z" fill="#263238"/>
<path d="M280.002 187.512C279.9 187.512 279.804 187.382 279.77 187.19C279.735 186.999 279.804 186.834 279.9 186.821C279.995 186.807 280.098 186.951 280.125 187.142C280.153 187.334 280.098 187.498 280.002 187.512Z" fill="#263238"/>
<path d="M281.569 187.491C281.547 187.579 281.547 187.67 281.569 187.758C281.61 187.895 281.699 187.99 281.849 187.901C282 187.813 281.958 187.683 281.849 187.587C281.74 187.491 281.63 187.518 281.603 187.477C281.575 187.436 281.685 187.286 281.945 187.354C282.021 187.375 282.09 187.415 282.146 187.47C282.202 187.525 282.244 187.594 282.266 187.669C282.295 187.798 282.271 187.933 282.201 188.044C282.13 188.156 282.019 188.235 281.89 188.264C281.817 188.282 281.74 188.282 281.667 188.265C281.593 188.249 281.525 188.216 281.466 188.168C281.408 188.115 281.365 188.049 281.34 187.975C281.315 187.9 281.309 187.821 281.322 187.744C281.357 187.477 281.555 187.416 281.569 187.491Z" fill="#263238"/>
<path d="M283.429 188.209C283.497 188.285 283.395 188.476 283.203 188.64C283.012 188.804 282.807 188.88 282.745 188.804C282.684 188.729 282.779 188.538 282.971 188.374C283.162 188.209 283.368 188.134 283.429 188.209Z" fill="#263238"/>
<path d="M284.66 188.941C284.729 189.01 284.619 189.222 284.366 189.338C284.113 189.454 283.874 189.393 283.867 189.29C283.86 189.187 284.024 189.099 284.216 189.01C284.407 188.921 284.585 188.866 284.66 188.941Z" fill="#263238"/>
<path d="M285.591 190.275C285.495 190.309 285.372 190.2 285.317 190.036C285.262 189.871 285.317 189.714 285.385 189.687C285.454 189.659 285.604 189.762 285.659 189.926C285.714 190.09 285.679 190.248 285.591 190.275Z" fill="#263238"/>
<path d="M286.644 189.646C286.603 189.646 286.685 189.441 286.945 189.454C287.038 189.459 287.126 189.495 287.197 189.555C287.268 189.616 287.317 189.698 287.336 189.789C287.356 189.88 287.345 189.975 287.305 190.059C287.265 190.143 287.199 190.212 287.116 190.255C287.027 190.314 286.92 190.339 286.814 190.326C286.709 190.312 286.611 190.26 286.541 190.179C286.494 190.115 286.466 190.038 286.46 189.958C286.454 189.879 286.47 189.799 286.507 189.728C286.637 189.495 286.856 189.543 286.835 189.591C286.787 189.657 286.756 189.735 286.746 189.817C286.746 189.94 286.801 190.022 286.931 189.947C287.061 189.872 287.013 189.776 286.89 189.7C286.767 189.625 286.685 189.68 286.644 189.646Z" fill="#263238"/>
<path d="M287.629 188.688C287.547 188.743 287.403 188.688 287.307 188.544C287.212 188.401 287.205 188.25 287.307 188.196C287.41 188.141 287.533 188.196 287.629 188.339C287.725 188.483 287.711 188.633 287.629 188.688Z" fill="#263238"/>
<path d="M288.114 187.902C288.046 187.97 287.902 187.943 287.793 187.833C287.684 187.724 287.649 187.58 287.718 187.512C287.786 187.443 287.937 187.471 288.046 187.58C288.156 187.689 288.183 187.833 288.114 187.902Z" fill="#263238"/>
<path d="M288.648 186.397C288.6 186.397 288.703 186.212 288.915 186.287C288.978 186.31 289.033 186.35 289.073 186.404C289.113 186.457 289.136 186.522 289.141 186.588C289.132 186.694 289.082 186.792 289.001 186.862C288.92 186.931 288.816 186.965 288.71 186.958C288.648 186.955 288.588 186.937 288.534 186.906C288.481 186.875 288.435 186.832 288.402 186.78C288.372 186.727 288.356 186.666 288.356 186.605C288.356 186.544 288.372 186.484 288.402 186.431C288.484 186.253 288.634 186.246 288.648 186.287C288.655 186.356 288.655 186.424 288.648 186.493C288.649 186.512 288.653 186.531 288.661 186.549C288.67 186.566 288.681 186.582 288.696 186.595H288.833V186.52C288.833 186.52 288.703 186.431 288.648 186.397Z" fill="#263238"/>
<path d="M289.742 187.512C289.692 187.49 289.652 187.451 289.629 187.402C289.607 187.353 289.603 187.297 289.619 187.245C289.622 187.219 289.63 187.193 289.642 187.17C289.654 187.147 289.671 187.127 289.692 187.11C289.712 187.094 289.735 187.081 289.761 187.074C289.786 187.067 289.812 187.064 289.838 187.067C289.888 187.087 289.928 187.125 289.95 187.173C289.973 187.221 289.977 187.276 289.961 187.327C289.953 187.379 289.926 187.426 289.886 187.46C289.846 187.494 289.795 187.512 289.742 187.512Z" fill="#263238"/>
<path d="M290.242 188.1C290.204 188.062 290.177 188.015 290.163 187.963C290.148 187.912 290.147 187.858 290.16 187.806C290.16 187.751 290.177 187.698 290.209 187.654C290.241 187.61 290.286 187.577 290.337 187.56C290.433 187.56 290.55 187.676 290.515 187.867C290.481 188.059 290.317 188.161 290.242 188.1Z" fill="#263238"/>
<path d="M290.933 188.893C290.896 188.934 290.848 188.964 290.794 188.979C290.741 188.993 290.684 188.992 290.632 188.975C290.576 188.975 290.523 188.957 290.478 188.923C290.434 188.89 290.401 188.844 290.385 188.791C290.385 188.695 290.508 188.585 290.7 188.62C290.892 188.654 290.98 188.784 290.933 188.893Z" fill="#263238"/>
<path d="M291.493 189.564C291.459 189.529 291.548 189.393 291.76 189.427C291.826 189.441 291.887 189.471 291.938 189.513C291.989 189.556 292.029 189.611 292.054 189.673C292.084 189.777 292.071 189.889 292.019 189.984C291.966 190.079 291.878 190.149 291.774 190.179C291.704 190.199 291.629 190.2 291.558 190.182C291.488 190.164 291.423 190.128 291.37 190.077C291.331 190.019 291.309 189.951 291.309 189.882C291.309 189.812 291.331 189.744 291.37 189.687C291.48 189.482 291.671 189.536 291.651 189.584C291.617 189.64 291.6 189.704 291.603 189.769C291.603 189.858 291.603 189.858 291.644 189.858H291.712C291.781 189.858 291.76 189.817 291.767 189.796C291.76 189.755 291.738 189.719 291.705 189.694C291.603 189.605 291.521 189.605 291.493 189.564Z" fill="#263238"/>
<path d="M292.369 190.918C292.317 190.903 292.273 190.87 292.245 190.824C292.217 190.779 292.208 190.724 292.218 190.672C292.218 190.645 292.222 190.619 292.232 190.595C292.241 190.57 292.256 190.548 292.274 190.529C292.293 190.511 292.315 190.496 292.34 190.486C292.364 190.477 292.391 190.472 292.417 190.473C292.442 190.478 292.467 190.488 292.489 190.502C292.51 190.517 292.529 190.535 292.544 190.557C292.558 190.579 292.569 190.603 292.574 190.628C292.579 190.654 292.579 190.68 292.574 190.706C292.573 190.76 292.551 190.812 292.513 190.852C292.475 190.891 292.423 190.914 292.369 190.918Z" fill="#263238"/>
<path d="M293.696 190.214C293.696 190.309 293.504 190.357 293.313 190.309C293.121 190.261 292.985 190.152 293.005 190.056C293.026 189.96 293.203 189.919 293.395 189.96C293.586 190.001 293.716 190.152 293.696 190.214Z" fill="#263238"/>
<path d="M294.195 189.974C294.14 189.967 294.09 189.941 294.053 189.899C294.016 189.857 293.996 189.804 293.997 189.748C293.997 189.612 294.052 189.488 294.154 189.482C294.257 189.475 294.339 189.577 294.353 189.714C294.366 189.851 294.298 189.967 294.195 189.974Z" fill="#263238"/>
<path d="M295.125 189.235C295.03 189.235 294.948 189.126 294.948 188.989C294.948 188.852 295.03 188.743 295.125 188.743C295.221 188.743 295.303 188.852 295.303 188.989C295.303 189.126 295.228 189.235 295.125 189.235Z" fill="#263238"/>
<path d="M295.844 188.23C295.844 188.196 295.967 188.059 296.193 188.196C296.259 188.236 296.312 188.296 296.345 188.366C296.377 188.437 296.389 188.515 296.377 188.592C296.359 188.696 296.302 188.788 296.218 188.852C296.135 188.915 296.03 188.945 295.926 188.934C295.832 188.942 295.738 188.917 295.662 188.862C295.585 188.807 295.53 188.727 295.507 188.636C295.484 188.545 295.495 188.448 295.536 188.364C295.578 188.279 295.648 188.212 295.734 188.175C295.967 188.059 296.11 188.216 296.069 188.25C296.028 188.284 295.946 188.25 295.878 188.38C295.86 188.399 295.847 188.422 295.839 188.447C295.83 188.472 295.827 188.498 295.83 188.524C295.859 188.554 295.898 188.574 295.939 188.579C296.008 188.579 296.042 188.579 296.056 188.531C296.063 188.483 296.063 188.435 296.056 188.387C296.056 188.339 295.864 188.271 295.844 188.23Z" fill="#263238"/>
<path d="M297.697 187.655C297.622 187.731 297.492 187.71 297.362 187.696C297.232 187.683 297.095 187.642 297.054 187.553C297.013 187.464 297.164 187.3 297.417 187.341C297.67 187.382 297.766 187.594 297.697 187.655Z" fill="#263238"/>
<path d="M298.634 187.163C298.587 187.252 298.395 187.245 298.19 187.211C297.985 187.176 297.807 187.115 297.793 187.012C297.779 186.91 297.991 186.807 298.251 186.855C298.511 186.903 298.682 187.081 298.634 187.163Z" fill="#263238"/>
<path d="M299.168 186.732C299.072 186.732 299.004 186.602 299.011 186.465C299.017 186.328 299.113 186.226 299.216 186.24C299.318 186.253 299.38 186.363 299.366 186.499C299.367 186.556 299.347 186.61 299.311 186.653C299.274 186.696 299.223 186.724 299.168 186.732Z" fill="#263238"/>
<path d="M299.975 185.466C299.941 185.466 300.043 185.282 300.29 185.33C300.366 185.349 300.434 185.391 300.487 185.449C300.539 185.508 300.573 185.58 300.584 185.658C300.597 185.758 300.577 185.859 300.526 185.946C300.475 186.032 300.397 186.1 300.303 186.137C300.205 186.167 300.099 186.162 300.003 186.122C299.908 186.082 299.83 186.01 299.784 185.918C299.744 185.845 299.731 185.759 299.749 185.678C299.767 185.596 299.813 185.524 299.879 185.473C300.098 185.316 300.255 185.473 300.221 185.473C300.187 185.473 300.105 185.535 300.057 185.631C300.009 185.726 300.057 185.713 300.057 185.733C300.071 185.749 300.087 185.761 300.106 185.77C300.125 185.778 300.146 185.782 300.167 185.781C300.187 185.768 300.204 185.751 300.216 185.731C300.229 185.711 300.238 185.688 300.242 185.665C300.244 185.642 300.239 185.62 300.23 185.599C300.22 185.579 300.206 185.562 300.187 185.549C300.112 185.494 300.002 185.508 299.975 185.466Z" fill="#263238"/>
<path d="M301.145 185.432C301.092 185.41 301.05 185.369 301.026 185.317C301.002 185.265 300.998 185.206 301.015 185.152C301.015 185.123 301.021 185.094 301.032 185.067C301.044 185.041 301.06 185.017 301.082 184.997C301.103 184.977 301.128 184.962 301.155 184.952C301.182 184.942 301.211 184.938 301.24 184.94C301.336 184.94 301.391 185.084 301.364 185.22C301.336 185.357 301.24 185.453 301.145 185.432Z" fill="#263238"/>
<path d="M302.136 184.598C302.085 184.583 302.041 184.55 302.013 184.504C301.985 184.459 301.975 184.404 301.986 184.352C301.982 184.328 301.983 184.303 301.989 184.28C301.995 184.256 302.006 184.234 302.02 184.215C302.035 184.196 302.054 184.18 302.075 184.168C302.096 184.156 302.119 184.149 302.143 184.146C302.168 184.142 302.192 184.143 302.216 184.149C302.24 184.155 302.263 184.166 302.282 184.18C302.302 184.195 302.319 184.214 302.331 184.235C302.344 184.256 302.352 184.279 302.355 184.304C302.362 184.333 302.362 184.363 302.355 184.393C302.352 184.448 302.327 184.5 302.287 184.539C302.246 184.577 302.192 184.598 302.136 184.598Z" fill="#263238"/>
<path d="M303.532 183.791C303.477 183.873 303.306 183.859 303.128 183.791C302.95 183.722 302.793 183.688 302.779 183.586C302.766 183.483 302.964 183.387 303.21 183.442C303.457 183.497 303.587 183.709 303.532 183.791Z" fill="#263238"/>
<path d="M304.202 183.312C304.113 183.353 303.976 183.223 304.031 183.045C304.086 182.867 304.264 182.833 304.318 182.915C304.341 182.949 304.357 182.987 304.366 183.027C304.374 183.067 304.374 183.108 304.366 183.148C304.352 183.185 304.33 183.219 304.302 183.248C304.274 183.276 304.24 183.298 304.202 183.312Z" fill="#263238"/>
<path d="M305.009 182.525C304.958 182.511 304.914 182.477 304.886 182.432C304.858 182.386 304.848 182.331 304.859 182.279C304.859 182.252 304.864 182.226 304.875 182.202C304.885 182.177 304.9 182.155 304.919 182.136C304.938 182.118 304.961 182.103 304.986 182.094C305.011 182.084 305.037 182.08 305.064 182.081C305.115 182.094 305.159 182.126 305.187 182.17C305.215 182.215 305.225 182.268 305.214 182.32C305.211 182.373 305.189 182.424 305.151 182.462C305.113 182.499 305.063 182.522 305.009 182.525Z" fill="#263238"/>
<path d="M295.146 146.191L290.611 150.754L301.596 161.554C301.596 161.554 303.833 155.042 305.392 149.31C306.494 145.261 295.146 146.191 295.146 146.191Z" fill="#5064BF"/>
<path d="M293.374 151.164C293.279 151.164 293.176 150.965 293.149 150.706C293.121 150.446 293.183 150.22 293.279 150.213C293.374 150.206 293.477 150.405 293.504 150.671C293.532 150.938 293.47 151.164 293.374 151.164Z" fill="#263238"/>
<path d="M294.421 151.376C294.421 151.472 294.25 151.554 294.038 151.554C293.826 151.554 293.662 151.472 293.662 151.376C293.662 151.28 293.833 151.198 294.038 151.198C294.243 151.198 294.421 151.273 294.421 151.376Z" fill="#263238"/>
<path d="M294.708 152.894C294.619 152.84 294.626 152.682 294.626 152.511C294.626 152.34 294.626 152.19 294.708 152.135C294.79 152.08 294.982 152.231 294.982 152.511C294.982 152.792 294.804 152.956 294.708 152.894Z" fill="#263238"/>
<path d="M295.611 153.045C295.57 153.045 295.727 152.826 296.022 152.922C296.111 152.95 296.191 153.002 296.253 153.072C296.316 153.141 296.359 153.227 296.377 153.318C296.391 153.442 296.361 153.567 296.292 153.671C296.223 153.775 296.119 153.852 296 153.888C295.88 153.924 295.752 153.916 295.637 153.867C295.522 153.818 295.428 153.731 295.372 153.619C295.34 153.528 295.336 153.429 295.361 153.335C295.385 153.242 295.436 153.157 295.509 153.093C295.551 153.05 295.603 153.019 295.66 153C295.717 152.981 295.777 152.975 295.837 152.983C295.926 152.983 295.953 153.052 295.939 153.065C295.841 153.101 295.756 153.168 295.7 153.257C295.611 153.407 295.659 153.606 295.898 153.544C296.138 153.483 296.076 153.264 295.898 153.154C295.721 153.045 295.638 153.086 295.611 153.045Z" fill="#263238"/>
<path d="M296.794 154.892C296.706 154.892 296.671 154.707 296.719 154.55C296.767 154.392 296.89 154.29 296.986 154.317C297.082 154.345 297.116 154.502 297.061 154.659C297.006 154.816 296.89 154.919 296.794 154.892Z" fill="#263238"/>
<path d="M297.82 154.693C297.916 154.693 297.95 154.981 297.896 155.295C297.841 155.61 297.718 155.856 297.622 155.836C297.526 155.815 297.492 155.548 297.547 155.234C297.602 154.919 297.725 154.68 297.82 154.693Z" fill="#263238"/>
<path d="M298.908 155.952C298.908 156.048 298.737 156.15 298.498 156.178C298.258 156.205 298.067 156.143 298.053 156.048C298.039 155.952 298.224 155.849 298.463 155.822C298.703 155.795 298.908 155.836 298.908 155.952Z" fill="#263238"/>
<path d="M299.353 156.472C299.353 156.431 299.496 156.321 299.756 156.431C299.835 156.464 299.905 156.516 299.961 156.581C300.017 156.646 300.057 156.724 300.078 156.807C300.101 156.921 300.086 157.04 300.035 157.145C299.985 157.25 299.901 157.335 299.797 157.388C299.691 157.452 299.565 157.472 299.444 157.445C299.323 157.419 299.217 157.347 299.147 157.245C299.103 157.159 299.088 157.06 299.105 156.965C299.123 156.87 299.171 156.783 299.243 156.718C299.287 156.672 299.343 156.64 299.405 156.625C299.467 156.611 299.532 156.614 299.592 156.636C299.674 156.67 299.688 156.718 299.674 156.732C299.626 156.737 299.581 156.756 299.543 156.785C299.504 156.813 299.474 156.852 299.455 156.896C299.38 157.06 299.455 157.17 299.654 157.087C299.852 157.005 299.784 156.786 299.654 156.663C299.524 156.54 299.359 156.527 299.353 156.472Z" fill="#263238"/>
<path d="M300.502 158.886C300.406 158.886 300.324 158.626 300.324 158.312C300.324 157.997 300.406 157.744 300.502 157.744C300.597 157.744 300.68 157.997 300.68 158.312C300.68 158.626 300.604 158.886 300.502 158.886Z" fill="#263238"/>
<path d="M298.846 141.513C298.587 142.046 298.256 142.541 297.861 142.983C297.177 143.845 296.234 145.035 295.125 146.246C294.017 147.457 293.005 148.599 292.26 149.392C291.877 149.842 291.454 150.254 290.994 150.624C291.305 150.122 291.664 149.652 292.068 149.221C292.752 148.394 293.764 147.258 294.859 146.013L297.663 142.819C298.027 142.357 298.422 141.92 298.846 141.513Z" fill="#263238"/>
<path d="M306.528 182.443C306.528 182.539 306.323 182.573 306.117 182.525C305.912 182.477 305.769 182.354 305.789 182.259C305.81 182.163 306.001 182.129 306.199 182.177C306.398 182.224 306.548 182.348 306.528 182.443Z" fill="#263238"/>
<path d="M307.048 181.609C307.048 181.575 307.089 181.465 307.287 181.451C307.352 181.452 307.415 181.472 307.469 181.508C307.522 181.545 307.564 181.597 307.588 181.657C307.608 181.694 307.62 181.735 307.623 181.778C307.627 181.82 307.621 181.862 307.608 181.903C307.595 181.943 307.573 181.98 307.545 182.012C307.517 182.044 307.483 182.069 307.444 182.088H307.376C307.034 182.176 306.74 181.841 306.89 181.581C306.912 181.542 306.946 181.511 306.986 181.491C307.026 181.472 307.072 181.465 307.116 181.472C307.126 181.471 307.136 181.473 307.146 181.478C307.155 181.482 307.163 181.488 307.169 181.496C307.175 181.505 307.179 181.514 307.18 181.524C307.182 181.534 307.181 181.544 307.178 181.554C307.156 181.569 307.139 181.59 307.129 181.614C307.118 181.638 307.113 181.665 307.116 181.691C307.116 181.691 307.219 181.766 307.28 181.746C307.283 181.731 307.28 181.716 307.272 181.704C307.265 181.691 307.253 181.682 307.239 181.677C307.164 181.657 307.068 181.657 307.048 181.609Z" fill="#263238"/>
<path d="M248.832 157.361C248.442 156.068 243.538 153.414 244.277 152.696C245.235 151.752 249.27 155.692 249.633 156C249.995 156.308 250.44 155.781 250.098 155.521C249.605 155.145 244.503 151.095 245.44 150.165C245.96 149.645 246.808 150.692 246.808 150.692C246.808 150.692 251.308 154.844 251.739 154.385C252.17 153.927 249.605 151.396 248.682 150.61C247.758 149.823 247.765 149.064 248.436 148.941C248.887 148.852 251.774 151.205 252.663 152.012C253.552 152.819 255.98 155.063 255.659 152.963V152.867C255.289 150.815 255.659 149.098 256.137 148.688C256.238 148.587 256.368 148.52 256.508 148.496C256.649 148.473 256.794 148.494 256.922 148.556C257.05 148.619 257.155 148.72 257.223 148.845C257.291 148.971 257.318 149.114 257.3 149.255C257.321 149.357 257.321 149.462 257.3 149.563V149.714C257.28 150.43 257.328 151.147 257.444 151.855C257.538 152.49 257.739 153.106 258.039 153.674C258.388 154.358 258.723 154.878 258.997 155.336C262.273 157.142 271.705 161.909 281.151 162.635C282.861 162.764 291.514 151.574 291.514 151.574L300.002 159.912C298.853 161.875 298.45 162.327 292.684 170.213C283.279 183.079 253.696 161.773 253.696 161.773L253.422 161.636C251.174 160.539 248.991 159.315 246.883 157.97C244.338 156.184 244.489 155.952 244.742 155.678C245.317 154.96 249.229 158.688 248.832 157.361Z" fill="#FFBE9D"/>
</svg>
